<svg width="128" height="21" viewBox="0 0 128 21" fill="none" xmlns="http://www.w3.org/2000/svg">
<path d="M17 7L8.3333 14L4 10.5" stroke="#6D757C" stroke-width="1.6"/>
<path d="M21.1449 15V5.54545H26.8139V6.56108H22.2898V9.75568H26.3892V10.7713H22.2898V15H21.1449ZM28.7509 15V7.90909H29.8034V8.98011H29.8773C30.0066 8.62926 30.2405 8.34458 30.579 8.12606C30.9175 7.90755 31.2992 7.79829 31.7239 7.79829C31.8039 7.79829 31.9039 7.79983 32.024 7.80291C32.144 7.80599 32.2348 7.81061 32.2963 7.81676V8.92472C32.2594 8.91548 32.1748 8.90163 32.0424 8.88317C31.9132 8.86162 31.7762 8.85085 31.6316 8.85085C31.2869 8.85085 30.9791 8.92318 30.7083 9.06783C30.4405 9.2094 30.2281 9.40637 30.0712 9.65874C29.9173 9.90803 29.8404 10.1927 29.8404 10.5128V15H28.7509ZM36.545 15.1477C35.8617 15.1477 35.2724 14.9969 34.7769 14.6953C34.2844 14.3906 33.9043 13.9659 33.6366 13.4212C33.3719 12.8733 33.2396 12.2363 33.2396 11.5099C33.2396 10.7836 33.3719 10.1435 33.6366 9.58949C33.9043 9.03243 34.2767 8.59848 34.7538 8.28764C35.2339 7.97372 35.794 7.81676 36.4342 7.81676C36.8035 7.81676 37.1682 7.87831 37.5283 8.00142C37.8884 8.12453 38.2161 8.32457 38.5116 8.60156C38.807 8.87547 39.0425 9.23864 39.2179 9.69105C39.3933 10.1435 39.4811 10.7005 39.4811 11.3622V11.8239H34.0151V10.8821H38.3731C38.3731 10.482 38.2931 10.125 38.133 9.81108C37.9761 9.49716 37.7514 9.24941 37.459 9.06783C37.1697 8.88625 36.8281 8.79545 36.4342 8.79545C36.0002 8.79545 35.6248 8.90317 35.3078 9.11861C34.9938 9.33097 34.7522 9.60795 34.583 9.94957C34.4137 10.2912 34.3291 10.6574 34.3291 11.0483V11.6761C34.3291 12.2116 34.4214 12.6656 34.6061 13.038C34.7938 13.4073 35.0539 13.6889 35.3862 13.8828C35.7186 14.0736 36.1049 14.169 36.545 14.169C36.8312 14.169 37.0897 14.129 37.3205 14.049C37.5544 13.9659 37.756 13.8428 37.9253 13.6797C38.0946 13.5135 38.2254 13.3073 38.3177 13.0611L39.3703 13.3565C39.2595 13.7135 39.0733 14.0275 38.8117 14.2983C38.5501 14.5661 38.2269 14.7753 37.8422 14.9261C37.4575 15.0739 37.0251 15.1477 36.545 15.1477ZM44.3114 15.1477C43.6281 15.1477 43.0388 14.9969 42.5433 14.6953C42.0508 14.3906 41.6708 13.9659 41.403 13.4212C41.1383 12.8733 41.006 12.2363 41.006 11.5099C41.006 10.7836 41.1383 10.1435 41.403 9.58949C41.6708 9.03243 42.0432 8.59848 42.5202 8.28764C43.0003 7.97372 43.5604 7.81676 44.2006 7.81676C44.5699 7.81676 44.9346 7.87831 45.2947 8.00142C45.6548 8.12453 45.9825 8.32457 46.278 8.60156C46.5735 8.87547 46.8089 9.23864 46.9843 9.69105C47.1597 10.1435 47.2475 10.7005 47.2475 11.3622V11.8239H41.7816V10.8821H46.1395C46.1395 10.482 46.0595 10.125 45.8995 9.81108C45.7425 9.49716 45.5178 9.24941 45.2254 9.06783C44.9361 8.88625 44.5945 8.79545 44.2006 8.79545C43.7666 8.79545 43.3912 8.90317 43.0742 9.11861C42.7602 9.33097 42.5186 9.60795 42.3494 9.94957C42.1801 10.2912 42.0955 10.6574 42.0955 11.0483V11.6761C42.0955 12.2116 42.1878 12.6656 42.3725 13.038C42.5602 13.4073 42.8203 13.6889 43.1526 13.8828C43.485 14.0736 43.8713 14.169 44.3114 14.169C44.5976 14.169 44.8561 14.129 45.087 14.049C45.3209 13.9659 45.5224 13.8428 45.6917 13.6797C45.861 13.5135 45.9918 13.3073 46.0841 13.0611L47.1367 13.3565C47.0259 13.7135 46.8397 14.0275 46.5781 14.2983C46.3165 14.5661 45.9933 14.7753 45.6086 14.9261C45.2239 15.0739 44.7915 15.1477 44.3114 15.1477ZM56.1372 15.1293C55.5278 15.1293 54.9846 15.0246 54.5075 14.8153C54.0336 14.6061 53.6566 14.3152 53.3765 13.9428C53.0995 13.5674 52.9487 13.1319 52.9241 12.6364H54.0874C54.1121 12.9411 54.2167 13.2042 54.4014 13.4258C54.586 13.6443 54.8276 13.8136 55.1262 13.9336C55.4247 14.0536 55.7555 14.1136 56.1187 14.1136C56.5249 14.1136 56.885 14.0429 57.199 13.9013C57.5129 13.7597 57.7591 13.5627 57.9376 13.3104C58.1161 13.058 58.2053 12.7656 58.2053 12.4332C58.2053 12.0855 58.1192 11.7792 57.9468 11.5146C57.7745 11.2468 57.5221 11.0375 57.1897 10.8867C56.8573 10.7359 56.4511 10.6605 55.971 10.6605H55.2139V9.64489H55.971C56.3464 9.64489 56.6758 9.57718 56.9589 9.44176C57.2451 9.30634 57.4682 9.11553 57.6283 8.86932C57.7914 8.62311 57.873 8.33381 57.873 8.00142C57.873 7.68134 57.8022 7.40282 57.6606 7.16584C57.519 6.92886 57.319 6.7442 57.0605 6.61186C56.805 6.47952 56.5034 6.41335 56.1556 6.41335C55.8294 6.41335 55.5216 6.47337 55.2323 6.59339C54.9461 6.71035 54.7122 6.88116 54.5306 7.10582C54.349 7.32741 54.2506 7.59517 54.2352 7.90909H53.1272C53.1457 7.41359 53.295 6.97964 53.575 6.60724C53.8551 6.23177 54.2213 5.93939 54.6737 5.73011C55.1292 5.52083 55.6294 5.41619 56.1741 5.41619C56.7588 5.41619 57.2605 5.53468 57.6791 5.77166C58.0976 6.00556 58.4192 6.31487 58.6439 6.69957C58.8686 7.08428 58.9809 7.49976 58.9809 7.94602C58.9809 8.47846 58.8409 8.93241 58.5608 9.30788C58.2838 9.68336 57.9068 9.94342 57.4298 10.0881V10.1619C58.0268 10.2604 58.4931 10.5143 58.8286 10.9237C59.164 11.3299 59.3318 11.8331 59.3318 12.4332C59.3318 12.9472 59.1917 13.4089 58.9117 13.8182C58.6347 14.2244 58.2561 14.5445 57.776 14.7784C57.2959 15.0123 56.7496 15.1293 56.1372 15.1293ZM64.5037 15.1293C63.8082 15.1293 63.2157 14.94 62.7264 14.5614C62.237 14.1798 61.8631 13.6274 61.6046 12.9041C61.346 12.1778 61.2168 11.3007 61.2168 10.2727C61.2168 9.25095 61.346 8.37843 61.6046 7.65518C61.8662 6.92886 62.2416 6.37488 62.731 5.99325C63.2234 5.60855 63.8143 5.41619 64.5037 5.41619C65.1931 5.41619 65.7825 5.60855 66.2718 5.99325C66.7642 6.37488 67.1397 6.92886 67.3982 7.65518C67.6598 8.37843 67.7906 9.25095 67.7906 10.2727C67.7906 11.3007 67.6614 12.1778 67.4029 12.9041C67.1443 13.6274 66.7704 14.1798 66.2811 14.5614C65.7917 14.94 65.1993 15.1293 64.5037 15.1293ZM64.5037 14.1136C65.1931 14.1136 65.7286 13.7812 66.1102 13.1165C66.4919 12.4517 66.6827 11.5038 66.6827 10.2727C66.6827 9.45407 66.595 8.75698 66.4196 8.18146C66.2472 7.60594 65.9979 7.16738 65.6717 6.86577C65.3485 6.56416 64.9592 6.41335 64.5037 6.41335C63.8205 6.41335 63.2865 6.75035 62.9018 7.42436C62.5171 8.09529 62.3247 9.04474 62.3247 10.2727C62.3247 11.0914 62.4109 11.7869 62.5833 12.3594C62.7556 12.9318 63.0034 13.3673 63.3265 13.6658C63.6527 13.9644 64.0451 14.1136 64.5037 14.1136ZM73.8259 10.4389V11.4545H69.6895V10.4389H73.8259ZM78.6204 15.1477C78.0295 15.1477 77.5078 14.9985 77.0554 14.6999C76.603 14.3983 76.2491 13.9736 75.9936 13.4258C75.7382 12.8749 75.6105 12.224 75.6105 11.473C75.6105 10.7282 75.7382 10.0819 75.9936 9.53409C76.2491 8.98627 76.6046 8.56309 77.06 8.26456C77.5155 7.96603 78.0418 7.81676 78.6389 7.81676C79.1005 7.81676 79.4652 7.8937 79.733 8.04759C80.0038 8.19839 80.21 8.37074 80.3516 8.56463C80.4962 8.75544 80.6086 8.91241 80.6886 9.03551H80.7809V5.54545H81.8704V15H80.8179V13.9105H80.6886C80.6086 14.0398 80.4947 14.2029 80.347 14.3999C80.1993 14.5937 79.9884 14.7676 79.7145 14.9215C79.4406 15.0723 79.0759 15.1477 78.6204 15.1477ZM78.7681 14.169C79.2052 14.169 79.5745 14.0552 79.8761 13.8274C80.1777 13.5966 80.407 13.2781 80.564 12.8718C80.7209 12.4625 80.7994 11.9901 80.7994 11.4545C80.7994 10.9252 80.7225 10.462 80.5686 10.065C80.4147 9.66489 80.1869 9.35405 79.8853 9.13246C79.5837 8.90779 79.2113 8.79545 78.7681 8.79545C78.3065 8.79545 77.9218 8.91394 77.614 9.15092C77.3093 9.38482 77.0801 9.70336 76.9262 10.1065C76.7754 10.5066 76.7 10.956 76.7 11.4545C76.7 11.9593 76.7769 12.4179 76.9308 12.8303C77.0877 13.2396 77.3186 13.5658 77.6233 13.8089C77.931 14.049 78.3127 14.169 78.7681 14.169ZM86.3037 15.1662C85.8544 15.1662 85.4466 15.0816 85.0804 14.9123C84.7141 14.7399 84.4233 14.4922 84.2078 14.169C83.9924 13.8428 83.8847 13.4489 83.8847 12.9872C83.8847 12.581 83.9647 12.2517 84.1248 11.9993C84.2848 11.7438 84.4987 11.5438 84.7664 11.3991C85.0342 11.2545 85.3297 11.1468 85.6528 11.076C85.979 11.0021 86.3068 10.9437 86.6361 10.9006C87.067 10.8452 87.4163 10.8036 87.6841 10.7759C87.9549 10.7451 88.1519 10.6944 88.275 10.6236C88.4011 10.5528 88.4642 10.4297 88.4642 10.2543V10.2173C88.4642 9.76184 88.3396 9.40791 88.0903 9.15554C87.8441 8.90317 87.4702 8.77699 86.9685 8.77699C86.4484 8.77699 86.0406 8.89086 85.7451 9.11861C85.4497 9.34635 85.2419 9.58949 85.1219 9.84801L84.0878 9.47869C84.2725 9.04782 84.5187 8.71236 84.8265 8.4723C85.1373 8.22917 85.4758 8.0599 85.8421 7.96449C86.2114 7.866 86.5746 7.81676 86.9316 7.81676C87.1593 7.81676 87.4209 7.84446 87.7164 7.89986C88.0149 7.95218 88.3027 8.06143 88.5797 8.22763C88.8597 8.39382 89.0921 8.64465 89.2767 8.98011C89.4614 9.31558 89.5537 9.76491 89.5537 10.3281V15H88.4642V14.0398H88.4088C88.335 14.1937 88.2119 14.3583 88.0395 14.5337C87.8672 14.7092 87.6379 14.8584 87.3517 14.9815C87.0654 15.1046 86.7161 15.1662 86.3037 15.1662ZM86.4699 14.1875C86.9008 14.1875 87.264 14.1029 87.5594 13.9336C87.8579 13.7643 88.0826 13.5458 88.2334 13.2781C88.3873 13.0103 88.4642 12.7287 88.4642 12.4332V11.4361C88.4181 11.4915 88.3165 11.5423 88.1596 11.5884C88.0057 11.6315 87.8272 11.67 87.624 11.7038C87.424 11.7346 87.2286 11.7623 87.0377 11.7869C86.85 11.8085 86.6977 11.8269 86.5807 11.8423C86.2976 11.8793 86.0329 11.9393 85.7867 12.0224C85.5435 12.1024 85.3466 12.224 85.1958 12.3871C85.048 12.5471 84.9742 12.7656 84.9742 13.0426C84.9742 13.4212 85.1142 13.7074 85.3943 13.9013C85.6774 14.0921 86.036 14.1875 86.4699 14.1875ZM92.1901 17.6591C92.0054 17.6591 91.8408 17.6437 91.6961 17.6129C91.5515 17.5852 91.4514 17.5575 91.396 17.5298L91.673 16.5696C91.9377 16.6373 92.1716 16.6619 92.3747 16.6435C92.5779 16.625 92.7579 16.5342 92.9149 16.3711C93.0749 16.2111 93.2211 15.951 93.3534 15.5909L93.5566 15.0369L90.9344 7.90909H92.1162L94.0736 13.5597H94.1475L96.1048 7.90909H97.2867L94.2767 16.0341C94.1413 16.4003 93.9736 16.7035 93.7735 16.9435C93.5735 17.1867 93.3411 17.3667 93.0764 17.4837C92.8148 17.6006 92.5194 17.6591 92.1901 17.6591ZM105.865 7.90909V8.83239H102.19V7.90909H105.865ZM103.261 6.21023H104.351V12.9688C104.351 13.2765 104.395 13.5073 104.484 13.6612C104.577 13.812 104.694 13.9136 104.835 13.9659C104.98 14.0152 105.132 14.0398 105.292 14.0398C105.412 14.0398 105.511 14.0336 105.588 14.0213C105.665 14.0059 105.726 13.9936 105.772 13.9844L105.994 14.9631C105.92 14.9908 105.817 15.0185 105.685 15.0462C105.552 15.0769 105.385 15.0923 105.182 15.0923C104.874 15.0923 104.572 15.0262 104.277 14.8938C103.984 14.7615 103.741 14.5599 103.547 14.2891C103.356 14.0182 103.261 13.6766 103.261 13.2642V6.21023ZM107.704 15V7.90909H108.756V8.98011H108.83C108.959 8.62926 109.193 8.34458 109.532 8.12606C109.87 7.90755 110.252 7.79829 110.677 7.79829C110.757 7.79829 110.857 7.79983 110.977 7.80291C111.097 7.80599 111.188 7.81061 111.249 7.81676V8.92472C111.212 8.91548 111.127 8.90163 110.995 8.88317C110.866 8.86162 110.729 8.85085 110.584 8.85085C110.24 8.85085 109.932 8.92318 109.661 9.06783C109.393 9.2094 109.181 9.40637 109.024 9.65874C108.87 9.90803 108.793 10.1927 108.793 10.5128V15H107.704ZM112.741 15V7.90909H113.83V15H112.741ZM113.294 6.72727C113.082 6.72727 112.899 6.65495 112.745 6.5103C112.594 6.36565 112.519 6.19176 112.519 5.98864C112.519 5.78551 112.594 5.61162 112.745 5.46697C112.899 5.32232 113.082 5.25 113.294 5.25C113.507 5.25 113.688 5.32232 113.839 5.46697C113.993 5.61162 114.07 5.78551 114.07 5.98864C114.07 6.19176 113.993 6.36565 113.839 6.5103C113.688 6.65495 113.507 6.72727 113.294 6.72727ZM118.112 15.1662C117.663 15.1662 117.255 15.0816 116.889 14.9123C116.523 14.7399 116.232 14.4922 116.016 14.169C115.801 13.8428 115.693 13.4489 115.693 12.9872C115.693 12.581 115.773 12.2517 115.933 11.9993C116.093 11.7438 116.307 11.5438 116.575 11.3991C116.843 11.2545 117.138 11.1468 117.461 11.076C117.787 11.0021 118.115 10.9437 118.445 10.9006C118.875 10.8452 119.225 10.8036 119.492 10.7759C119.763 10.7451 119.96 10.6944 120.083 10.6236C120.21 10.5528 120.273 10.4297 120.273 10.2543V10.2173C120.273 9.76184 120.148 9.40791 119.899 9.15554C119.652 8.90317 119.279 8.77699 118.777 8.77699C118.257 8.77699 117.849 8.89086 117.554 9.11861C117.258 9.34635 117.05 9.58949 116.93 9.84801L115.896 9.47869C116.081 9.04782 116.327 8.71236 116.635 8.4723C116.946 8.22917 117.284 8.0599 117.65 7.96449C118.02 7.866 118.383 7.81676 118.74 7.81676C118.968 7.81676 119.229 7.84446 119.525 7.89986C119.823 7.95218 120.111 8.06143 120.388 8.22763C120.668 8.39382 120.9 8.64465 121.085 8.98011C121.27 9.31558 121.362 9.76491 121.362 10.3281V15H120.273V14.0398H120.217C120.143 14.1937 120.02 14.3583 119.848 14.5337C119.676 14.7092 119.446 14.8584 119.16 14.9815C118.874 15.1046 118.525 15.1662 118.112 15.1662ZM118.278 14.1875C118.709 14.1875 119.072 14.1029 119.368 13.9336C119.666 13.7643 119.891 13.5458 120.042 13.2781C120.196 13.0103 120.273 12.7287 120.273 12.4332V11.4361C120.226 11.4915 120.125 11.5423 119.968 11.5884C119.814 11.6315 119.636 11.67 119.432 11.7038C119.232 11.7346 119.037 11.7623 118.846 11.7869C118.658 11.8085 118.506 11.8269 118.389 11.8423C118.106 11.8793 117.841 11.9393 117.595 12.0224C117.352 12.1024 117.155 12.224 117.004 12.3871C116.856 12.5471 116.783 12.7656 116.783 13.0426C116.783 13.4212 116.923 13.7074 117.203 13.9013C117.486 14.0921 117.844 14.1875 118.278 14.1875ZM124.64 5.54545V15H123.551V5.54545H124.64Z" fill="#626A72"/>
</svg>
