<svg width="174" height="21" viewBox="0 0 174 21" fill="none" xmlns="http://www.w3.org/2000/svg">
<path d="M17 7L8.3333 14L4 10.5" stroke="#6D757C" stroke-width="1.6"/>
<path d="M28.642 5.54545V15H27.5341L22.3821 7.5767H22.2898V15H21.1449V5.54545H22.2528L27.4233 12.9872H27.5156V5.54545H28.642ZM33.8659 15.1477C33.2258 15.1477 32.6641 14.9954 32.1809 14.6907C31.7008 14.386 31.3253 13.9598 31.0545 13.4119C30.7867 12.8641 30.6529 12.224 30.6529 11.4915C30.6529 10.7528 30.7867 10.1081 31.0545 9.55717C31.3253 9.00627 31.7008 8.57848 32.1809 8.27379C32.6641 7.96911 33.2258 7.81676 33.8659 7.81676C34.5061 7.81676 35.0662 7.96911 35.5463 8.27379C36.0295 8.57848 36.405 9.00627 36.6727 9.55717C36.9436 10.1081 37.079 10.7528 37.079 11.4915C37.079 12.224 36.9436 12.8641 36.6727 13.4119C36.405 13.9598 36.0295 14.386 35.5463 14.6907C35.0662 14.9954 34.5061 15.1477 33.8659 15.1477ZM33.8659 14.169C34.3522 14.169 34.7523 14.0444 35.0662 13.7951C35.3801 13.5458 35.6125 13.218 35.7633 12.8118C35.9141 12.4055 35.9895 11.9654 35.9895 11.4915C35.9895 11.0175 35.9141 10.5759 35.7633 10.1665C35.6125 9.75722 35.3801 9.42637 35.0662 9.17401C34.7523 8.92164 34.3522 8.79545 33.8659 8.79545C33.3797 8.79545 32.9796 8.92164 32.6656 9.17401C32.3517 9.42637 32.1194 9.75722 31.9686 10.1665C31.8177 10.5759 31.7423 11.0175 31.7423 11.4915C31.7423 11.9654 31.8177 12.4055 31.9686 12.8118C32.1194 13.218 32.3517 13.5458 32.6656 13.7951C32.9796 14.0444 33.3797 14.169 33.8659 14.169ZM45.679 15.1477C45.0142 15.1477 44.4418 14.9908 43.9617 14.6768C43.4816 14.3629 43.1123 13.9305 42.8537 13.3796C42.5952 12.8287 42.4659 12.1993 42.4659 11.4915C42.4659 10.7713 42.5983 10.1358 42.863 9.58487C43.1307 9.03089 43.5031 8.59848 43.9801 8.28764C44.4603 7.97372 45.0204 7.81676 45.6605 7.81676C46.1591 7.81676 46.6085 7.90909 47.0086 8.09375C47.4087 8.27841 47.7364 8.53693 47.9919 8.86932C48.2473 9.2017 48.4058 9.58949 48.4674 10.0327H47.3779C47.2948 9.70952 47.1101 9.4233 46.8239 9.17401C46.5408 8.92164 46.1591 8.79545 45.679 8.79545C45.2543 8.79545 44.8819 8.90625 44.5618 9.12784C44.2448 9.34635 43.9971 9.65566 43.8186 10.0558C43.6431 10.4528 43.5554 10.919 43.5554 11.4545C43.5554 12.0024 43.6416 12.4794 43.814 12.8857C43.9894 13.2919 44.2356 13.6074 44.5526 13.832C44.8727 14.0567 45.2481 14.169 45.679 14.169C45.9622 14.169 46.2191 14.1198 46.45 14.0213C46.6808 13.9228 46.8762 13.7812 47.0363 13.5966C47.1963 13.4119 47.3102 13.1903 47.3779 12.9318H48.4674C48.4058 13.3504 48.2535 13.7274 48.0103 14.0629C47.7703 14.3952 47.4517 14.6599 47.0547 14.8569C46.6608 15.0508 46.2022 15.1477 45.679 15.1477ZM50.26 15V7.90909H51.3126V8.98011H51.3865C51.5157 8.62926 51.7496 8.34458 52.0882 8.12606C52.4267 7.90755 52.8083 7.79829 53.2331 7.79829C53.3131 7.79829 53.4131 7.79983 53.5331 7.80291C53.6532 7.80599 53.744 7.81061 53.8055 7.81676V8.92472C53.7686 8.91548 53.6839 8.90163 53.5516 8.88317C53.4223 8.86162 53.2854 8.85085 53.1407 8.85085C52.796 8.85085 52.4883 8.92318 52.2174 9.06783C51.9497 9.2094 51.7373 9.40637 51.5804 9.65874C51.4265 9.90803 51.3495 10.1927 51.3495 10.5128V15H50.26ZM58.0542 15.1477C57.3709 15.1477 56.7815 14.9969 56.286 14.6953C55.7936 14.3906 55.4135 13.9659 55.1458 13.4212C54.8811 12.8733 54.7488 12.2363 54.7488 11.5099C54.7488 10.7836 54.8811 10.1435 55.1458 9.58949C55.4135 9.03243 55.7859 8.59848 56.263 8.28764C56.7431 7.97372 57.3032 7.81676 57.9434 7.81676C58.3127 7.81676 58.6774 7.87831 59.0375 8.00142C59.3975 8.12453 59.7253 8.32457 60.0208 8.60156C60.3162 8.87547 60.5517 9.23864 60.7271 9.69105C60.9025 10.1435 60.9902 10.7005 60.9902 11.3622V11.8239H55.5243V10.8821H59.8823C59.8823 10.482 59.8023 10.125 59.6422 9.81108C59.4853 9.49716 59.2606 9.24941 58.9682 9.06783C58.6789 8.88625 58.3373 8.79545 57.9434 8.79545C57.5094 8.79545 57.1339 8.90317 56.8169 9.11861C56.503 9.33097 56.2614 9.60795 56.0922 9.94957C55.9229 10.2912 55.8382 10.6574 55.8382 11.0483V11.6761C55.8382 12.2116 55.9306 12.6656 56.1152 13.038C56.303 13.4073 56.563 13.6889 56.8954 13.8828C57.2278 14.0736 57.6141 14.169 58.0542 14.169C58.3404 14.169 58.5989 14.129 58.8297 14.049C59.0636 13.9659 59.2652 13.8428 59.4345 13.6797C59.6038 13.5135 59.7346 13.3073 59.8269 13.0611L60.8794 13.3565C60.7686 13.7135 60.5824 14.0275 60.3208 14.2983C60.0592 14.5661 59.7361 14.7753 59.3514 14.9261C58.9667 15.0739 58.5343 15.1477 58.0542 15.1477ZM65.5251 15.1477C64.9342 15.1477 64.4125 14.9985 63.9601 14.6999C63.5077 14.3983 63.1538 13.9736 62.8983 13.4258C62.6429 12.8749 62.5152 12.224 62.5152 11.473C62.5152 10.7282 62.6429 10.0819 62.8983 9.53409C63.1538 8.98627 63.5092 8.56309 63.9647 8.26456C64.4202 7.96603 64.9465 7.81676 65.5436 7.81676C66.0052 7.81676 66.3699 7.8937 66.6377 8.04759C66.9085 8.19839 67.1147 8.37074 67.2563 8.56463C67.4009 8.75544 67.5133 8.91241 67.5933 9.03551H67.6856V5.54545H68.7751V15H67.7226V13.9105H67.5933C67.5133 14.0398 67.3994 14.2029 67.2517 14.3999C67.1039 14.5937 66.8931 14.7676 66.6192 14.9215C66.3453 15.0723 65.9806 15.1477 65.5251 15.1477ZM65.6728 14.169C66.1099 14.169 66.4792 14.0552 66.7808 13.8274C67.0824 13.5966 67.3117 13.2781 67.4686 12.8718C67.6256 12.4625 67.7041 11.9901 67.7041 11.4545C67.7041 10.9252 67.6271 10.462 67.4733 10.065C67.3194 9.66489 67.0916 9.35405 66.79 9.13246C66.4884 8.90779 66.116 8.79545 65.6728 8.79545C65.2112 8.79545 64.8265 8.91394 64.5187 9.15092C64.214 9.38482 63.9847 9.70336 63.8309 10.1065C63.6801 10.5066 63.6047 10.956 63.6047 11.4545C63.6047 11.9593 63.6816 12.4179 63.8355 12.8303C63.9924 13.2396 64.2233 13.5658 64.5279 13.8089C64.8357 14.049 65.2173 14.169 65.6728 14.169ZM71.1218 15V7.90909H72.2113V15H71.1218ZM71.6757 6.72727C71.4634 6.72727 71.2803 6.65495 71.1264 6.5103C70.9756 6.36565 70.9002 6.19176 70.9002 5.98864C70.9002 5.78551 70.9756 5.61162 71.1264 5.46697C71.2803 5.32232 71.4634 5.25 71.6757 5.25C71.8881 5.25 72.0697 5.32232 72.2205 5.46697C72.3744 5.61162 72.4513 5.78551 72.4513 5.98864C72.4513 6.19176 72.3744 6.36565 72.2205 6.5103C72.0697 6.65495 71.8881 6.72727 71.6757 6.72727ZM77.4905 7.90909V8.83239H73.8158V7.90909H77.4905ZM74.8868 6.21023H75.9763V12.9688C75.9763 13.2765 76.021 13.5073 76.1102 13.6612C76.2025 13.812 76.3195 13.9136 76.4611 13.9659C76.6057 14.0152 76.7581 14.0398 76.9181 14.0398C77.0381 14.0398 77.1366 14.0336 77.2135 14.0213C77.2905 14.0059 77.352 13.9936 77.3982 13.9844L77.6198 14.9631C77.5459 14.9908 77.4428 15.0185 77.3105 15.0462C77.1782 15.0769 77.0104 15.0923 76.8073 15.0923C76.4995 15.0923 76.1979 15.0262 75.9025 14.8938C75.6101 14.7615 75.367 14.5599 75.1731 14.2891C74.9822 14.0182 74.8868 13.6766 74.8868 13.2642V6.21023ZM83.138 10.4389V11.4545H79.0016V10.4389H83.138ZM88.1357 15.1477C87.4709 15.1477 86.8984 14.9908 86.4183 14.6768C85.9382 14.3629 85.5689 13.9305 85.3104 13.3796C85.0518 12.8287 84.9226 12.1993 84.9226 11.4915C84.9226 10.7713 85.0549 10.1358 85.3196 9.58487C85.5874 9.03089 85.9598 8.59848 86.4368 8.28764C86.9169 7.97372 87.477 7.81676 88.1172 7.81676C88.6158 7.81676 89.0651 7.90909 89.4652 8.09375C89.8653 8.27841 90.1931 8.53693 90.4485 8.86932C90.704 9.2017 90.8625 9.58949 90.924 10.0327H89.8345C89.7514 9.70952 89.5668 9.4233 89.2805 9.17401C88.9974 8.92164 88.6158 8.79545 88.1357 8.79545C87.7109 8.79545 87.3385 8.90625 87.0185 9.12784C86.7015 9.34635 86.4537 9.65566 86.2752 10.0558C86.0998 10.4528 86.0121 10.919 86.0121 11.4545C86.0121 12.0024 86.0982 12.4794 86.2706 12.8857C86.446 13.2919 86.6922 13.6074 87.0092 13.832C87.3293 14.0567 87.7048 14.169 88.1357 14.169C88.4188 14.169 88.6758 14.1198 88.9066 14.0213C89.1374 13.9228 89.3329 13.7812 89.4929 13.5966C89.6529 13.4119 89.7668 13.1903 89.8345 12.9318H90.924C90.8625 13.3504 90.7101 13.7274 90.467 14.0629C90.2269 14.3952 89.9084 14.6599 89.5114 14.8569C89.1174 15.0508 88.6589 15.1477 88.1357 15.1477ZM94.8033 15.1662C94.354 15.1662 93.9462 15.0816 93.58 14.9123C93.2137 14.7399 92.9229 14.4922 92.7075 14.169C92.492 13.8428 92.3843 13.4489 92.3843 12.9872C92.3843 12.581 92.4643 12.2517 92.6244 11.9993C92.7844 11.7438 92.9983 11.5438 93.266 11.3991C93.5338 11.2545 93.8293 11.1468 94.1524 11.076C94.4786 11.0021 94.8064 10.9437 95.1357 10.9006C95.5666 10.8452 95.9159 10.8036 96.1837 10.7759C96.4545 10.7451 96.6515 10.6944 96.7746 10.6236C96.9008 10.5528 96.9638 10.4297 96.9638 10.2543V10.2173C96.9638 9.76184 96.8392 9.40791 96.5899 9.15554C96.3437 8.90317 95.9698 8.77699 95.4681 8.77699C94.948 8.77699 94.5402 8.89086 94.2447 9.11861C93.9493 9.34635 93.7415 9.58949 93.6215 9.84801L92.5874 9.47869C92.7721 9.04782 93.0183 8.71236 93.3261 8.4723C93.6369 8.22917 93.9754 8.0599 94.3417 7.96449C94.711 7.866 95.0742 7.81676 95.4312 7.81676C95.6589 7.81676 95.9205 7.84446 96.216 7.89986C96.5145 7.95218 96.8023 8.06143 97.0793 8.22763C97.3593 8.39382 97.5917 8.64465 97.7763 8.98011C97.961 9.31558 98.0533 9.76491 98.0533 10.3281V15H96.9638V14.0398H96.9084C96.8346 14.1937 96.7115 14.3583 96.5391 14.5337C96.3668 14.7092 96.1375 14.8584 95.8513 14.9815C95.5651 15.1046 95.2157 15.1662 94.8033 15.1662ZM94.9695 14.1875C95.4004 14.1875 95.7636 14.1029 96.059 13.9336C96.3575 13.7643 96.5822 13.5458 96.733 13.2781C96.8869 13.0103 96.9638 12.7287 96.9638 12.4332V11.4361C96.9177 11.4915 96.8161 11.5423 96.6592 11.5884C96.5053 11.6315 96.3268 11.67 96.1236 11.7038C95.9236 11.7346 95.7282 11.7623 95.5374 11.7869C95.3496 11.8085 95.1973 11.8269 95.0803 11.8423C94.7972 11.8793 94.5325 11.9393 94.2863 12.0224C94.0432 12.1024 93.8462 12.224 93.6954 12.3871C93.5477 12.5471 93.4738 12.7656 93.4738 13.0426C93.4738 13.4212 93.6138 13.7074 93.8939 13.9013C94.177 14.0921 94.5356 14.1875 94.9695 14.1875ZM100.242 15V7.90909H101.294V8.98011H101.368C101.498 8.62926 101.731 8.34458 102.07 8.12606C102.409 7.90755 102.79 7.79829 103.215 7.79829C103.295 7.79829 103.395 7.79983 103.515 7.80291C103.635 7.80599 103.726 7.81061 103.787 7.81676V8.92472C103.75 8.91548 103.666 8.90163 103.533 8.88317C103.404 8.86162 103.267 8.85085 103.123 8.85085C102.778 8.85085 102.47 8.92318 102.199 9.06783C101.932 9.2094 101.719 9.40637 101.562 9.65874C101.408 9.90803 101.331 10.1927 101.331 10.5128V15H100.242ZM107.741 15.1477C107.15 15.1477 106.628 14.9985 106.176 14.6999C105.723 14.3983 105.369 13.9736 105.114 13.4258C104.858 12.8749 104.731 12.224 104.731 11.473C104.731 10.7282 104.858 10.0819 105.114 9.53409C105.369 8.98627 105.725 8.56309 106.18 8.26456C106.636 7.96603 107.162 7.81676 107.759 7.81676C108.221 7.81676 108.585 7.8937 108.853 8.04759C109.124 8.19839 109.33 8.37074 109.472 8.56463C109.616 8.75544 109.729 8.91241 109.809 9.03551H109.901V5.54545H110.991V15H109.938V13.9105H109.809C109.729 14.0398 109.615 14.2029 109.467 14.3999C109.319 14.5937 109.109 14.7676 108.835 14.9215C108.561 15.0723 108.196 15.1477 107.741 15.1477ZM107.888 14.169C108.325 14.169 108.695 14.0552 108.996 13.8274C109.298 13.5966 109.527 13.2781 109.684 12.8718C109.841 12.4625 109.92 11.9901 109.92 11.4545C109.92 10.9252 109.843 10.462 109.689 10.065C109.535 9.66489 109.307 9.35405 109.005 9.13246C108.704 8.90779 108.331 8.79545 107.888 8.79545C107.427 8.79545 107.042 8.91394 106.734 9.15092C106.429 9.38482 106.2 9.70336 106.046 10.1065C105.895 10.5066 105.82 10.956 105.82 11.4545C105.82 11.9593 105.897 12.4179 106.051 12.8303C106.208 13.2396 106.439 13.5658 106.743 13.8089C107.051 14.049 107.433 14.169 107.888 14.169ZM117.193 15V7.90909H118.246V8.98011H118.32C118.449 8.62926 118.683 8.34458 119.022 8.12606C119.36 7.90755 119.742 7.79829 120.166 7.79829C120.246 7.79829 120.347 7.79983 120.467 7.80291C120.587 7.80599 120.677 7.81061 120.739 7.81676V8.92472C120.702 8.91548 120.617 8.90163 120.485 8.88317C120.356 8.86162 120.219 8.85085 120.074 8.85085C119.729 8.85085 119.422 8.92318 119.151 9.06783C118.883 9.2094 118.671 9.40637 118.514 9.65874C118.36 9.90803 118.283 10.1927 118.283 10.5128V15H117.193ZM124.988 15.1477C124.304 15.1477 123.715 14.9969 123.219 14.6953C122.727 14.3906 122.347 13.9659 122.079 13.4212C121.814 12.8733 121.682 12.2363 121.682 11.5099C121.682 10.7836 121.814 10.1435 122.079 9.58949C122.347 9.03243 122.719 8.59848 123.196 8.28764C123.676 7.97372 124.237 7.81676 124.877 7.81676C125.246 7.81676 125.611 7.87831 125.971 8.00142C126.331 8.12453 126.659 8.32457 126.954 8.60156C127.25 8.87547 127.485 9.23864 127.66 9.69105C127.836 10.1435 127.924 10.7005 127.924 11.3622V11.8239H122.458V10.8821H126.816C126.816 10.482 126.736 10.125 126.576 9.81108C126.419 9.49716 126.194 9.24941 125.902 9.06783C125.612 8.88625 125.271 8.79545 124.877 8.79545C124.443 8.79545 124.067 8.90317 123.75 9.11861C123.436 9.33097 123.195 9.60795 123.026 9.94957C122.856 10.2912 122.772 10.6574 122.772 11.0483V11.6761C122.772 12.2116 122.864 12.6656 123.049 13.038C123.236 13.4073 123.496 13.6889 123.829 13.8828C124.161 14.0736 124.547 14.169 124.988 14.169C125.274 14.169 125.532 14.129 125.763 14.049C125.997 13.9659 126.199 13.8428 126.368 13.6797C126.537 13.5135 126.668 13.3073 126.76 13.0611L127.813 13.3565C127.702 13.7135 127.516 14.0275 127.254 14.2983C126.993 14.5661 126.669 14.7753 126.285 14.9261C125.9 15.0739 125.468 15.1477 124.988 15.1477ZM134.619 17.6591V13.9105H134.527C134.447 14.0398 134.333 14.2029 134.185 14.3999C134.037 14.5937 133.827 14.7676 133.553 14.9215C133.279 15.0723 132.914 15.1477 132.459 15.1477C131.868 15.1477 131.346 14.9985 130.894 14.6999C130.441 14.3983 130.087 13.9736 129.832 13.4258C129.576 12.8749 129.449 12.224 129.449 11.473C129.449 10.7282 129.576 10.0819 129.832 9.53409C130.087 8.98627 130.443 8.56309 130.898 8.26456C131.354 7.96603 131.88 7.81676 132.477 7.81676C132.939 7.81676 133.303 7.8937 133.571 8.04759C133.842 8.19839 134.048 8.37074 134.19 8.56463C134.334 8.75544 134.447 8.91241 134.527 9.03551H134.656V7.90909H135.709V17.6591H134.619ZM132.606 14.169C133.043 14.169 133.413 14.0552 133.714 13.8274C134.016 13.5966 134.245 13.2781 134.402 12.8718C134.559 12.4625 134.637 11.9901 134.637 11.4545C134.637 10.9252 134.561 10.462 134.407 10.065C134.253 9.66489 134.025 9.35405 133.723 9.13246C133.422 8.90779 133.049 8.79545 132.606 8.79545C132.145 8.79545 131.76 8.91394 131.452 9.15092C131.147 9.38482 130.918 9.70336 130.764 10.1065C130.613 10.5066 130.538 10.956 130.538 11.4545C130.538 11.9593 130.615 12.4179 130.769 12.8303C130.926 13.2396 131.157 13.5658 131.461 13.8089C131.769 14.049 132.151 14.169 132.606 14.169ZM142.372 12.1009V7.90909H143.461V15H142.372V13.7997H142.298C142.132 14.1598 141.873 14.466 141.522 14.7184C141.171 14.9677 140.728 15.0923 140.193 15.0923C139.749 15.0923 139.355 14.9954 139.011 14.8015C138.666 14.6045 138.395 14.3091 138.198 13.9151C138.001 13.5181 137.903 13.018 137.903 12.4148V7.90909H138.992V12.3409C138.992 12.858 139.137 13.2704 139.426 13.5781C139.719 13.8859 140.091 14.0398 140.543 14.0398C140.814 14.0398 141.09 13.9705 141.37 13.832C141.653 13.6935 141.89 13.4812 142.081 13.195C142.275 12.9087 142.372 12.544 142.372 12.1009ZM145.657 15V7.90909H146.746V15H145.657ZM146.211 6.72727C145.998 6.72727 145.815 6.65495 145.661 6.5103C145.51 6.36565 145.435 6.19176 145.435 5.98864C145.435 5.78551 145.51 5.61162 145.661 5.46697C145.815 5.32232 145.998 5.25 146.211 5.25C146.423 5.25 146.604 5.32232 146.755 5.46697C146.909 5.61162 146.986 5.78551 146.986 5.98864C146.986 6.19176 146.909 6.36565 146.755 6.5103C146.604 6.65495 146.423 6.72727 146.211 6.72727ZM148.941 15V7.90909H149.994V8.98011H150.068C150.197 8.62926 150.431 8.34458 150.77 8.12606C151.108 7.90755 151.49 7.79829 151.915 7.79829C151.995 7.79829 152.095 7.79983 152.215 7.80291C152.335 7.80599 152.425 7.81061 152.487 7.81676V8.92472C152.45 8.91548 152.365 8.90163 152.233 8.88317C152.104 8.86162 151.967 8.85085 151.822 8.85085C151.477 8.85085 151.17 8.92318 150.899 9.06783C150.631 9.2094 150.419 9.40637 150.262 9.65874C150.108 9.90803 150.031 10.1927 150.031 10.5128V15H148.941ZM156.736 15.1477C156.052 15.1477 155.463 14.9969 154.967 14.6953C154.475 14.3906 154.095 13.9659 153.827 13.4212C153.563 12.8733 153.43 12.2363 153.43 11.5099C153.43 10.7836 153.563 10.1435 153.827 9.58949C154.095 9.03243 154.467 8.59848 154.944 8.28764C155.425 7.97372 155.985 7.81676 156.625 7.81676C156.994 7.81676 157.359 7.87831 157.719 8.00142C158.079 8.12453 158.407 8.32457 158.702 8.60156C158.998 8.87547 159.233 9.23864 159.409 9.69105C159.584 10.1435 159.672 10.7005 159.672 11.3622V11.8239H154.206V10.8821H158.564C158.564 10.482 158.484 10.125 158.324 9.81108C158.167 9.49716 157.942 9.24941 157.65 9.06783C157.36 8.88625 157.019 8.79545 156.625 8.79545C156.191 8.79545 155.815 8.90317 155.498 9.11861C155.184 9.33097 154.943 9.60795 154.774 9.94957C154.604 10.2912 154.52 10.6574 154.52 11.0483V11.6761C154.52 12.2116 154.612 12.6656 154.797 13.038C154.984 13.4073 155.244 13.6889 155.577 13.8828C155.909 14.0736 156.295 14.169 156.736 14.169C157.022 14.169 157.28 14.129 157.511 14.049C157.745 13.9659 157.947 13.8428 158.116 13.6797C158.285 13.5135 158.416 13.3073 158.508 13.0611L159.561 13.3565C159.45 13.7135 159.264 14.0275 159.002 14.2983C158.741 14.5661 158.418 14.7753 158.033 14.9261C157.648 15.0739 157.216 15.1477 156.736 15.1477ZM164.207 15.1477C163.616 15.1477 163.094 14.9985 162.642 14.6999C162.189 14.3983 161.835 13.9736 161.58 13.4258C161.324 12.8749 161.197 12.224 161.197 11.473C161.197 10.7282 161.324 10.0819 161.58 9.53409C161.835 8.98627 162.191 8.56309 162.646 8.26456C163.102 7.96603 163.628 7.81676 164.225 7.81676C164.687 7.81676 165.051 7.8937 165.319 8.04759C165.59 8.19839 165.796 8.37074 165.938 8.56463C166.082 8.75544 166.195 8.91241 166.275 9.03551H166.367V5.54545H167.457V15H166.404V13.9105H166.275C166.195 14.0398 166.081 14.2029 165.933 14.3999C165.785 14.5937 165.575 14.7676 165.301 14.9215C165.027 15.0723 164.662 15.1477 164.207 15.1477ZM164.354 14.169C164.791 14.169 165.161 14.0552 165.462 13.8274C165.764 13.5966 165.993 13.2781 166.15 12.8718C166.307 12.4625 166.386 11.9901 166.386 11.4545C166.386 10.9252 166.309 10.462 166.155 10.065C166.001 9.66489 165.773 9.35405 165.471 9.13246C165.17 8.90779 164.797 8.79545 164.354 8.79545C163.893 8.79545 163.508 8.91394 163.2 9.15092C162.895 9.38482 162.666 9.70336 162.512 10.1065C162.361 10.5066 162.286 10.956 162.286 11.4545C162.286 11.9593 162.363 12.4179 162.517 12.8303C162.674 13.2396 162.905 13.5658 163.209 13.8089C163.517 14.049 163.899 14.169 164.354 14.169Z" fill="#626A72"/>
</svg>
