<svg width="217" height="216" viewBox="0 0 217 216" fill="none" xmlns="http://www.w3.org/2000/svg">
<path d="M1.58097 17.0156H0.196023L4.2017 6.10653H5.56534L9.57102 17.0156H8.18608L4.92614 7.83239H4.84091L1.58097 17.0156ZM2.09233 12.7543H7.67472V13.9261H2.09233V12.7543ZM14.3893 17.1861C13.7075 17.1861 13.1055 17.0138 12.5835 16.6694C12.0615 16.3214 11.6531 15.8313 11.3584 15.1992C11.0636 14.5636 10.9163 13.8125 10.9163 12.946C10.9163 12.0866 11.0636 11.3409 11.3584 10.7088C11.6531 10.0767 12.0633 9.58842 12.5888 9.24396C13.1144 8.8995 13.7217 8.72727 14.4106 8.72727C14.9433 8.72727 15.3641 8.81605 15.673 8.99361C15.9855 9.16761 16.2234 9.36648 16.3868 9.5902C16.5537 9.81037 16.6833 9.99148 16.7756 10.1335H16.8822V6.10653H18.1393V17.0156H16.9248V15.7585H16.7756C16.6833 15.9077 16.5519 16.0959 16.3815 16.3232C16.211 16.5469 15.9678 16.7475 15.6517 16.9251C15.3357 17.0991 14.9148 17.1861 14.3893 17.1861ZM14.5597 16.0568C15.064 16.0568 15.4901 15.9254 15.8381 15.6626C16.1862 15.3963 16.4507 15.0288 16.6318 14.56C16.8129 14.0877 16.9035 13.5426 16.9035 12.9247C16.9035 12.3139 16.8147 11.7795 16.6371 11.3214C16.4596 10.8597 16.1968 10.5011 15.8488 10.2454C15.5008 9.98615 15.0711 9.85653 14.5597 9.85653C14.0271 9.85653 13.5832 9.99325 13.2281 10.2667C12.8765 10.5366 12.6119 10.9041 12.4344 11.3693C12.2604 11.831 12.1734 12.3494 12.1734 12.9247C12.1734 13.5071 12.2621 14.0362 12.4397 14.5121C12.6208 14.9844 12.8871 15.3608 13.2387 15.6413C13.5938 15.9183 14.0342 16.0568 14.5597 16.0568ZM20.8162 17.0156V8.83381H22.0307V10.1122H22.1372C22.3077 9.67543 22.5829 9.33629 22.9629 9.09482C23.3428 8.84979 23.7991 8.72727 24.3318 8.72727C24.8716 8.72727 25.3208 8.84979 25.6795 9.09482C26.0417 9.33629 26.324 9.67543 26.5264 10.1122H26.6116C26.8212 9.68963 27.1354 9.35405 27.5545 9.10547C27.9735 8.85334 28.476 8.72727 29.0619 8.72727C29.7935 8.72727 30.3918 8.95632 30.857 9.41442C31.3222 9.86896 31.5548 10.5774 31.5548 11.5398V17.0156H30.2977V11.5398C30.2977 10.9361 30.1326 10.5046 29.8023 10.2454C29.4721 9.98615 29.0832 9.85653 28.6358 9.85653C28.0605 9.85653 27.6148 10.0305 27.2988 10.3786C26.9827 10.723 26.8247 11.1598 26.8247 11.6889V17.0156H25.5463V11.4119C25.5463 10.9467 25.3954 10.5721 25.0935 10.288C24.7917 10.0004 24.4028 9.85653 23.927 9.85653C23.6003 9.85653 23.2949 9.94354 23.0108 10.1175C22.7303 10.2915 22.503 10.533 22.329 10.842C22.1585 11.1474 22.0733 11.5007 22.0733 11.902V17.0156H20.8162ZM34.0533 17.0156V8.83381H35.3104V17.0156H34.0533ZM34.6925 7.47017C34.4475 7.47017 34.2362 7.38672 34.0586 7.21982C33.8846 7.05291 33.7976 6.85227 33.7976 6.6179C33.7976 6.38352 33.8846 6.18288 34.0586 6.01598C34.2362 5.84908 34.4475 5.76562 34.6925 5.76562C34.9375 5.76562 35.1471 5.84908 35.3211 6.01598C35.4986 6.18288 35.5874 6.38352 35.5874 6.6179C35.5874 6.85227 35.4986 7.05291 35.3211 7.21982C35.1471 7.38672 34.9375 7.47017 34.6925 7.47017ZM39.07 12.0938V17.0156H37.8129V8.83381H39.0274V10.1122H39.1339C39.3257 9.69673 39.6168 9.36293 40.0075 9.1108C40.3981 8.85511 40.9024 8.72727 41.5203 8.72727C42.0742 8.72727 42.559 8.84091 42.9744 9.06818C43.3899 9.2919 43.7131 9.63281 43.9439 10.0909C44.1747 10.5455 44.2901 11.1207 44.2901 11.8168V17.0156H43.033V11.902C43.033 11.2592 42.8661 10.7585 42.5323 10.3999C42.1985 10.0376 41.7404 9.85653 41.158 9.85653C40.7568 9.85653 40.3981 9.94354 40.082 10.1175C39.7695 10.2915 39.5227 10.5455 39.3416 10.8793C39.1605 11.2131 39.07 11.6179 39.07 12.0938Z" fill="#1F1F1F"/>
<path d="M6.12784 47.9247C6.07244 47.4569 5.84777 47.0938 5.45384 46.8352C5.0599 46.5767 4.5767 46.4474 4.00426 46.4474C3.5857 46.4474 3.21946 46.5152 2.90554 46.6506C2.5947 46.786 2.35156 46.9722 2.17614 47.2092C2.00379 47.4461 1.91761 47.7154 1.91761 48.017C1.91761 48.2694 1.97763 48.4864 2.09766 48.668C2.22076 48.8465 2.37772 48.9957 2.56854 49.1158C2.75935 49.2327 2.9594 49.3297 3.16868 49.4066C3.37796 49.4805 3.57031 49.5405 3.74574 49.5866L4.70597 49.8452C4.95218 49.9098 5.22609 49.9991 5.5277 50.1129C5.83239 50.2268 6.12322 50.3822 6.40021 50.5792C6.68028 50.7731 6.9111 51.0224 7.09269 51.3271C7.27427 51.6317 7.36506 52.0057 7.36506 52.4489C7.36506 52.9598 7.23118 53.4214 6.96342 53.8338C6.69875 54.2462 6.31096 54.574 5.80007 54.8171C5.29226 55.0603 4.67519 55.1818 3.94886 55.1818C3.27178 55.1818 2.68549 55.0726 2.18999 54.854C1.69756 54.6355 1.30978 54.3308 1.02663 53.94C0.746567 53.5491 0.588068 53.0952 0.551136 52.5781H1.73295C1.76373 52.9351 1.88376 53.2306 2.09304 53.4645C2.3054 53.6953 2.57315 53.8677 2.89631 53.9815C3.22254 54.0923 3.57339 54.1477 3.94886 54.1477C4.38589 54.1477 4.77829 54.0769 5.12607 53.9354C5.47384 53.7907 5.74929 53.5907 5.95242 53.3352C6.15554 53.0767 6.2571 52.7751 6.2571 52.4304C6.2571 52.1165 6.16939 51.861 5.99396 51.6641C5.81854 51.4671 5.58771 51.3071 5.30149 51.1839C5.01527 51.0608 4.70597 50.9531 4.37358 50.8608L3.21023 50.5284C2.47159 50.3161 1.88684 50.0129 1.45597 49.619C1.02509 49.225 0.809659 48.7095 0.809659 48.0724C0.809659 47.5431 0.95277 47.0814 1.23899 46.6875C1.52829 46.2905 1.91607 45.9827 2.40234 45.7642C2.89169 45.5426 3.43797 45.4318 4.04119 45.4318C4.65057 45.4318 5.19223 45.5411 5.66619 45.7596C6.14015 45.975 6.51563 46.2705 6.79261 46.646C7.07268 47.0214 7.22041 47.4477 7.2358 47.9247H6.12784ZM12.3835 47.9247V48.848H8.70879V47.9247H12.3835ZM9.77981 46.2259H10.8693V52.9844C10.8693 53.2921 10.9139 53.523 11.0032 53.6768C11.0955 53.8277 11.2125 53.9292 11.354 53.9815C11.4987 54.0308 11.651 54.0554 11.8111 54.0554C11.9311 54.0554 12.0296 54.0492 12.1065 54.0369C12.1835 54.0215 12.245 54.0092 12.2912 54L12.5128 54.9787C12.4389 55.0064 12.3358 55.0341 12.2035 55.0618C12.0711 55.0926 11.9034 55.108 11.7003 55.108C11.3925 55.108 11.0909 55.0418 10.7954 54.9094C10.5031 54.7771 10.2599 54.5755 10.066 54.3047C9.87522 54.0339 9.77981 53.6922 9.77981 53.2798V46.2259ZM14.9241 57.6747C14.7394 57.6747 14.5747 57.6593 14.4301 57.6286C14.2854 57.6009 14.1854 57.5732 14.13 57.5455L14.407 56.5852C14.6717 56.6529 14.9056 56.6776 15.1087 56.6591C15.3118 56.6406 15.4919 56.5498 15.6488 56.3867C15.8089 56.2267 15.9551 55.9666 16.0874 55.6065L16.2905 55.0526L13.6684 47.9247H14.8502L16.8076 53.5753H16.8814L18.8388 47.9247H20.0206L17.0107 56.0497C16.8753 56.416 16.7076 56.7191 16.5075 56.9592C16.3075 57.2023 16.0751 57.3823 15.8104 57.4993C15.5488 57.6162 15.2534 57.6747 14.9241 57.6747ZM22.7482 45.5611V55.0156H21.6587V45.5611H22.7482ZM27.9167 55.1634C27.2334 55.1634 26.644 55.0125 26.1485 54.7109C25.6561 54.4062 25.276 53.9815 25.0083 53.4368C24.7436 52.889 24.6113 52.2519 24.6113 51.5256C24.6113 50.7992 24.7436 50.1591 25.0083 49.6051C25.276 49.0481 25.6484 48.6141 26.1255 48.3033C26.6056 47.9893 27.1657 47.8324 27.8059 47.8324C28.1752 47.8324 28.5399 47.8939 28.9 48.017C29.26 48.1402 29.5878 48.3402 29.8833 48.6172C30.1787 48.8911 30.4142 49.2543 30.5896 49.7067C30.765 50.1591 30.8527 50.7161 30.8527 51.3778V51.8395H25.3868V50.8977H29.7448C29.7448 50.4976 29.6648 50.1406 29.5047 49.8267C29.3478 49.5128 29.1231 49.265 28.8307 49.0835C28.5414 48.9019 28.1998 48.8111 27.8059 48.8111C27.3719 48.8111 26.9964 48.9188 26.6794 49.1342C26.3655 49.3466 26.1239 49.6236 25.9547 49.9652C25.7854 50.3068 25.7007 50.6731 25.7007 51.0639V51.6918C25.7007 52.2273 25.7931 52.6812 25.9777 53.0536C26.1655 53.4229 26.4255 53.7045 26.7579 53.8984C27.0903 54.0893 27.4766 54.1847 27.9167 54.1847C28.2029 54.1847 28.4614 54.1446 28.6922 54.0646C28.9261 53.9815 29.1277 53.8584 29.297 53.6953C29.4663 53.5291 29.5971 53.3229 29.6894 53.0767L30.7419 53.3722C30.6311 53.7292 30.4449 54.0431 30.1833 54.3139C29.9217 54.5817 29.5986 54.791 29.2139 54.9418C28.8292 55.0895 28.3968 55.1634 27.9167 55.1634ZM43.1771 48.5156C43.0755 48.2048 42.9417 47.9263 42.7755 47.68C42.6123 47.4308 42.4169 47.2184 42.1892 47.043C41.9645 46.8675 41.7091 46.7337 41.4228 46.6413C41.1366 46.549 40.8227 46.5028 40.4811 46.5028C39.9209 46.5028 39.4116 46.6475 38.953 46.9368C38.4944 47.2261 38.1297 47.6523 37.8589 48.2156C37.5881 48.7788 37.4527 49.4697 37.4527 50.2884C37.4527 51.107 37.5896 51.7979 37.8635 52.3612C38.1374 52.9244 38.5083 53.3506 38.9761 53.6399C39.4439 53.9292 39.9702 54.0739 40.5549 54.0739C41.0966 54.0739 41.5736 53.9585 41.986 53.7276C42.4015 53.4937 42.7247 53.1644 42.9555 52.7397C43.1894 52.3119 43.3064 51.8087 43.3064 51.2301L43.6572 51.304H40.8135V50.2884H44.4143V51.304C44.4143 52.0826 44.2481 52.7597 43.9157 53.3352C43.5864 53.9107 43.1309 54.357 42.5493 54.674C41.9707 54.9879 41.3059 55.1449 40.5549 55.1449C39.7178 55.1449 38.9823 54.9479 38.3483 54.554C37.7173 54.16 37.2249 53.5999 36.871 52.8736C36.5201 52.1473 36.3447 51.2855 36.3447 50.2884C36.3447 49.5405 36.4447 48.868 36.6448 48.271C36.8479 47.6708 37.1341 47.1599 37.5034 46.7383C37.8728 46.3166 38.3098 45.9935 38.8145 45.7688C39.3193 45.5442 39.8748 45.4318 40.4811 45.4318C40.9797 45.4318 41.4444 45.5072 41.8752 45.658C42.3092 45.8058 42.6954 46.0166 43.034 46.2905C43.3756 46.5613 43.6603 46.886 43.888 47.2646C44.1158 47.64 44.2727 48.0571 44.3589 48.5156H43.1771ZM50.8962 52.1165V47.9247H51.9857V55.0156H50.8962V53.8153H50.8223C50.6561 54.1754 50.3976 54.4817 50.0468 54.734C49.6959 54.9833 49.2527 55.108 48.7172 55.108C48.274 55.108 47.8801 55.011 47.5354 54.8171C47.1907 54.6201 46.9199 54.3247 46.7229 53.9308C46.5259 53.5337 46.4274 53.0336 46.4274 52.4304V47.9247H47.5169V52.3565C47.5169 52.8736 47.6616 53.286 47.9509 53.5938C48.2432 53.9015 48.6156 54.0554 49.0681 54.0554C49.3389 54.0554 49.6143 53.9862 49.8944 53.8477C50.1776 53.7092 50.4145 53.4968 50.6053 53.2106C50.7992 52.9244 50.8962 52.5597 50.8962 52.1165ZM54.1811 55.0156V47.9247H55.2706V55.0156H54.1811ZM54.7351 46.7429C54.5228 46.7429 54.3396 46.6706 54.1858 46.5259C54.035 46.3813 53.9596 46.2074 53.9596 46.0043C53.9596 45.8011 54.035 45.6272 54.1858 45.4826C54.3396 45.3379 54.5228 45.2656 54.7351 45.2656C54.9475 45.2656 55.1291 45.3379 55.2799 45.4826C55.4337 45.6272 55.5107 45.8011 55.5107 46.0043C55.5107 46.2074 55.4337 46.3813 55.2799 46.5259C55.1291 46.6706 54.9475 46.7429 54.7351 46.7429ZM60.1437 55.1634C59.5528 55.1634 59.0311 55.0141 58.5787 54.7156C58.1263 54.4139 57.7723 53.9892 57.5169 53.4414C57.2614 52.8905 57.1337 52.2396 57.1337 51.4886C57.1337 50.7438 57.2614 50.0975 57.5169 49.5497C57.7723 49.0019 58.1278 48.5787 58.5833 48.2802C59.0388 47.9817 59.5651 47.8324 60.1621 47.8324C60.6238 47.8324 60.9885 47.9093 61.2562 48.0632C61.5271 48.214 61.7333 48.3864 61.8748 48.5803C62.0195 48.7711 62.1318 48.928 62.2118 49.0511H62.3042V45.5611H63.3937V55.0156H62.3411V53.9261H62.2118C62.1318 54.0554 62.018 54.2185 61.8702 54.4155C61.7225 54.6094 61.5117 54.7833 61.2378 54.9371C60.9639 55.0879 60.5992 55.1634 60.1437 55.1634ZM60.2914 54.1847C60.7284 54.1847 61.0977 54.0708 61.3993 53.843C61.701 53.6122 61.9302 53.2937 62.0872 52.8874C62.2442 52.4781 62.3226 52.0057 62.3226 51.4702C62.3226 50.9408 62.2457 50.4776 62.0918 50.0806C61.9379 49.6805 61.7102 49.3697 61.4086 49.1481C61.107 48.9234 60.7346 48.8111 60.2914 48.8111C59.8297 48.8111 59.445 48.9296 59.1373 49.1665C58.8326 49.4004 58.6033 49.719 58.4494 50.1222C58.2986 50.5223 58.2232 50.9716 58.2232 51.4702C58.2232 51.9749 58.3001 52.4335 58.454 52.8459C58.611 53.2552 58.8418 53.5814 59.1465 53.8246C59.4543 54.0646 59.8359 54.1847 60.2914 54.1847ZM68.7133 55.1634C68.0301 55.1634 67.4407 55.0125 66.9452 54.7109C66.4528 54.4062 66.0727 53.9815 65.805 53.4368C65.5403 52.889 65.4079 52.2519 65.4079 51.5256C65.4079 50.7992 65.5403 50.1591 65.805 49.6051C66.0727 49.0481 66.4451 48.6141 66.9221 48.3033C67.4023 47.9893 67.9624 47.8324 68.6025 47.8324C68.9719 47.8324 69.3366 47.8939 69.6966 48.017C70.0567 48.1402 70.3845 48.3402 70.68 48.6172C70.9754 48.8911 71.2108 49.2543 71.3863 49.7067C71.5617 50.1591 71.6494 50.7161 71.6494 51.3778V51.8395H66.1835V50.8977H70.5415C70.5415 50.4976 70.4614 50.1406 70.3014 49.8267C70.1444 49.5128 69.9198 49.265 69.6274 49.0835C69.3381 48.9019 68.9965 48.8111 68.6025 48.8111C68.1686 48.8111 67.7931 48.9188 67.4761 49.1342C67.1622 49.3466 66.9206 49.6236 66.7513 49.9652C66.5821 50.3068 66.4974 50.6731 66.4974 51.0639V51.6918C66.4974 52.2273 66.5898 52.6812 66.7744 53.0536C66.9622 53.4229 67.2222 53.7045 67.5546 53.8984C67.887 54.0893 68.2732 54.1847 68.7133 54.1847C68.9996 54.1847 69.2581 54.1446 69.4889 54.0646C69.7228 53.9815 69.9244 53.8584 70.0937 53.6953C70.2629 53.5291 70.3937 53.3229 70.4861 53.0767L71.5386 53.3722C71.4278 53.7292 71.2416 54.0431 70.98 54.3139C70.7184 54.5817 70.3953 54.791 70.0106 54.9418C69.6259 55.0895 69.1934 55.1634 68.7133 55.1634Z" fill="#626A72"/>
<path d="M1.04545 85.0156V74.8338H2.27841V83.9219H7.01136V85.0156H1.04545ZM8.96136 85.0156V77.3793H10.1347V85.0156H8.96136ZM9.55795 76.1065C9.32926 76.1065 9.13205 76.0286 8.96634 75.8729C8.80393 75.7171 8.72273 75.5298 8.72273 75.3111C8.72273 75.0923 8.80393 74.9051 8.96634 74.7493C9.13205 74.5935 9.32926 74.5156 9.55795 74.5156C9.78665 74.5156 9.9822 74.5935 10.1446 74.7493C10.3103 74.9051 10.3932 75.0923 10.3932 75.3111C10.3932 75.5298 10.3103 75.7171 10.1446 75.8729C9.9822 76.0286 9.78665 76.1065 9.55795 76.1065ZM15.5859 85.1747C14.87 85.1747 14.2535 85.0057 13.7365 84.6676C13.2194 84.3295 12.8217 83.8639 12.5433 83.2706C12.2649 82.6773 12.1257 81.9995 12.1257 81.2372C12.1257 80.4616 12.2682 79.7772 12.5532 79.1839C12.8416 78.5874 13.2426 78.1217 13.7564 77.7869C14.2734 77.4489 14.8766 77.2798 15.566 77.2798C16.1029 77.2798 16.5868 77.3793 17.0177 77.5781C17.4486 77.777 17.8016 78.0554 18.0767 78.4134C18.3518 78.7713 18.5225 79.1889 18.5887 79.6662H17.4154C17.326 79.3182 17.1271 79.0099 16.8189 78.7415C16.5139 78.4697 16.1029 78.3338 15.5859 78.3338C15.1285 78.3338 14.7275 78.4531 14.3828 78.6918C14.0414 78.9271 13.7746 79.2602 13.5824 79.6911C13.3934 80.1186 13.299 80.6207 13.299 81.1974C13.299 81.7874 13.3918 82.3011 13.5774 82.7386C13.7663 83.1761 14.0315 83.5159 14.3728 83.7578C14.7175 83.9998 15.1219 84.1207 15.5859 84.1207C15.8908 84.1207 16.1676 84.0677 16.4162 83.9616C16.6647 83.8556 16.8752 83.7031 17.0475 83.5043C17.2199 83.3054 17.3425 83.0668 17.4154 82.7884H18.5887C18.5225 83.2391 18.3584 83.6451 18.0966 84.0064C17.838 84.3643 17.495 84.6494 17.0674 84.8615C16.6432 85.0703 16.1493 85.1747 15.5859 85.1747ZM23.7056 85.1747C22.9699 85.1747 22.3351 85.0123 21.8015 84.6875C21.2712 84.3594 20.8619 83.902 20.5735 83.3153C20.2885 82.7254 20.146 82.0393 20.146 81.2571C20.146 80.4749 20.2885 79.7855 20.5735 79.1889C20.8619 78.589 21.2629 78.1217 21.7767 77.7869C22.2937 77.4489 22.8969 77.2798 23.5863 77.2798C23.9841 77.2798 24.3768 77.3461 24.7646 77.4787C25.1524 77.6113 25.5054 77.8267 25.8235 78.125C26.1417 78.42 26.3953 78.8111 26.5842 79.2983C26.7731 79.7855 26.8676 80.3854 26.8676 81.098V81.5952H20.9812V80.581H25.6744C25.6744 80.1501 25.5882 79.7656 25.4159 79.4276C25.2468 79.0895 25.0049 78.8227 24.69 78.6271C24.3785 78.4316 24.0106 78.3338 23.5863 78.3338C23.119 78.3338 22.7146 78.4498 22.3733 78.6818C22.0352 78.9105 21.775 79.2088 21.5927 79.5767C21.4104 79.9446 21.3193 80.339 21.3193 80.7599V81.4361C21.3193 82.0128 21.4187 82.5017 21.6176 82.9027C21.8198 83.3004 22.0998 83.6037 22.4578 83.8125C22.8157 84.018 23.2317 84.1207 23.7056 84.1207C24.0139 84.1207 24.2923 84.0777 24.5409 83.9915C24.7928 83.902 25.0099 83.7694 25.1922 83.5938C25.3744 83.4148 25.5153 83.1927 25.6147 82.9276L26.7483 83.2457C26.6289 83.6302 26.4284 83.9683 26.1467 84.2599C25.865 84.5483 25.517 84.7737 25.1027 84.9361C24.6884 85.0952 24.2227 85.1747 23.7056 85.1747ZM30.0257 80.4219V85.0156H28.8524V77.3793H29.9859V78.5724H30.0853C30.2643 78.1847 30.5361 77.8731 30.9007 77.6378C31.2653 77.3991 31.7359 77.2798 32.3126 77.2798C32.8297 77.2798 33.2821 77.3859 33.6699 77.598C34.0576 77.8068 34.3592 78.125 34.5747 78.5526C34.7901 78.9768 34.8978 79.5137 34.8978 80.1634V85.0156H33.7245V80.2429C33.7245 79.643 33.5688 79.1757 33.2572 78.8409C32.9457 78.5028 32.5181 78.3338 31.9745 78.3338C31.6 78.3338 31.2653 78.415 30.9703 78.5774C30.6786 78.7398 30.4483 78.9768 30.2792 79.2884C30.1102 79.5999 30.0257 79.9777 30.0257 80.4219ZM42.6509 79.0895L41.5969 79.3878C41.5307 79.2121 41.4329 79.0414 41.3036 78.8757C41.1777 78.7067 41.0053 78.5675 40.7866 78.4581C40.5678 78.3487 40.2878 78.294 39.9464 78.294C39.479 78.294 39.0896 78.4018 38.7781 78.6172C38.4698 78.8293 38.3157 79.0994 38.3157 79.4276C38.3157 79.7192 38.4218 79.9496 38.6339 80.1186C38.846 80.2876 39.1774 80.4285 39.6282 80.5412L40.7617 80.8196C41.4445 80.9853 41.9532 81.2389 42.288 81.5803C42.6228 81.9183 42.7901 82.3542 42.7901 82.8878C42.7901 83.3253 42.6642 83.7164 42.4123 84.0611C42.1637 84.4058 41.8157 84.6776 41.3683 84.8764C40.9208 85.0753 40.4004 85.1747 39.8072 85.1747C39.0283 85.1747 38.3836 85.0057 37.8732 84.6676C37.3628 84.3295 37.0397 83.8357 36.9038 83.1861L38.0174 82.9077C38.1235 83.3187 38.324 83.6269 38.619 83.8324C38.9173 84.0379 39.3067 84.1406 39.7873 84.1406C40.3342 84.1406 40.7683 84.0246 41.0898 83.7926C41.4147 83.5573 41.5771 83.2756 41.5771 82.9474C41.5771 82.6823 41.4843 82.4602 41.2987 82.2812C41.113 82.099 40.828 81.9631 40.4435 81.8736L39.1708 81.5753C38.4715 81.4096 37.9577 81.1527 37.6296 80.8047C37.3048 80.4534 37.1424 80.0142 37.1424 79.4872C37.1424 79.0563 37.2634 78.6752 37.5053 78.3438C37.7506 78.0123 38.0837 77.7521 38.5046 77.5632C38.9289 77.3743 39.4094 77.2798 39.9464 77.2798C40.7021 77.2798 41.2953 77.4455 41.7262 77.777C42.1604 78.1084 42.4686 78.5459 42.6509 79.0895ZM47.958 85.1747C47.2222 85.1747 46.5875 85.0123 46.0539 84.6875C45.5236 84.3594 45.1142 83.902 44.8259 83.3153C44.5409 82.7254 44.3983 82.0393 44.3983 81.2571C44.3983 80.4749 44.5409 79.7855 44.8259 79.1889C45.1142 78.589 45.5153 78.1217 46.029 77.7869C46.5461 77.4489 47.1493 77.2798 47.8387 77.2798C48.2364 77.2798 48.6292 77.3461 49.0169 77.4787C49.4047 77.6113 49.7577 77.8267 50.0759 78.125C50.3941 78.42 50.6476 78.8111 50.8365 79.2983C51.0255 79.7855 51.1199 80.3854 51.1199 81.098V81.5952H45.2336V80.581H49.9267C49.9267 80.1501 49.8406 79.7656 49.6682 79.4276C49.4992 79.0895 49.2572 78.8227 48.9424 78.6271C48.6308 78.4316 48.2629 78.3338 47.8387 78.3338C47.3713 78.3338 46.967 78.4498 46.6256 78.6818C46.2875 78.9105 46.0274 79.2088 45.8451 79.5767C45.6628 79.9446 45.5716 80.339 45.5716 80.7599V81.4361C45.5716 82.0128 45.6711 82.5017 45.8699 82.9027C46.0721 83.3004 46.3522 83.6037 46.7101 83.8125C47.0681 84.018 47.484 84.1207 47.958 84.1207C48.2662 84.1207 48.5446 84.0777 48.7932 83.9915C49.0451 83.902 49.2622 83.7694 49.4445 83.5938C49.6268 83.4148 49.7677 83.1927 49.8671 82.9276L51.0006 83.2457C50.8813 83.6302 50.6808 83.9683 50.399 84.2599C50.1173 84.5483 49.7693 84.7737 49.355 84.9361C48.9407 85.0952 48.475 85.1747 47.958 85.1747ZM58.5138 79.0895L57.4598 79.3878C57.3936 79.2121 57.2958 79.0414 57.1665 78.8757C57.0406 78.7067 56.8682 78.5675 56.6495 78.4581C56.4307 78.3487 56.1507 78.294 55.8093 78.294C55.3419 78.294 54.9525 78.4018 54.6409 78.6172C54.3327 78.8293 54.1786 79.0994 54.1786 79.4276C54.1786 79.7192 54.2846 79.9496 54.4968 80.1186C54.7089 80.2876 55.0403 80.4285 55.4911 80.5412L56.6246 80.8196C57.3074 80.9853 57.8161 81.2389 58.1509 81.5803C58.4856 81.9183 58.653 82.3542 58.653 82.8878C58.653 83.3253 58.5271 83.7164 58.2752 84.0611C58.0266 84.4058 57.6786 84.6776 57.2311 84.8764C56.7837 85.0753 56.2633 85.1747 55.6701 85.1747C54.8912 85.1747 54.2465 85.0057 53.7361 84.6676C53.2257 84.3295 52.9025 83.8357 52.7667 83.1861L53.8803 82.9077C53.9864 83.3187 54.1869 83.6269 54.4819 83.8324C54.7802 84.0379 55.1696 84.1406 55.6502 84.1406C56.1971 84.1406 56.6312 84.0246 56.9527 83.7926C57.2775 83.5573 57.44 83.2756 57.44 82.9474C57.44 82.6823 57.3471 82.4602 57.1615 82.2812C56.9759 82.099 56.6909 81.9631 56.3064 81.8736L55.0337 81.5753C54.3344 81.4096 53.8206 81.1527 53.4925 80.8047C53.1677 80.4534 53.0053 80.0142 53.0053 79.4872C53.0053 79.0563 53.1263 78.6752 53.3682 78.3438C53.6135 78.0123 53.9466 77.7521 54.3675 77.5632C54.7918 77.3743 55.2723 77.2798 55.8093 77.2798C56.565 77.2798 57.1582 77.4455 57.5891 77.777C58.0233 78.1084 58.3315 78.5459 58.5138 79.0895Z" fill="#626A72"/>
<path d="M2.10227 105.561V115.016H0.957386V105.561H2.10227ZM5.53958 110.75V115.016H4.45009V107.925H5.50265V109.033H5.59498C5.76117 108.673 6.01354 108.383 6.35208 108.165C6.69062 107.943 7.12765 107.832 7.66316 107.832C8.14327 107.832 8.56337 107.931 8.92346 108.128C9.28354 108.322 9.56361 108.617 9.76365 109.014C9.9637 109.408 10.0637 109.907 10.0637 110.51V115.016H8.97424V110.584C8.97424 110.027 8.82959 109.593 8.54029 109.282C8.25099 108.968 7.85397 108.811 7.34924 108.811C7.00146 108.811 6.69062 108.886 6.41671 109.037C6.14587 109.188 5.93198 109.408 5.77502 109.697C5.61806 109.987 5.53958 110.338 5.53958 110.75ZM17.2773 109.513L16.2986 109.79C16.2371 109.627 16.1463 109.468 16.0262 109.314C15.9093 109.157 15.7493 109.028 15.5461 108.926C15.343 108.825 15.0829 108.774 14.7659 108.774C14.332 108.774 13.9704 108.874 13.6811 109.074C13.3949 109.271 13.2517 109.522 13.2517 109.827C13.2517 110.098 13.3502 110.311 13.5472 110.468C13.7442 110.625 14.0519 110.756 14.4705 110.861L15.523 111.119C16.157 111.273 16.6295 111.509 16.9403 111.826C17.2511 112.14 17.4066 112.544 17.4066 113.04C17.4066 113.446 17.2896 113.809 17.0557 114.129C16.8249 114.449 16.5017 114.702 16.0863 114.886C15.6708 115.071 15.1876 115.163 14.6367 115.163C13.9134 115.163 13.3148 115.006 12.8409 114.692C12.3669 114.379 12.0668 113.92 11.9407 113.317L12.9748 113.058C13.0732 113.44 13.2594 113.726 13.5333 113.917C13.8103 114.108 14.172 114.203 14.6182 114.203C15.126 114.203 15.5292 114.095 15.8277 113.88C16.1293 113.661 16.2801 113.4 16.2801 113.095C16.2801 112.849 16.194 112.643 16.0216 112.477C15.8493 112.307 15.5846 112.181 15.2276 112.098L14.0458 111.821C13.3964 111.667 12.9194 111.429 12.6147 111.105C12.3131 110.779 12.1623 110.371 12.1623 109.882C12.1623 109.482 12.2746 109.128 12.4993 108.82C12.727 108.513 13.0363 108.271 13.4272 108.096C13.8211 107.92 14.2674 107.832 14.7659 107.832C15.4676 107.832 16.0185 107.986 16.4186 108.294C16.8218 108.602 17.108 109.008 17.2773 109.513ZM22.3304 107.925V108.848H18.6557V107.925H22.3304ZM19.7267 106.226H20.8162V112.984C20.8162 113.292 20.8608 113.523 20.9501 113.677C21.0424 113.828 21.1593 113.929 21.3009 113.982C21.4456 114.031 21.5979 114.055 21.7579 114.055C21.878 114.055 21.9765 114.049 22.0534 114.037C22.1303 114.022 22.1919 114.009 22.2381 114L22.4596 114.979C22.3858 115.006 22.2827 115.034 22.1503 115.062C22.018 115.093 21.8503 115.108 21.6471 115.108C21.3394 115.108 21.0378 115.042 20.7423 114.909C20.4499 114.777 20.2068 114.576 20.0129 114.305C19.8221 114.034 19.7267 113.692 19.7267 113.28V106.226ZM24.1692 115.016V107.925H25.2218V108.996H25.2956C25.4249 108.645 25.6588 108.36 25.9974 108.142C26.3359 107.923 26.7175 107.814 27.1422 107.814C27.2223 107.814 27.3223 107.815 27.4423 107.819C27.5623 107.822 27.6531 107.826 27.7147 107.832V108.94C27.6778 108.931 27.5931 108.917 27.4608 108.899C27.3315 108.877 27.1946 108.866 27.0499 108.866C26.7052 108.866 26.3974 108.939 26.1266 109.083C25.8589 109.225 25.6465 109.422 25.4895 109.674C25.3357 109.924 25.2587 110.208 25.2587 110.528V115.016H24.1692ZM33.6749 112.116V107.925H34.7644V115.016H33.6749V113.815H33.601C33.4348 114.175 33.1763 114.482 32.8255 114.734C32.4746 114.983 32.0314 115.108 31.4959 115.108C31.0527 115.108 30.6588 115.011 30.3141 114.817C29.9694 114.62 29.6986 114.325 29.5016 113.931C29.3046 113.534 29.2061 113.034 29.2061 112.43V107.925H30.2956V112.357C30.2956 112.874 30.4403 113.286 30.7296 113.594C31.022 113.902 31.3944 114.055 31.8468 114.055C32.1176 114.055 32.3931 113.986 32.6731 113.848C32.9563 113.709 33.1932 113.497 33.3841 113.211C33.5779 112.924 33.6749 112.56 33.6749 112.116ZM39.8405 115.163C39.1758 115.163 38.6033 115.006 38.1232 114.692C37.6431 114.379 37.2738 113.946 37.0153 113.395C36.7567 112.844 36.6275 112.215 36.6275 111.507C36.6275 110.787 36.7598 110.151 37.0245 109.6C37.2922 109.047 37.6646 108.614 38.1417 108.303C38.6218 107.989 39.1819 107.832 39.8221 107.832C40.3207 107.832 40.77 107.925 41.1701 108.109C41.5702 108.294 41.8979 108.553 42.1534 108.885C42.4088 109.217 42.5673 109.605 42.6289 110.048H41.5394C41.4563 109.725 41.2716 109.439 40.9854 109.19C40.7023 108.937 40.3207 108.811 39.8405 108.811C39.4158 108.811 39.0434 108.922 38.7233 109.143C38.4064 109.362 38.1586 109.671 37.9801 110.071C37.8047 110.468 37.717 110.935 37.717 111.47C37.717 112.018 37.8031 112.495 37.9755 112.901C38.1509 113.308 38.3971 113.623 38.7141 113.848C39.0342 114.072 39.4097 114.185 39.8405 114.185C40.1237 114.185 40.3807 114.135 40.6115 114.037C40.8423 113.938 41.0377 113.797 41.1978 113.612C41.3578 113.428 41.4717 113.206 41.5394 112.947H42.6289C42.5673 113.366 42.415 113.743 42.1719 114.078C41.9318 114.411 41.6133 114.676 41.2162 114.873C40.8223 115.066 40.3637 115.163 39.8405 115.163ZM47.5054 107.925V108.848H43.8307V107.925H47.5054ZM44.9017 106.226H45.9912V112.984C45.9912 113.292 46.0358 113.523 46.1251 113.677C46.2174 113.828 46.3343 113.929 46.4759 113.982C46.6206 114.031 46.7729 114.055 46.9329 114.055C47.053 114.055 47.1515 114.049 47.2284 114.037C47.3053 114.022 47.3669 114.009 47.4131 114L47.6346 114.979C47.5608 115.006 47.4577 115.034 47.3253 115.062C47.193 115.093 47.0253 115.108 46.8221 115.108C46.5144 115.108 46.2128 115.042 45.9173 114.909C45.6249 114.777 45.3818 114.576 45.1879 114.305C44.9971 114.034 44.9017 113.692 44.9017 113.28V106.226ZM49.3442 115.016V107.925H50.4337V115.016H49.3442ZM49.8982 106.743C49.6858 106.743 49.5027 106.671 49.3488 106.526C49.198 106.381 49.1226 106.207 49.1226 106.004C49.1226 105.801 49.198 105.627 49.3488 105.483C49.5027 105.338 49.6858 105.266 49.8982 105.266C50.1106 105.266 50.2921 105.338 50.4429 105.483C50.5968 105.627 50.6738 105.801 50.6738 106.004C50.6738 106.207 50.5968 106.381 50.4429 106.526C50.2921 106.671 50.1106 106.743 49.8982 106.743ZM55.5099 115.163C54.8697 115.163 54.308 115.011 53.8249 114.706C53.3447 114.402 52.9693 113.975 52.6984 113.428C52.4307 112.88 52.2968 112.24 52.2968 111.507C52.2968 110.768 52.4307 110.124 52.6984 109.573C52.9693 109.022 53.3447 108.594 53.8249 108.289C54.308 107.985 54.8697 107.832 55.5099 107.832C56.15 107.832 56.7102 107.985 57.1903 108.289C57.6735 108.594 58.0489 109.022 58.3167 109.573C58.5875 110.124 58.7229 110.768 58.7229 111.507C58.7229 112.24 58.5875 112.88 58.3167 113.428C58.0489 113.975 57.6735 114.402 57.1903 114.706C56.7102 115.011 56.15 115.163 55.5099 115.163ZM55.5099 114.185C55.9961 114.185 56.3962 114.06 56.7102 113.811C57.0241 113.561 57.2564 113.234 57.4072 112.827C57.558 112.421 57.6335 111.981 57.6335 111.507C57.6335 111.033 57.558 110.592 57.4072 110.182C57.2564 109.773 57.0241 109.442 56.7102 109.19C56.3962 108.937 55.9961 108.811 55.5099 108.811C55.0236 108.811 54.6235 108.937 54.3096 109.19C53.9957 109.442 53.7633 109.773 53.6125 110.182C53.4617 110.592 53.3863 111.033 53.3863 111.507C53.3863 111.981 53.4617 112.421 53.6125 112.827C53.7633 113.234 53.9957 113.561 54.3096 113.811C54.6235 114.06 55.0236 114.185 55.5099 114.185ZM61.6755 110.75V115.016H60.586V107.925H61.6386V109.033H61.7309C61.8971 108.673 62.1495 108.383 62.488 108.165C62.8266 107.943 63.2636 107.832 63.7991 107.832C64.2792 107.832 64.6993 107.931 65.0594 108.128C65.4195 108.322 65.6995 108.617 65.8996 109.014C66.0996 109.408 66.1997 109.907 66.1997 110.51V115.016H65.1102V110.584C65.1102 110.027 64.9655 109.593 64.6762 109.282C64.3869 108.968 63.9899 108.811 63.4852 108.811C63.1374 108.811 62.8266 108.886 62.5526 109.037C62.2818 109.188 62.0679 109.408 61.911 109.697C61.754 109.987 61.6755 110.338 61.6755 110.75ZM73.4132 109.513L72.4345 109.79C72.373 109.627 72.2822 109.468 72.1622 109.314C72.0452 109.157 71.8852 109.028 71.6821 108.926C71.4789 108.825 71.2189 108.774 70.9019 108.774C70.4679 108.774 70.1063 108.874 69.817 109.074C69.5308 109.271 69.3877 109.522 69.3877 109.827C69.3877 110.098 69.4862 110.311 69.6831 110.468C69.8801 110.625 70.1879 110.756 70.6064 110.861L71.659 111.119C72.293 111.273 72.7654 111.509 73.0762 111.826C73.3871 112.14 73.5425 112.544 73.5425 113.04C73.5425 113.446 73.4256 113.809 73.1917 114.129C72.9608 114.449 72.6377 114.702 72.2222 114.886C71.8067 115.071 71.3235 115.163 70.7726 115.163C70.0494 115.163 69.4508 115.006 68.9768 114.692C68.5028 114.379 68.2028 113.92 68.0766 113.317L69.1107 113.058C69.2092 113.44 69.3954 113.726 69.6693 113.917C69.9463 114.108 70.3079 114.203 70.7542 114.203C71.262 114.203 71.6651 114.095 71.9637 113.88C72.2653 113.661 72.4161 113.4 72.4161 113.095C72.4161 112.849 72.3299 112.643 72.1576 112.477C71.9852 112.307 71.7205 112.181 71.3635 112.098L70.1817 111.821C69.5323 111.667 69.0553 111.429 68.7506 111.105C68.449 110.779 68.2982 110.371 68.2982 109.882C68.2982 109.482 68.4105 109.128 68.6352 108.82C68.8629 108.513 69.1722 108.271 69.5631 108.096C69.957 107.92 70.4033 107.832 70.9019 107.832C71.6036 107.832 72.1545 107.986 72.5546 108.294C72.9578 108.602 73.244 109.008 73.4132 109.513Z" fill="#626A72"/>
<path d="M8.56534 138.516H7.42046C7.35275 138.186 7.23426 137.897 7.06499 137.648C6.89879 137.398 6.69567 137.189 6.45561 137.02C6.21863 136.848 5.95549 136.718 5.66619 136.632C5.37689 136.546 5.07528 136.503 4.76136 136.503C4.18892 136.503 3.67034 136.647 3.20561 136.937C2.74396 137.226 2.37618 137.652 2.10227 138.216C1.83144 138.779 1.69602 139.47 1.69602 140.288C1.69602 141.107 1.83144 141.798 2.10227 142.361C2.37618 142.924 2.74396 143.351 3.20561 143.64C3.67034 143.929 4.18892 144.074 4.76136 144.074C5.07528 144.074 5.37689 144.031 5.66619 143.945C5.95549 143.858 6.21863 143.731 6.45561 143.561C6.69567 143.389 6.89879 143.178 7.06499 142.929C7.23426 142.677 7.35275 142.387 7.42046 142.061H8.56534C8.47917 142.544 8.32221 142.977 8.09446 143.358C7.86671 143.74 7.58357 144.065 7.24503 144.332C6.90649 144.597 6.5264 144.799 6.10476 144.937C5.6862 145.076 5.2384 145.145 4.76136 145.145C3.95502 145.145 3.23793 144.948 2.61009 144.554C1.98224 144.16 1.48828 143.6 1.1282 142.874C0.768111 142.147 0.588068 141.286 0.588068 140.288C0.588068 139.291 0.768111 138.429 1.1282 137.703C1.48828 136.977 1.98224 136.417 2.61009 136.023C3.23793 135.629 3.95502 135.432 4.76136 135.432C5.2384 135.432 5.6862 135.501 6.10476 135.64C6.5264 135.778 6.90649 135.981 7.24503 136.249C7.58357 136.514 7.86671 136.837 8.09446 137.218C8.32221 137.597 8.47917 138.029 8.56534 138.516ZM11.5572 140.75V145.016H10.4677V135.561H11.5572V139.033H11.6495C11.8157 138.666 12.065 138.376 12.3974 138.16C12.7328 137.942 13.1791 137.832 13.7361 137.832C14.2193 137.832 14.6425 137.929 15.0057 138.123C15.3688 138.314 15.6504 138.608 15.8505 139.005C16.0536 139.399 16.1552 139.901 16.1552 140.51V145.016H15.0657V140.584C15.0657 140.021 14.9195 139.585 14.6271 139.277C14.3378 138.967 13.9362 138.811 13.4222 138.811C13.0652 138.811 12.7451 138.886 12.462 139.037C12.1819 139.188 11.9603 139.408 11.7972 139.697C11.6372 139.987 11.5572 140.338 11.5572 140.75ZM20.435 145.182C19.9856 145.182 19.5779 145.097 19.2116 144.928C18.8454 144.756 18.5545 144.508 18.3391 144.185C18.1237 143.858 18.0159 143.464 18.0159 143.003C18.0159 142.597 18.096 142.267 18.256 142.015C18.416 141.759 18.6299 141.559 18.8977 141.415C19.1654 141.27 19.4609 141.162 19.7841 141.092C20.1103 141.018 20.4381 140.959 20.7674 140.916C21.1982 140.861 21.5475 140.819 21.8153 140.792C22.0861 140.761 22.2831 140.71 22.4062 140.639C22.5324 140.568 22.5955 140.445 22.5955 140.27V140.233C22.5955 139.777 22.4708 139.424 22.2216 139.171C21.9753 138.919 21.6014 138.793 21.0998 138.793C20.5796 138.793 20.1718 138.906 19.8764 139.134C19.5809 139.362 19.3732 139.605 19.2532 139.864L18.2191 139.494C18.4037 139.063 18.6499 138.728 18.9577 138.488C19.2685 138.245 19.6071 138.076 19.9733 137.98C20.3426 137.882 20.7058 137.832 21.0628 137.832C21.2906 137.832 21.5522 137.86 21.8476 137.915C22.1462 137.968 22.4339 138.077 22.7109 138.243C22.991 138.409 23.2233 138.66 23.408 138.996C23.5926 139.331 23.685 139.781 23.685 140.344V145.016H22.5955V144.055H22.5401C22.4662 144.209 22.3431 144.374 22.1708 144.549C21.9984 144.725 21.7691 144.874 21.4829 144.997C21.1967 145.12 20.8474 145.182 20.435 145.182ZM20.6012 144.203C21.032 144.203 21.3952 144.118 21.6907 143.949C21.9892 143.78 22.2139 143.561 22.3647 143.294C22.5185 143.026 22.5955 142.744 22.5955 142.449V141.452C22.5493 141.507 22.4478 141.558 22.2908 141.604C22.1369 141.647 21.9584 141.686 21.7553 141.719C21.5552 141.75 21.3598 141.778 21.169 141.803C20.9813 141.824 20.8289 141.843 20.712 141.858C20.4288 141.895 20.1641 141.955 19.9179 142.038C19.6748 142.118 19.4778 142.24 19.327 142.403C19.1793 142.563 19.1054 142.781 19.1054 143.058C19.1054 143.437 19.2455 143.723 19.5255 143.917C19.8087 144.108 20.1672 144.203 20.6012 144.203ZM26.963 140.75V145.016H25.8735V137.925H26.9261V139.033H27.0184C27.1846 138.673 27.437 138.383 27.7755 138.165C28.1141 137.943 28.5511 137.832 29.0866 137.832C29.5667 137.832 29.9868 137.931 30.3469 138.128C30.707 138.322 30.987 138.617 31.1871 139.014C31.3871 139.408 31.4872 139.907 31.4872 140.51V145.016H30.3977V140.584C30.3977 140.027 30.253 139.593 29.9637 139.282C29.6744 138.968 29.2774 138.811 28.7727 138.811C28.4249 138.811 28.1141 138.886 27.8401 139.037C27.5693 139.188 27.3554 139.408 27.1985 139.697C27.0415 139.987 26.963 140.338 26.963 140.75ZM36.5402 147.822C36.014 147.822 35.5615 147.755 35.183 147.619C34.8044 147.487 34.489 147.312 34.2366 147.093C33.9873 146.878 33.7888 146.647 33.6411 146.401L34.509 145.791C34.6075 145.92 34.7321 146.068 34.8829 146.234C35.0337 146.404 35.2399 146.55 35.5015 146.673C35.7662 146.799 36.1124 146.862 36.5402 146.862C37.1127 146.862 37.5851 146.724 37.9575 146.447C38.3299 146.17 38.5161 145.736 38.5161 145.145V143.705H38.4238C38.3437 143.834 38.2299 143.994 38.0821 144.185C37.9375 144.372 37.7282 144.54 37.4543 144.688C37.1835 144.833 36.8172 144.905 36.3556 144.905C35.7831 144.905 35.2692 144.769 34.8137 144.499C34.3613 144.228 34.0027 143.834 33.738 143.317C33.4764 142.8 33.3456 142.172 33.3456 141.433C33.3456 140.707 33.4734 140.074 33.7288 139.536C33.9842 138.994 34.3397 138.576 34.7952 138.28C35.2507 137.982 35.777 137.832 36.374 137.832C36.8357 137.832 37.2019 137.909 37.4728 138.063C37.7467 138.214 37.956 138.386 38.1006 138.58C38.2483 138.771 38.3622 138.928 38.4422 139.051H38.553V137.925H39.6056V145.219C39.6056 145.828 39.4671 146.324 39.1901 146.705C38.9162 147.09 38.5469 147.372 38.0821 147.55C37.6205 147.732 37.1065 147.822 36.5402 147.822ZM36.5033 143.926C36.9403 143.926 37.3096 143.826 37.6113 143.626C37.9129 143.426 38.1422 143.138 38.2991 142.763C38.4561 142.387 38.5346 141.938 38.5346 141.415C38.5346 140.904 38.4576 140.453 38.3037 140.062C38.1498 139.671 37.9221 139.365 37.6205 139.143C37.3189 138.922 36.9465 138.811 36.5033 138.811C36.0417 138.811 35.6569 138.928 35.3492 139.162C35.0445 139.396 34.8152 139.71 34.6613 140.104C34.5105 140.498 34.4351 140.935 34.4351 141.415C34.4351 141.907 34.5121 142.343 34.6659 142.721C34.8229 143.097 35.0537 143.392 35.3584 143.608C35.6662 143.82 36.0478 143.926 36.5033 143.926ZM44.7729 145.163C44.0897 145.163 43.5003 145.013 43.0048 144.711C42.5124 144.406 42.1323 143.982 41.8645 143.437C41.5998 142.889 41.4675 142.252 41.4675 141.526C41.4675 140.799 41.5998 140.159 41.8645 139.605C42.1323 139.048 42.5047 138.614 42.9817 138.303C43.4618 137.989 44.022 137.832 44.6621 137.832C45.0314 137.832 45.3961 137.894 45.7562 138.017C46.1163 138.14 46.4441 138.34 46.7395 138.617C47.035 138.891 47.2704 139.254 47.4458 139.707C47.6213 140.159 47.709 140.716 47.709 141.378V141.839H42.2431V140.898H46.601C46.601 140.498 46.521 140.141 46.361 139.827C46.204 139.513 45.9793 139.265 45.687 139.083C45.3977 138.902 45.056 138.811 44.6621 138.811C44.2282 138.811 43.8527 138.919 43.5357 139.134C43.2218 139.347 42.9802 139.624 42.8109 139.965C42.6416 140.307 42.557 140.673 42.557 141.064V141.692C42.557 142.227 42.6493 142.681 42.834 143.054C43.0217 143.423 43.2818 143.705 43.6142 143.898C43.9466 144.089 44.3328 144.185 44.7729 144.185C45.0591 144.185 45.3176 144.145 45.5485 144.065C45.7824 143.982 45.984 143.858 46.1532 143.695C46.3225 143.529 46.4533 143.323 46.5456 143.077L47.5982 143.372C47.4874 143.729 47.3012 144.043 47.0396 144.314C46.778 144.582 46.4548 144.791 46.0701 144.942C45.6854 145.089 45.253 145.163 44.7729 145.163ZM50.6558 135.561V145.016H49.5663V135.561H50.6558ZM55.7319 145.163C55.0918 145.163 54.5301 145.011 54.0469 144.706C53.5668 144.402 53.1913 143.975 52.9205 143.428C52.6528 142.88 52.5189 142.24 52.5189 141.507C52.5189 140.768 52.6528 140.124 52.9205 139.573C53.1913 139.022 53.5668 138.594 54.0469 138.289C54.5301 137.985 55.0918 137.832 55.7319 137.832C56.3721 137.832 56.9322 137.985 57.4123 138.289C57.8955 138.594 58.271 139.022 58.5388 139.573C58.8096 140.124 58.945 140.768 58.945 141.507C58.945 142.24 58.8096 142.88 58.5388 143.428C58.271 143.975 57.8955 144.402 57.4123 144.706C56.9322 145.011 56.3721 145.163 55.7319 145.163ZM55.7319 144.185C56.2182 144.185 56.6183 144.06 56.9322 143.811C57.2461 143.561 57.4785 143.234 57.6293 142.827C57.7801 142.421 57.8555 141.981 57.8555 141.507C57.8555 141.033 57.7801 140.592 57.6293 140.182C57.4785 139.773 57.2461 139.442 56.9322 139.19C56.6183 138.937 56.2182 138.811 55.7319 138.811C55.2457 138.811 54.8456 138.937 54.5317 139.19C54.2177 139.442 53.9854 139.773 53.8346 140.182C53.6838 140.592 53.6084 141.033 53.6084 141.507C53.6084 141.981 53.6838 142.421 53.8346 142.827C53.9854 143.234 54.2177 143.561 54.5317 143.811C54.8456 144.06 55.2457 144.185 55.7319 144.185ZM63.6703 147.822C63.144 147.822 62.6916 147.755 62.3131 147.619C61.9345 147.487 61.6191 147.312 61.3667 147.093C61.1174 146.878 60.9189 146.647 60.7712 146.401L61.6391 145.791C61.7375 145.92 61.8622 146.068 62.013 146.234C62.1638 146.404 62.37 146.55 62.6316 146.673C62.8963 146.799 63.2425 146.862 63.6703 146.862C64.2428 146.862 64.7152 146.724 65.0876 146.447C65.46 146.17 65.6462 145.736 65.6462 145.145V143.705H65.5538C65.4738 143.834 65.3599 143.994 65.2122 144.185C65.0676 144.372 64.8583 144.54 64.5844 144.688C64.3135 144.833 63.9473 144.905 63.4857 144.905C62.9132 144.905 62.3992 144.769 61.9437 144.499C61.4913 144.228 61.1328 143.834 60.8681 143.317C60.6065 142.8 60.4757 142.172 60.4757 141.433C60.4757 140.707 60.6034 140.074 60.8589 139.536C61.1143 138.994 61.4698 138.576 61.9253 138.28C62.3808 137.982 62.9071 137.832 63.5041 137.832C63.9658 137.832 64.332 137.909 64.6028 138.063C64.8768 138.214 65.086 138.386 65.2307 138.58C65.3784 138.771 65.4923 138.928 65.5723 139.051H65.6831V137.925H66.7357V145.219C66.7357 145.828 66.5972 146.324 66.3202 146.705C66.0463 147.09 65.6769 147.372 65.2122 147.55C64.7506 147.732 64.2366 147.822 63.6703 147.822ZM63.6334 143.926C64.0704 143.926 64.4397 143.826 64.7413 143.626C65.0429 143.426 65.2722 143.138 65.4292 142.763C65.5861 142.387 65.6646 141.938 65.6646 141.415C65.6646 140.904 65.5877 140.453 65.4338 140.062C65.2799 139.671 65.0522 139.365 64.7506 139.143C64.449 138.922 64.0766 138.811 63.6334 138.811C63.1717 138.811 62.787 138.928 62.4793 139.162C62.1746 139.396 61.9453 139.71 61.7914 140.104C61.6406 140.498 61.5652 140.935 61.5652 141.415C61.5652 141.907 61.6421 142.343 61.796 142.721C61.953 143.097 62.1838 143.392 62.4885 143.608C62.7963 143.82 63.1779 143.926 63.6334 143.926Z" fill="#626A72"/>
<path d="M1.04545 175.016V164.834H4.4858C5.28456 164.834 5.9375 164.978 6.4446 165.266C6.95502 165.551 7.33286 165.938 7.57812 166.425C7.82339 166.912 7.94602 167.455 7.94602 168.055C7.94602 168.655 7.82339 169.201 7.57812 169.691C7.33617 170.182 6.96165 170.573 6.45455 170.864C5.94744 171.153 5.29782 171.297 4.50568 171.297H2.03977V170.203H4.46591C5.01278 170.203 5.45194 170.109 5.78338 169.92C6.11482 169.731 6.35511 169.476 6.50426 169.154C6.65672 168.829 6.73295 168.463 6.73295 168.055C6.73295 167.648 6.65672 167.283 6.50426 166.962C6.35511 166.64 6.11316 166.388 5.77841 166.206C5.44366 166.02 4.99953 165.928 4.44602 165.928H2.27841V175.016H1.04545ZM12.2202 175.195C11.7363 175.195 11.2972 175.103 10.9028 174.921C10.5084 174.736 10.1951 174.469 9.96314 174.121C9.73113 173.769 9.61513 173.345 9.61513 172.848C9.61513 172.411 9.7013 172.056 9.87365 171.784C10.046 171.509 10.2763 171.294 10.5647 171.138C10.8531 170.982 11.1712 170.866 11.5192 170.79C11.8706 170.71 12.2236 170.647 12.5782 170.601C13.0422 170.541 13.4184 170.496 13.7067 170.467C13.9984 170.433 14.2105 170.379 14.3431 170.303C14.479 170.226 14.5469 170.094 14.5469 169.905V169.865C14.5469 169.375 14.4127 168.993 14.1442 168.722C13.8791 168.45 13.4764 168.314 12.9362 168.314C12.376 168.314 11.9369 168.437 11.6187 168.682C11.3005 168.927 11.0768 169.189 10.9475 169.467L9.83388 169.07C10.0327 168.606 10.2979 168.244 10.6293 167.986C10.9641 167.724 11.3287 167.542 11.7231 167.439C12.1208 167.333 12.5119 167.28 12.8964 167.28C13.1416 167.28 13.4234 167.31 13.7415 167.369C14.063 167.426 14.3729 167.543 14.6712 167.722C14.9728 167.901 15.2231 168.171 15.4219 168.533C15.6208 168.894 15.7202 169.378 15.7202 169.984V175.016H14.5469V173.982H14.4873C14.4077 174.147 14.2752 174.325 14.0896 174.513C13.904 174.702 13.657 174.863 13.3488 174.996C13.0406 175.128 12.6644 175.195 12.2202 175.195ZM12.3992 174.141C12.8632 174.141 13.2543 174.049 13.5725 173.867C13.894 173.685 14.136 173.45 14.2984 173.161C14.4641 172.873 14.5469 172.57 14.5469 172.251V171.178C14.4972 171.237 14.3879 171.292 14.2188 171.342C14.0531 171.388 13.8609 171.429 13.6421 171.466C13.4267 171.499 13.2162 171.529 13.0107 171.555C12.8085 171.579 12.6445 171.598 12.5185 171.615C12.2136 171.655 11.9286 171.719 11.6634 171.809C11.4016 171.895 11.1895 172.026 11.0271 172.202C10.868 172.374 10.7884 172.609 10.7884 172.908C10.7884 173.315 10.9392 173.624 11.2408 173.832C11.5458 174.038 11.9319 174.141 12.3992 174.141ZM23.4708 169.089L22.4169 169.388C22.3506 169.212 22.2528 169.041 22.1235 168.876C21.9976 168.707 21.8252 168.567 21.6065 168.458C21.3877 168.349 21.1077 168.294 20.7663 168.294C20.299 168.294 19.9095 168.402 19.598 168.617C19.2897 168.829 19.1356 169.099 19.1356 169.428C19.1356 169.719 19.2417 169.95 19.4538 170.119C19.6659 170.288 19.9974 170.429 20.4481 170.541L21.5816 170.82C22.2644 170.985 22.7732 171.239 23.1079 171.58C23.4427 171.918 23.61 172.354 23.61 172.888C23.61 173.325 23.4841 173.716 23.2322 174.061C22.9836 174.406 22.6356 174.678 22.1882 174.876C21.7407 175.075 21.2204 175.175 20.6271 175.175C19.8482 175.175 19.2036 175.006 18.6931 174.668C18.1827 174.33 17.8596 173.836 17.7237 173.186L18.8373 172.908C18.9434 173.319 19.1439 173.627 19.4389 173.832C19.7372 174.038 20.1266 174.141 20.6072 174.141C21.1541 174.141 21.5883 174.025 21.9098 173.793C22.2346 173.557 22.397 173.276 22.397 172.947C22.397 172.682 22.3042 172.46 22.1186 172.281C21.933 172.099 21.6479 171.963 21.2635 171.874L19.9907 171.575C19.2914 171.41 18.7777 171.153 18.4495 170.805C18.1247 170.453 17.9623 170.014 17.9623 169.487C17.9623 169.056 18.0833 168.675 18.3252 168.344C18.5705 168.012 18.9036 167.752 19.3245 167.563C19.7488 167.374 20.2294 167.28 20.7663 167.28C21.522 167.28 22.1153 167.446 22.5461 167.777C22.9803 168.108 23.2886 168.546 23.4708 169.089ZM30.9853 169.089L29.9313 169.388C29.865 169.212 29.7673 169.041 29.638 168.876C29.5121 168.707 29.3397 168.567 29.121 168.458C28.9022 168.349 28.6221 168.294 28.2808 168.294C27.8134 168.294 27.424 168.402 27.1124 168.617C26.8042 168.829 26.6501 169.099 26.6501 169.428C26.6501 169.719 26.7561 169.95 26.9683 170.119C27.1804 170.288 27.5118 170.429 27.9626 170.541L29.0961 170.82C29.7789 170.985 30.2876 171.239 30.6224 171.58C30.9571 171.918 31.1245 172.354 31.1245 172.888C31.1245 173.325 30.9986 173.716 30.7467 174.061C30.4981 174.406 30.1501 174.678 29.7026 174.876C29.2552 175.075 28.7348 175.175 28.1415 175.175C27.3627 175.175 26.718 175.006 26.2076 174.668C25.6972 174.33 25.374 173.836 25.2381 173.186L26.3518 172.908C26.4578 173.319 26.6584 173.627 26.9533 173.832C27.2516 174.038 27.6411 174.141 28.1217 174.141C28.6685 174.141 29.1027 174.025 29.4242 173.793C29.749 173.557 29.9114 173.276 29.9114 172.947C29.9114 172.682 29.8186 172.46 29.633 172.281C29.4474 172.099 29.1624 171.963 28.7779 171.874L27.5052 171.575C26.8058 171.41 26.2921 171.153 25.964 170.805C25.6392 170.453 25.4768 170.014 25.4768 169.487C25.4768 169.056 25.5978 168.675 25.8397 168.344C26.085 168.012 26.4181 167.752 26.839 167.563C27.2632 167.374 27.7438 167.28 28.2808 167.28C29.0364 167.28 29.6297 167.446 30.0606 167.777C30.4948 168.108 30.803 168.546 30.9853 169.089ZM34.8208 175.016L32.4941 167.379H33.727L35.3776 173.226H35.4571L37.0878 167.379H38.3407L39.9515 173.206H40.031L41.6816 167.379H42.9145L40.5878 175.016H39.4344L37.764 169.149H37.6446L35.9742 175.016H34.8208ZM47.5082 175.175C46.8188 175.175 46.2139 175.011 45.6935 174.683C45.1765 174.354 44.7721 173.895 44.4805 173.305C44.1921 172.715 44.0479 172.026 44.0479 171.237C44.0479 170.442 44.1921 169.747 44.4805 169.154C44.7721 168.561 45.1765 168.1 45.6935 167.772C46.2139 167.444 46.8188 167.28 47.5082 167.28C48.1976 167.28 48.8008 167.444 49.3178 167.772C49.8382 168.1 50.2425 168.561 50.5309 169.154C50.8226 169.747 50.9684 170.442 50.9684 171.237C50.9684 172.026 50.8226 172.715 50.5309 173.305C50.2425 173.895 49.8382 174.354 49.3178 174.683C48.8008 175.011 48.1976 175.175 47.5082 175.175ZM47.5082 174.121C48.0318 174.121 48.4627 173.987 48.8008 173.718C49.1388 173.45 49.3891 173.097 49.5515 172.659C49.7139 172.222 49.7951 171.748 49.7951 171.237C49.7951 170.727 49.7139 170.251 49.5515 169.81C49.3891 169.37 49.1388 169.013 48.8008 168.741C48.4627 168.47 48.0318 168.334 47.5082 168.334C46.9845 168.334 46.5536 168.47 46.2156 168.741C45.8775 169.013 45.6272 169.37 45.4648 169.81C45.3024 170.251 45.2212 170.727 45.2212 171.237C45.2212 171.748 45.3024 172.222 45.4648 172.659C45.6272 173.097 45.8775 173.45 46.2156 173.718C46.5536 173.987 46.9845 174.121 47.5082 174.121ZM52.9594 175.016V167.379H54.0929V168.533H54.1725C54.3117 168.155 54.5636 167.848 54.9282 167.613C55.2927 167.378 55.7037 167.26 56.1611 167.26C56.2473 167.26 56.355 167.262 56.4843 167.265C56.6135 167.268 56.7113 167.273 56.7776 167.28V168.473C56.7378 168.463 56.6467 168.448 56.5042 168.428C56.365 168.405 56.2175 168.393 56.0617 168.393C55.6905 168.393 55.359 168.471 55.0674 168.627C54.779 168.78 54.5503 168.992 54.3813 169.263C54.2156 169.532 54.1327 169.839 54.1327 170.183V175.016H52.9594ZM61.0195 175.175C60.3831 175.175 59.8213 175.014 59.3341 174.692C58.8469 174.368 58.4658 173.91 58.1907 173.32C57.9156 172.727 57.778 172.026 57.778 171.217C57.778 170.415 57.9156 169.719 58.1907 169.129C58.4658 168.539 58.8486 168.084 59.3391 167.762C59.8296 167.441 60.3964 167.28 61.0394 167.28C61.5365 167.28 61.9293 167.363 62.2177 167.528C62.5093 167.691 62.7314 167.876 62.8838 168.085C63.0396 168.291 63.1606 168.46 63.2468 168.592H63.3462V164.834H64.5195V175.016H63.386V173.842H63.2468C63.1606 173.982 63.038 174.157 62.8789 174.369C62.7198 174.578 62.4927 174.765 62.1978 174.931C61.9028 175.094 61.51 175.175 61.0195 175.175ZM61.1786 174.121C61.6492 174.121 62.047 173.998 62.3718 173.753C62.6966 173.504 62.9435 173.161 63.1125 172.724C63.2816 172.283 63.3661 171.774 63.3661 171.197C63.3661 170.627 63.2832 170.129 63.1175 169.701C62.9518 169.27 62.7065 168.935 62.3817 168.697C62.0569 168.455 61.6559 168.334 61.1786 168.334C60.6814 168.334 60.2671 168.461 59.9357 168.717C59.6076 168.969 59.3606 169.312 59.1949 169.746C59.0325 170.177 58.9513 170.661 58.9513 171.197C58.9513 171.741 59.0342 172.235 59.1999 172.679C59.3689 173.12 59.6175 173.471 59.9456 173.733C60.2771 173.991 60.6881 174.121 61.1786 174.121Z" fill="#626A72"/>
<path d="M0.569602 203.077V202.135L4.72443 195.561H5.40767V197.02H4.94602L1.80682 201.987V202.061H7.40199V203.077H0.569602ZM5.01989 205.016V202.79V202.352V195.561H6.10938V205.016H5.01989ZM12.4158 205.145C11.7203 205.145 11.1278 204.956 10.6385 204.577C10.1491 204.195 9.7752 203.643 9.51667 202.92C9.25815 202.193 9.12889 201.316 9.12889 200.288C9.12889 199.267 9.25815 198.394 9.51667 197.671C9.77827 196.944 10.1537 196.391 10.6431 196.009C11.1355 195.624 11.7264 195.432 12.4158 195.432C13.1052 195.432 13.6946 195.624 14.1839 196.009C14.6764 196.391 15.0518 196.944 15.3104 197.671C15.572 198.394 15.7028 199.267 15.7028 200.288C15.7028 201.316 15.5735 202.193 15.315 202.92C15.0564 203.643 14.6825 204.195 14.1932 204.577C13.7038 204.956 13.1114 205.145 12.4158 205.145ZM12.4158 204.129C13.1052 204.129 13.6407 203.797 14.0224 203.132C14.404 202.467 14.5948 201.519 14.5948 200.288C14.5948 199.47 14.5071 198.773 14.3317 198.197C14.1593 197.622 13.91 197.183 13.5838 196.881C13.2606 196.58 12.8713 196.429 12.4158 196.429C11.7326 196.429 11.1986 196.766 10.8139 197.44C10.4292 198.111 10.2368 199.06 10.2368 200.288C10.2368 201.107 10.323 201.803 10.4954 202.375C10.6677 202.947 10.9155 203.383 11.2386 203.681C11.5648 203.98 11.9572 204.129 12.4158 204.129ZM17.4354 203.077V202.135L21.5903 195.561H22.2735V197.02H21.8118L18.6726 201.987V202.061H24.2678V203.077H17.4354ZM21.8857 205.016V202.79V202.352V195.561H22.9752V205.016H21.8857Z" fill="#626A72"/>
</svg>
