<svg width="217" height="216" viewBox="0 0 217 216" fill="none" xmlns="http://www.w3.org/2000/svg">
<path d="M2.84517 6.10653V17.0156H1.52415V6.10653H2.84517ZM6.78052 12.0938V17.0156H5.52342V8.83381H6.73791V10.1122H6.84444C7.0362 9.69673 7.3274 9.36293 7.71802 9.1108C8.10865 8.85511 8.61291 8.72727 9.23081 8.72727C9.78478 8.72727 10.2695 8.84091 10.685 9.06818C11.1005 9.2919 11.4236 9.63281 11.6545 10.0909C11.8853 10.5455 12.0007 11.1207 12.0007 11.8168V17.0156H10.7436V11.902C10.7436 11.2592 10.5767 10.7585 10.2429 10.3999C9.90907 10.0376 9.45098 9.85653 8.86859 9.85653C8.46731 9.85653 8.10865 9.94354 7.7926 10.1175C7.4801 10.2915 7.23329 10.5455 7.05218 10.8793C6.87108 11.2131 6.78052 11.6179 6.78052 12.0938ZM18.1413 8.83381V9.89915H13.7308V8.83381H18.1413ZM15.0518 17.0156V7.70455C15.0518 7.2358 15.1619 6.84517 15.3821 6.53267C15.6022 6.22017 15.8881 5.98579 16.2397 5.82954C16.5912 5.67329 16.9623 5.59517 17.3529 5.59517C17.6619 5.59517 17.914 5.62003 18.1093 5.66974C18.3047 5.71946 18.4502 5.76562 18.5461 5.80824L18.1839 6.89489C18.12 6.87358 18.0312 6.84695 17.9176 6.81499C17.8075 6.78303 17.6619 6.76704 17.4808 6.76704C17.0653 6.76704 16.7652 6.8718 16.5806 7.08132C16.3995 7.29084 16.3089 7.59801 16.3089 8.00284V17.0156H15.0518ZM23.0901 17.1861C22.3514 17.1861 21.7033 17.0103 21.1458 16.6587C20.5918 16.3072 20.1586 15.8153 19.8461 15.1832C19.5371 14.5511 19.3827 13.8125 19.3827 12.9673C19.3827 12.1151 19.5371 11.3711 19.8461 10.7354C20.1586 10.0998 20.5918 9.60618 21.1458 9.25462C21.7033 8.90305 22.3514 8.72727 23.0901 8.72727C23.8287 8.72727 24.475 8.90305 25.029 9.25462C25.5865 9.60618 26.0197 10.0998 26.3287 10.7354C26.6412 11.3711 26.7974 12.1151 26.7974 12.9673C26.7974 13.8125 26.6412 14.5511 26.3287 15.1832C26.0197 15.8153 25.5865 16.3072 25.029 16.6587C24.475 17.0103 23.8287 17.1861 23.0901 17.1861ZM23.0901 16.0568C23.6511 16.0568 24.1128 15.913 24.475 15.6254C24.8372 15.3377 25.1053 14.9595 25.2793 14.4908C25.4533 14.022 25.5403 13.5142 25.5403 12.9673C25.5403 12.4205 25.4533 11.9109 25.2793 11.4386C25.1053 10.9663 24.8372 10.5845 24.475 10.2933C24.1128 10.0021 23.6511 9.85653 23.0901 9.85653C22.529 9.85653 22.0673 10.0021 21.7051 10.2933C21.3429 10.5845 21.0748 10.9663 20.9008 11.4386C20.7268 11.9109 20.6398 12.4205 20.6398 12.9673C20.6398 13.5142 20.7268 14.022 20.9008 14.4908C21.0748 14.9595 21.3429 15.3377 21.7051 15.6254C22.0673 15.913 22.529 16.0568 23.0901 16.0568Z" fill="#1F1F1F"/>
<path d="M1.43608 55.0156V44.8338H7.54119V45.9276H2.66903V49.3679H7.08381V50.4616H2.66903V55.0156H1.43608ZM12.3349 55.1747C11.5991 55.1747 10.9644 55.0123 10.4308 54.6875C9.90052 54.3594 9.49119 53.902 9.20284 53.3153C8.9178 52.7254 8.77528 52.0393 8.77528 51.2571C8.77528 50.4749 8.9178 49.7855 9.20284 49.1889C9.49119 48.589 9.89223 48.1217 10.406 47.7869C10.923 47.4489 11.5262 47.2798 12.2156 47.2798C12.6134 47.2798 13.0061 47.3461 13.3939 47.4787C13.7817 47.6113 14.1347 47.8267 14.4528 48.125C14.771 48.42 15.0246 48.8111 15.2135 49.2983C15.4024 49.7855 15.4969 50.3854 15.4969 51.098V51.5952H9.61051V50.581H14.3037C14.3037 50.1501 14.2175 49.7656 14.0452 49.4276C13.8761 49.0895 13.6342 48.8227 13.3193 48.6271C13.0078 48.4316 12.6399 48.3338 12.2156 48.3338C11.7483 48.3338 11.3439 48.4498 11.0026 48.6818C10.6645 48.9105 10.4043 49.2088 10.222 49.5767C10.0397 49.9446 9.94858 50.339 9.94858 50.7599V51.4361C9.94858 52.0128 10.048 52.5017 10.2469 52.9027C10.4491 53.3004 10.7291 53.6037 11.0871 53.8125C11.445 54.018 11.861 54.1207 12.3349 54.1207C12.6432 54.1207 12.9216 54.0777 13.1702 53.9915C13.4221 53.902 13.6392 53.7694 13.8214 53.5938C14.0037 53.4148 14.1446 53.1927 14.244 52.9276L15.3776 53.2457C15.2582 53.6302 15.0577 53.9683 14.776 54.2599C14.4943 54.5483 14.1463 54.7737 13.732 54.9361C13.3177 55.0952 12.852 55.1747 12.3349 55.1747ZM19.7288 55.1946C19.2449 55.1946 18.8058 55.1035 18.4114 54.9212C18.017 54.7356 17.7037 54.4688 17.4717 54.1207C17.2397 53.7694 17.1237 53.3452 17.1237 52.848C17.1237 52.4105 17.2099 52.0559 17.3822 51.7841C17.5546 51.509 17.7849 51.2936 18.0733 51.1378C18.3616 50.982 18.6798 50.866 19.0278 50.7898C19.3792 50.7102 19.7321 50.6473 20.0868 50.6009C20.5508 50.5412 20.927 50.4964 21.2153 50.4666C21.507 50.4335 21.7191 50.3788 21.8517 50.3026C21.9876 50.2263 22.0555 50.0937 22.0555 49.9048V49.8651C22.0555 49.3745 21.9213 48.9934 21.6528 48.7216C21.3877 48.4498 20.985 48.3139 20.4447 48.3139C19.8846 48.3139 19.4455 48.4366 19.1273 48.6818C18.8091 48.9271 18.5854 49.1889 18.4561 49.4673L17.3425 49.0696C17.5413 48.6056 17.8065 48.2443 18.1379 47.9858C18.4727 47.724 18.8373 47.5417 19.2317 47.4389C19.6294 47.3329 20.0205 47.2798 20.405 47.2798C20.6502 47.2798 20.932 47.3097 21.2501 47.3693C21.5716 47.4257 21.8815 47.5433 22.1798 47.7223C22.4814 47.9013 22.7317 48.1714 22.9305 48.5327C23.1294 48.8939 23.2288 49.3778 23.2288 49.9844V55.0156H22.0555V53.9815H21.9959C21.9163 54.1473 21.7838 54.3246 21.5982 54.5135C21.4125 54.7024 21.1656 54.8632 20.8574 54.9957C20.5491 55.1283 20.173 55.1946 19.7288 55.1946ZM19.9078 54.1406C20.3718 54.1406 20.7629 54.0495 21.0811 53.8672C21.4026 53.6849 21.6446 53.4496 21.807 53.1612C21.9727 52.8729 22.0555 52.5696 22.0555 52.2514V51.1776C22.0058 51.2372 21.8964 51.2919 21.7274 51.3416C21.5617 51.388 21.3695 51.4295 21.1507 51.4659C20.9353 51.4991 20.7248 51.5289 20.5193 51.5554C20.3171 51.5786 20.1531 51.5985 20.0271 51.6151C19.7222 51.6548 19.4372 51.7195 19.172 51.8089C18.9102 51.8951 18.6981 52.026 18.5357 52.2017C18.3766 52.3741 18.297 52.6094 18.297 52.9077C18.297 53.3153 18.4478 53.6236 18.7494 53.8324C19.0544 54.0379 19.4405 54.1406 19.9078 54.1406ZM28.8914 47.3793V48.3736H24.934V47.3793H28.8914ZM26.0874 45.5497H27.2607V52.8281C27.2607 53.1596 27.3087 53.4081 27.4049 53.5739C27.5043 53.7363 27.6302 53.8456 27.7827 53.902C27.9385 53.955 28.1025 53.9815 28.2749 53.9815C28.4042 53.9815 28.5102 53.9749 28.5931 53.9616C28.6759 53.9451 28.7422 53.9318 28.7919 53.9219L29.0306 54.9759C28.951 55.0057 28.84 55.0355 28.6975 55.0653C28.555 55.0985 28.3743 55.1151 28.1556 55.1151C27.8241 55.1151 27.4993 55.0438 27.1811 54.9013C26.8663 54.7588 26.6044 54.5417 26.3956 54.25C26.1901 53.9583 26.0874 53.5904 26.0874 53.1463V45.5497ZM35.6688 51.8935V47.3793H36.8421V55.0156H35.6688V53.723H35.5892C35.4103 54.1108 35.1319 54.4406 34.754 54.7124C34.3762 54.9808 33.8989 55.1151 33.3222 55.1151C32.8449 55.1151 32.4207 55.0107 32.0495 54.8018C31.6783 54.5897 31.3866 54.2715 31.1745 53.8473C30.9623 53.4197 30.8563 52.8812 30.8563 52.2315V47.3793H32.0296V52.152C32.0296 52.7088 32.1854 53.1529 32.4969 53.4844C32.8118 53.8158 33.2128 53.9815 33.7 53.9815C33.9917 53.9815 34.2883 53.907 34.5899 53.7578C34.8949 53.6087 35.1501 53.38 35.3556 53.0717C35.5644 52.7635 35.6688 52.3707 35.6688 51.8935ZM39.1911 55.0156V47.3793H40.3246V48.5327H40.4041C40.5433 48.1548 40.7952 47.8482 41.1598 47.6129C41.5244 47.3776 41.9354 47.2599 42.3928 47.2599C42.4789 47.2599 42.5866 47.2616 42.7159 47.2649C42.8452 47.2682 42.9429 47.2732 43.0092 47.2798V48.473C42.9695 48.4631 42.8783 48.4482 42.7358 48.4283C42.5966 48.4051 42.4491 48.3935 42.2933 48.3935C41.9221 48.3935 41.5907 48.4714 41.299 48.6271C41.0107 48.7796 40.782 48.9917 40.6129 49.2635C40.4472 49.532 40.3643 49.8385 40.3643 50.1832V55.0156H39.1911ZM47.5693 55.1747C46.8335 55.1747 46.1988 55.0123 45.6652 54.6875C45.1349 54.3594 44.7256 53.902 44.4372 53.3153C44.1522 52.7254 44.0097 52.0393 44.0097 51.2571C44.0097 50.4749 44.1522 49.7855 44.4372 49.1889C44.7256 48.589 45.1266 48.1217 45.6403 47.7869C46.1574 47.4489 46.7606 47.2798 47.45 47.2798C47.8477 47.2798 48.2405 47.3461 48.6283 47.4787C49.0161 47.6113 49.369 47.8267 49.6872 48.125C50.0054 48.42 50.2589 48.8111 50.4479 49.2983C50.6368 49.7855 50.7313 50.3854 50.7313 51.098V51.5952H44.8449V50.581H49.5381C49.5381 50.1501 49.4519 49.7656 49.2795 49.4276C49.1105 49.0895 48.8686 48.8227 48.5537 48.6271C48.2421 48.4316 47.8742 48.3338 47.45 48.3338C46.9827 48.3338 46.5783 48.4498 46.2369 48.6818C45.8989 48.9105 45.6387 49.2088 45.4564 49.5767C45.2741 49.9446 45.183 50.339 45.183 50.7599V51.4361C45.183 52.0128 45.2824 52.5017 45.4813 52.9027C45.6834 53.3004 45.9635 53.6037 46.3214 53.8125C46.6794 54.018 47.0954 54.1207 47.5693 54.1207C47.8776 54.1207 48.156 54.0777 48.4045 53.9915C48.6564 53.902 48.8735 53.7694 49.0558 53.5938C49.2381 53.4148 49.379 53.1927 49.4784 52.9276L50.6119 53.2457C50.4926 53.6302 50.2921 53.9683 50.0104 54.2599C49.7286 54.5483 49.3806 54.7737 48.9663 54.9361C48.552 55.0952 48.0864 55.1747 47.5693 55.1747ZM58.1251 49.0895L57.0712 49.3878C57.0049 49.2121 56.9071 49.0414 56.7778 48.8757C56.6519 48.7067 56.4795 48.5675 56.2608 48.4581C56.042 48.3487 55.762 48.294 55.4206 48.294C54.9533 48.294 54.5638 48.4018 54.2523 48.6172C53.944 48.8293 53.7899 49.0994 53.7899 49.4276C53.7899 49.7192 53.896 49.9496 54.1081 50.1186C54.3202 50.2876 54.6517 50.4285 55.1024 50.5412L56.2359 50.8196C56.9187 50.9853 57.4275 51.2389 57.7622 51.5803C58.097 51.9183 58.2643 52.3542 58.2643 52.8878C58.2643 53.3253 58.1384 53.7164 57.8865 54.0611C57.6379 54.4058 57.2899 54.6776 56.8425 54.8764C56.395 55.0753 55.8747 55.1747 55.2814 55.1747C54.5025 55.1747 53.8579 55.0057 53.3474 54.6676C52.837 54.3295 52.5139 53.8357 52.378 53.1861L53.4916 52.9077C53.5977 53.3187 53.7982 53.6269 54.0932 53.8324C54.3915 54.0379 54.7809 54.1406 55.2615 54.1406C55.8084 54.1406 56.2426 54.0246 56.5641 53.7926C56.8889 53.5573 57.0513 53.2756 57.0513 52.9474C57.0513 52.6823 56.9585 52.4602 56.7729 52.2812C56.5873 52.099 56.3022 51.9631 55.9178 51.8736L54.645 51.5753C53.9457 51.4096 53.432 51.1527 53.1038 50.8047C52.779 50.4534 52.6166 50.0142 52.6166 49.4872C52.6166 49.0563 52.7376 48.6752 52.9795 48.3438C53.2248 48.0123 53.5579 47.7521 53.9788 47.5632C54.4031 47.3743 54.8837 47.2798 55.4206 47.2798C56.1763 47.2798 56.7696 47.4455 57.2004 47.777C57.6346 48.1084 57.9429 48.5459 58.1251 49.0895Z" fill="#626A72"/>
<path d="M1.34801 85.0156V75.5611H4.54261C5.28433 75.5611 5.89063 75.695 6.36151 75.9627C6.83546 76.2274 7.18632 76.5859 7.41406 77.0384C7.64181 77.4908 7.75568 77.9955 7.75568 78.5526C7.75568 79.1096 7.64181 79.6159 7.41406 80.0714C7.18939 80.5269 6.84162 80.89 6.37074 81.1609C5.89986 81.4286 5.29664 81.5625 4.56108 81.5625H2.27131V80.5469H4.52415C5.03196 80.5469 5.43975 80.4592 5.74751 80.2837C6.05528 80.1083 6.27841 79.8713 6.4169 79.5728C6.55848 79.2712 6.62926 78.9311 6.62926 78.5526C6.62926 78.174 6.55848 77.8355 6.4169 77.5369C6.27841 77.2384 6.05374 77.0045 5.7429 76.8352C5.43206 76.6629 5.01965 76.5767 4.50568 76.5767H2.4929V85.0156H1.34801ZM9.65224 85.0156V77.9247H10.7048V78.9957H10.7787C10.9079 78.6449 11.1418 78.3602 11.4804 78.1417C11.8189 77.9232 12.2005 77.8139 12.6252 77.8139C12.7053 77.8139 12.8053 77.8155 12.9253 77.8185C13.0453 77.8216 13.1361 77.8262 13.1977 77.8324V78.9403C13.1608 78.9311 13.0761 78.9173 12.9438 78.8988C12.8145 78.8772 12.6776 78.8665 12.5329 78.8665C12.1882 78.8665 11.8805 78.9388 11.6096 79.0835C11.3419 79.225 11.1295 79.422 10.9725 79.6744C10.8187 79.9237 10.7417 80.2083 10.7417 80.5284V85.0156H9.65224ZM14.6892 85.0156V77.9247H15.7786V85.0156H14.6892ZM15.2431 76.7429C15.0308 76.7429 14.8476 76.6706 14.6938 76.5259C14.543 76.3813 14.4676 76.2074 14.4676 76.0043C14.4676 75.8011 14.543 75.6272 14.6938 75.4826C14.8476 75.3379 15.0308 75.2656 15.2431 75.2656C15.4555 75.2656 15.6371 75.3379 15.7879 75.4826C15.9418 75.6272 16.0187 75.8011 16.0187 76.0043C16.0187 76.2074 15.9418 76.3813 15.7879 76.5259C15.6371 76.6706 15.4555 76.7429 15.2431 76.7429ZM20.8548 85.1634C20.19 85.1634 19.6176 85.0064 19.1375 84.6925C18.6574 84.3786 18.288 83.9461 18.0295 83.3952C17.771 82.8443 17.6417 82.215 17.6417 81.5071C17.6417 80.7869 17.7741 80.1514 18.0387 79.6005C18.3065 79.0465 18.6789 78.6141 19.1559 78.3033C19.636 77.9893 20.1962 77.8324 20.8363 77.8324C21.3349 77.8324 21.7842 77.9247 22.1843 78.1094C22.5844 78.294 22.9122 78.5526 23.1676 78.8849C23.4231 79.2173 23.5816 79.6051 23.6431 80.0483H22.5537C22.4706 79.7251 22.2859 79.4389 21.9997 79.1896C21.7165 78.9373 21.3349 78.8111 20.8548 78.8111C20.4301 78.8111 20.0577 78.9219 19.7376 79.1435C19.4206 79.362 19.1729 79.6713 18.9944 80.0714C18.8189 80.4684 18.7312 80.9347 18.7312 81.4702C18.7312 82.018 18.8174 82.495 18.9897 82.9013C19.1652 83.3075 19.4114 83.623 19.7284 83.8477C20.0484 84.0723 20.4239 84.1847 20.8548 84.1847C21.1379 84.1847 21.3949 84.1354 21.6257 84.0369C21.8566 83.9384 22.052 83.7969 22.212 83.6122C22.3721 83.4276 22.4859 83.206 22.5537 82.9474H23.6431C23.5816 83.366 23.4292 83.743 23.1861 84.0785C22.9461 84.4109 22.6275 84.6755 22.2305 84.8725C21.8366 85.0664 21.378 85.1634 20.8548 85.1634ZM25.4358 85.0156V77.9247H26.5253V85.0156H25.4358ZM25.9898 76.7429C25.7774 76.7429 25.5943 76.6706 25.4404 76.5259C25.2896 76.3813 25.2142 76.2074 25.2142 76.0043C25.2142 75.8011 25.2896 75.6272 25.4404 75.4826C25.5943 75.3379 25.7774 75.2656 25.9898 75.2656C26.2022 75.2656 26.3837 75.3379 26.5346 75.4826C26.6884 75.6272 26.7654 75.8011 26.7654 76.0043C26.7654 76.2074 26.6884 76.3813 26.5346 76.5259C26.3837 76.6706 26.2022 76.7429 25.9898 76.7429ZM29.8103 80.75V85.0156H28.7208V77.9247H29.7733V79.0327H29.8657C30.0319 78.6726 30.2842 78.3833 30.6228 78.1648C30.9613 77.9432 31.3983 77.8324 31.9339 77.8324C32.414 77.8324 32.8341 77.9309 33.1942 78.1278C33.5542 78.3217 33.8343 78.6172 34.0344 79.0142C34.2344 79.4081 34.3344 79.9067 34.3344 80.5099V85.0156H33.2449V80.5838C33.2449 80.0268 33.1003 79.5928 32.811 79.282C32.5217 78.968 32.1247 78.8111 31.6199 78.8111C31.2722 78.8111 30.9613 78.8865 30.6874 79.0373C30.4166 79.1881 30.2027 79.4081 30.0457 79.6974C29.8888 79.9867 29.8103 80.3376 29.8103 80.75ZM39.3875 87.8224C38.8612 87.8224 38.4088 87.7547 38.0303 87.6193C37.6517 87.487 37.3362 87.3116 37.0839 87.093C36.8346 86.8776 36.6361 86.6468 36.4884 86.4006L37.3563 85.7912C37.4547 85.9205 37.5794 86.0682 37.7302 86.2344C37.881 86.4036 38.0872 86.5498 38.3488 86.6729C38.6135 86.7991 38.9597 86.8622 39.3875 86.8622C39.9599 86.8622 40.4324 86.7237 40.8048 86.4467C41.1772 86.1697 41.3634 85.7358 41.3634 85.1449V83.7045H41.271C41.191 83.8338 41.0771 83.9938 40.9294 84.1847C40.7848 84.3724 40.5755 84.5401 40.3016 84.6879C40.0307 84.8325 39.6645 84.9048 39.2028 84.9048C38.6304 84.9048 38.1164 84.7694 37.6609 84.4986C37.2085 84.2277 36.85 83.8338 36.5853 83.3168C36.3237 82.7997 36.1929 82.1719 36.1929 81.4332C36.1929 80.7069 36.3206 80.0745 36.5761 79.5359C36.8315 78.9942 37.187 78.5756 37.6425 78.2802C38.098 77.9817 38.6242 77.8324 39.2213 77.8324C39.683 77.8324 40.0492 77.9093 40.32 78.0632C40.5939 78.214 40.8032 78.3864 40.9479 78.5803C41.0956 78.7711 41.2095 78.928 41.2895 79.0511H41.4003V77.9247H42.4528V85.2188C42.4528 85.8281 42.3143 86.3236 42.0374 86.7053C41.7634 87.09 41.3941 87.3716 40.9294 87.5501C40.4678 87.7317 39.9538 87.8224 39.3875 87.8224ZM39.3506 83.9261C39.7876 83.9261 40.1569 83.8261 40.4585 83.6261C40.7601 83.426 40.9894 83.1383 41.1464 82.7628C41.3033 82.3873 41.3818 81.938 41.3818 81.4148C41.3818 80.9039 41.3049 80.453 41.151 80.0621C40.9971 79.6713 40.7694 79.3651 40.4678 79.1435C40.1661 78.9219 39.7938 78.8111 39.3506 78.8111C38.8889 78.8111 38.5042 78.928 38.1964 79.1619C37.8918 79.3958 37.6625 79.7098 37.5086 80.1037C37.3578 80.4976 37.2824 80.9347 37.2824 81.4148C37.2824 81.9072 37.3593 82.3427 37.5132 82.7212C37.6702 83.0967 37.901 83.3922 38.2057 83.6076C38.5134 83.82 38.8951 83.9261 39.3506 83.9261Z" fill="#626A72"/>
<path d="M1.43608 115.016V104.834H4.99574C5.70502 104.834 6.29001 104.956 6.75071 105.202C7.21141 105.444 7.55445 105.77 7.77983 106.181C8.00521 106.589 8.1179 107.041 8.1179 107.538C8.1179 107.976 8.04001 108.337 7.88423 108.622C7.73177 108.907 7.52959 109.133 7.2777 109.298C7.02912 109.464 6.759 109.587 6.46733 109.666V109.766C6.77888 109.786 7.09209 109.895 7.40696 110.094C7.72183 110.293 7.98532 110.578 8.19744 110.949C8.40956 111.32 8.51562 111.774 8.51562 112.311C8.51562 112.821 8.39962 113.281 8.16761 113.688C7.93561 114.096 7.56937 114.419 7.06889 114.658C6.56842 114.896 5.91714 115.016 5.11506 115.016H1.43608ZM2.66903 113.922H5.11506C5.92045 113.922 6.49219 113.766 6.83026 113.455C7.17164 113.14 7.34233 112.759 7.34233 112.311C7.34233 111.966 7.2545 111.648 7.07884 111.357C6.90317 111.062 6.65294 110.826 6.32812 110.651C6.00331 110.472 5.61884 110.382 5.17472 110.382H2.66903V113.922ZM2.66903 109.308H4.95597C5.32718 109.308 5.66193 109.235 5.96023 109.089C6.26184 108.944 6.50047 108.738 6.67614 108.473C6.85511 108.208 6.9446 107.896 6.9446 107.538C6.9446 107.091 6.78883 106.711 6.47727 106.4C6.16572 106.085 5.67188 105.928 4.99574 105.928H2.66903V109.308ZM11.7558 104.834V115.016H10.5825V104.834H11.7558ZM17.207 115.175C16.5176 115.175 15.9127 115.011 15.3924 114.683C14.8753 114.354 14.471 113.895 14.1793 113.305C13.8909 112.715 13.7468 112.026 13.7468 111.237C13.7468 110.442 13.8909 109.747 14.1793 109.154C14.471 108.561 14.8753 108.1 15.3924 107.772C15.9127 107.444 16.5176 107.28 17.207 107.28C17.8964 107.28 18.4996 107.444 19.0167 107.772C19.537 108.1 19.9414 108.561 20.2297 109.154C20.5214 109.747 20.6672 110.442 20.6672 111.237C20.6672 112.026 20.5214 112.715 20.2297 113.305C19.9414 113.895 19.537 114.354 19.0167 114.683C18.4996 115.011 17.8964 115.175 17.207 115.175ZM17.207 114.121C17.7307 114.121 18.1615 113.987 18.4996 113.718C18.8377 113.45 19.0879 113.097 19.2503 112.659C19.4127 112.222 19.4939 111.748 19.4939 111.237C19.4939 110.727 19.4127 110.251 19.2503 109.81C19.0879 109.37 18.8377 109.013 18.4996 108.741C18.1615 108.47 17.7307 108.334 17.207 108.334C16.6833 108.334 16.2524 108.47 15.9144 108.741C15.5763 109.013 15.3261 109.37 15.1637 109.81C15.0013 110.251 14.9201 110.727 14.9201 111.237C14.9201 111.748 15.0013 112.222 15.1637 112.659C15.3261 113.097 15.5763 113.45 15.9144 113.718C16.2524 113.987 16.6833 114.121 17.207 114.121ZM25.7406 118.038C25.1739 118.038 24.6866 117.965 24.279 117.82C23.8713 117.677 23.5316 117.488 23.2598 117.253C22.9913 117.021 22.7776 116.772 22.6185 116.507L23.5531 115.851C23.6592 115.99 23.7934 116.149 23.9558 116.328C24.1182 116.51 24.3403 116.668 24.622 116.8C24.9071 116.936 25.2799 117.004 25.7406 117.004C26.3571 117.004 26.8659 116.855 27.2669 116.557C27.6679 116.259 27.8685 115.791 27.8685 115.155V113.604H27.769C27.6829 113.743 27.5602 113.915 27.4011 114.121C27.2454 114.323 27.02 114.504 26.725 114.663C26.4333 114.818 26.0389 114.896 25.5418 114.896C24.9253 114.896 24.3718 114.75 23.8813 114.459C23.394 114.167 23.0079 113.743 22.7229 113.186C22.4411 112.629 22.3003 111.953 22.3003 111.158C22.3003 110.375 22.4378 109.694 22.7129 109.114C22.988 108.531 23.3708 108.08 23.8614 107.762C24.3519 107.441 24.9187 107.28 25.5616 107.28C26.0588 107.28 26.4532 107.363 26.7449 107.528C27.0399 107.691 27.2652 107.876 27.421 108.085C27.5801 108.291 27.7027 108.46 27.7889 108.592H27.9082V107.379H29.0418V115.234C29.0418 115.891 28.8926 116.424 28.5943 116.835C28.2993 117.25 27.9016 117.553 27.4011 117.745C26.904 117.941 26.3505 118.038 25.7406 118.038ZM25.7009 113.842C26.1715 113.842 26.5692 113.735 26.894 113.519C27.2188 113.304 27.4658 112.994 27.6348 112.589C27.8038 112.185 27.8884 111.701 27.8884 111.138C27.8884 110.588 27.8055 110.102 27.6398 109.681C27.4741 109.26 27.2288 108.93 26.904 108.692C26.5792 108.453 26.1781 108.334 25.7009 108.334C25.2037 108.334 24.7894 108.46 24.458 108.712C24.1298 108.964 23.8829 109.302 23.7172 109.726C23.5548 110.15 23.4736 110.621 23.4736 111.138C23.4736 111.668 23.5564 112.137 23.7222 112.545C23.8912 112.949 24.1398 113.267 24.4679 113.499C24.7993 113.728 25.2103 113.842 25.7009 113.842Z" fill="#626A72"/>
<path d="M7.00426 137.379C6.9446 136.875 6.70265 136.484 6.27841 136.206C5.85417 135.928 5.33381 135.788 4.71733 135.788C4.26657 135.788 3.87216 135.861 3.53409 136.007C3.19934 136.153 2.9375 136.353 2.74858 136.609C2.56297 136.864 2.47017 137.154 2.47017 137.479C2.47017 137.75 2.5348 137.984 2.66406 138.18C2.79664 138.372 2.96567 138.533 3.17116 138.662C3.37666 138.788 3.59209 138.892 3.81747 138.975C4.04285 139.055 4.25 139.119 4.43892 139.169L5.47301 139.447C5.73816 139.517 6.03314 139.613 6.35795 139.736C6.68608 139.858 6.99929 140.026 7.29759 140.238C7.5992 140.447 7.84777 140.715 8.04332 141.043C8.23887 141.371 8.33665 141.774 8.33665 142.251C8.33665 142.802 8.19247 143.299 7.90412 143.743C7.61908 144.187 7.20147 144.54 6.65128 144.802C6.1044 145.064 5.43987 145.195 4.65767 145.195C3.9285 145.195 3.29711 145.077 2.76349 144.842C2.23319 144.606 1.81558 144.278 1.51065 143.857C1.20904 143.436 1.03835 142.947 0.99858 142.391H2.27131C2.30445 142.775 2.43371 143.093 2.65909 143.345C2.88778 143.594 3.17614 143.779 3.52415 143.902C3.87547 144.021 4.25331 144.081 4.65767 144.081C5.12831 144.081 5.5509 144.005 5.92543 143.852C6.29995 143.696 6.59659 143.481 6.81534 143.206C7.03409 142.928 7.14347 142.603 7.14347 142.232C7.14347 141.893 7.04901 141.618 6.86009 141.406C6.67116 141.194 6.42259 141.022 6.11435 140.889C5.80611 140.757 5.47301 140.641 5.11506 140.541L3.86222 140.183C3.06676 139.955 2.43703 139.628 1.97301 139.204C1.509 138.78 1.27699 138.224 1.27699 137.538C1.27699 136.968 1.43111 136.471 1.73935 136.047C2.0509 135.619 2.46851 135.288 2.99219 135.053C3.51918 134.814 4.10748 134.695 4.7571 134.695C5.41335 134.695 5.99669 134.812 6.5071 135.048C7.01752 135.28 7.42188 135.598 7.72017 136.002C8.02178 136.406 8.18087 136.866 8.19744 137.379H7.00426ZM15.2172 141.893V137.379H16.3905V145.016H15.2172V143.723H15.1377C14.9587 144.111 14.6803 144.441 14.3025 144.712C13.9246 144.981 13.4473 145.115 12.8706 145.115C12.3934 145.115 11.9691 145.011 11.5979 144.802C11.2267 144.59 10.935 144.272 10.7229 143.847C10.5108 143.42 10.4047 142.881 10.4047 142.232V137.379H11.578V142.152C11.578 142.709 11.7338 143.153 12.0453 143.484C12.3602 143.816 12.7613 143.982 13.2485 143.982C13.5401 143.982 13.8368 143.907 14.1384 143.758C14.4433 143.609 14.6985 143.38 14.904 143.072C15.1128 142.763 15.2172 142.371 15.2172 141.893ZM18.7395 147.879V137.379H19.873V138.592H20.0122C20.0984 138.46 20.2177 138.291 20.3702 138.085C20.5259 137.876 20.748 137.691 21.0364 137.528C21.328 137.363 21.7224 137.28 22.2196 137.28C22.8626 137.28 23.4294 137.441 23.9199 137.762C24.4104 138.084 24.7932 138.539 25.0683 139.129C25.3434 139.719 25.481 140.415 25.481 141.217C25.481 142.026 25.3434 142.727 25.0683 143.32C24.7932 143.91 24.4121 144.368 23.9249 144.692C23.4376 145.014 22.8759 145.175 22.2395 145.175C21.749 145.175 21.3562 145.094 21.0612 144.931C20.7662 144.765 20.5392 144.578 20.3801 144.369C20.221 144.157 20.0984 143.982 20.0122 143.842H19.9128V147.879H18.7395ZM19.8929 141.197C19.8929 141.774 19.9774 142.283 20.1464 142.724C20.3155 143.161 20.5624 143.504 20.8872 143.753C21.212 143.998 21.6098 144.121 22.0804 144.121C22.5709 144.121 22.9803 143.991 23.3084 143.733C23.6398 143.471 23.8884 143.12 24.0541 142.679C24.2232 142.235 24.3077 141.741 24.3077 141.197C24.3077 140.661 24.2248 140.177 24.0591 139.746C23.8967 139.312 23.6498 138.969 23.3183 138.717C22.9902 138.461 22.5776 138.334 22.0804 138.334C21.6031 138.334 21.2021 138.455 20.8773 138.697C20.5525 138.935 20.3072 139.27 20.1415 139.701C19.9758 140.129 19.8929 140.627 19.8929 141.197ZM27.4707 147.879V137.379H28.6043V138.592H28.7435C28.8296 138.46 28.949 138.291 29.1014 138.085C29.2572 137.876 29.4793 137.691 29.7676 137.528C30.0593 137.363 30.4537 137.28 30.9509 137.28C31.5938 137.28 32.1606 137.441 32.6511 137.762C33.1417 138.084 33.5245 138.539 33.7996 139.129C34.0747 139.719 34.2122 140.415 34.2122 141.217C34.2122 142.026 34.0747 142.727 33.7996 143.32C33.5245 143.91 33.1433 144.368 32.6561 144.692C32.1689 145.014 31.6071 145.175 30.9707 145.175C30.4802 145.175 30.0875 145.094 29.7925 144.931C29.4975 144.765 29.2705 144.578 29.1114 144.369C28.9523 144.157 28.8296 143.982 28.7435 143.842H28.644V147.879H27.4707ZM28.6241 141.197C28.6241 141.774 28.7087 142.283 28.8777 142.724C29.0467 143.161 29.2937 143.504 29.6185 143.753C29.9433 143.998 30.341 144.121 30.8116 144.121C31.3022 144.121 31.7115 143.991 32.0396 143.733C32.3711 143.471 32.6197 143.12 32.7854 142.679C32.9544 142.235 33.0389 141.741 33.0389 141.197C33.0389 140.661 32.9561 140.177 32.7903 139.746C32.6279 139.312 32.381 138.969 32.0496 138.717C31.7214 138.461 31.3088 138.334 30.8116 138.334C30.3344 138.334 29.9333 138.455 29.6085 138.697C29.2837 138.935 29.0384 139.27 28.8727 139.701C28.707 140.129 28.6241 140.627 28.6241 141.197ZM39.3043 145.175C38.6149 145.175 38.01 145.011 37.4896 144.683C36.9726 144.354 36.5682 143.895 36.2766 143.305C35.9882 142.715 35.844 142.026 35.844 141.237C35.844 140.442 35.9882 139.747 36.2766 139.154C36.5682 138.561 36.9726 138.1 37.4896 137.772C38.01 137.444 38.6149 137.28 39.3043 137.28C39.9937 137.28 40.5969 137.444 41.1139 137.772C41.6343 138.1 42.0386 138.561 42.327 139.154C42.6187 139.747 42.7645 140.442 42.7645 141.237C42.7645 142.026 42.6187 142.715 42.327 143.305C42.0386 143.895 41.6343 144.354 41.1139 144.683C40.5969 145.011 39.9937 145.175 39.3043 145.175ZM39.3043 144.121C39.8279 144.121 40.2588 143.987 40.5969 143.718C40.9349 143.45 41.1852 143.097 41.3476 142.659C41.51 142.222 41.5912 141.748 41.5912 141.237C41.5912 140.727 41.51 140.251 41.3476 139.81C41.1852 139.37 40.9349 139.013 40.5969 138.741C40.2588 138.47 39.8279 138.334 39.3043 138.334C38.7806 138.334 38.3497 138.47 38.0116 138.741C37.6736 139.013 37.4233 139.37 37.2609 139.81C37.0985 140.251 37.0173 140.727 37.0173 141.237C37.0173 141.748 37.0985 142.222 37.2609 142.659C37.4233 143.097 37.6736 143.45 38.0116 143.718C38.3497 143.987 38.7806 144.121 39.3043 144.121ZM44.7555 145.016V137.379H45.889V138.533H45.9686C46.1078 138.155 46.3597 137.848 46.7243 137.613C47.0888 137.378 47.4998 137.26 47.9572 137.26C48.0434 137.26 48.1511 137.262 48.2804 137.265C48.4096 137.268 48.5074 137.273 48.5737 137.28V138.473C48.5339 138.463 48.4428 138.448 48.3002 138.428C48.161 138.405 48.0136 138.393 47.8578 138.393C47.4866 138.393 47.1551 138.471 46.8635 138.627C46.5751 138.78 46.3464 138.992 46.1774 139.263C46.0117 139.532 45.9288 139.839 45.9288 140.183V145.016H44.7555ZM53.964 137.379V138.374H50.0066V137.379H53.964ZM51.1601 135.55H52.3333V142.828C52.3333 143.16 52.3814 143.408 52.4775 143.574C52.577 143.736 52.7029 143.846 52.8554 143.902C53.0111 143.955 53.1752 143.982 53.3476 143.982C53.4768 143.982 53.5829 143.975 53.6657 143.962C53.7486 143.945 53.8149 143.932 53.8646 143.922L54.1032 144.976C54.0237 145.006 53.9127 145.036 53.7701 145.065C53.6276 145.098 53.447 145.115 53.2282 145.115C52.8968 145.115 52.572 145.044 52.2538 144.901C51.9389 144.759 51.6771 144.542 51.4683 144.25C51.2628 143.958 51.1601 143.59 51.1601 143.146V135.55Z" fill="#626A72"/>
<path d="M0.879261 165.928V164.834H8.51562V165.928H5.31392V175.016H4.08097V165.928H0.879261ZM12.5537 175.175C11.8179 175.175 11.1832 175.012 10.6496 174.688C10.1193 174.359 9.70994 173.902 9.42159 173.315C9.13655 172.725 8.99403 172.039 8.99403 171.257C8.99403 170.475 9.13655 169.786 9.42159 169.189C9.70994 168.589 10.111 168.122 10.6247 167.787C11.1418 167.449 11.745 167.28 12.4344 167.28C12.8321 167.28 13.2249 167.346 13.6126 167.479C14.0004 167.611 14.3534 167.827 14.6716 168.125C14.9898 168.42 15.2433 168.811 15.4322 169.298C15.6212 169.786 15.7156 170.385 15.7156 171.098V171.595H9.82926V170.581H14.5224C14.5224 170.15 14.4363 169.766 14.2639 169.428C14.0949 169.089 13.8529 168.823 13.5381 168.627C13.2265 168.432 12.8586 168.334 12.4344 168.334C11.967 168.334 11.5627 168.45 11.2213 168.682C10.8832 168.911 10.6231 169.209 10.4408 169.577C10.2585 169.945 10.1673 170.339 10.1673 170.76V171.436C10.1673 172.013 10.2668 172.502 10.4656 172.903C10.6678 173.3 10.9479 173.604 11.3058 173.812C11.6638 174.018 12.0797 174.121 12.5537 174.121C12.8619 174.121 13.1403 174.078 13.3889 173.991C13.6408 173.902 13.8579 173.769 14.0402 173.594C14.2225 173.415 14.3634 173.193 14.4628 172.928L15.5963 173.246C15.477 173.63 15.2765 173.968 14.9947 174.26C14.713 174.548 14.365 174.774 13.9507 174.936C13.5364 175.095 13.0707 175.175 12.5537 175.175ZM17.7004 175.016V167.379H18.8339V168.533H18.9135C19.0527 168.155 19.3046 167.848 19.6692 167.613C20.0338 167.378 20.4447 167.26 20.9021 167.26C20.9883 167.26 21.096 167.262 21.2253 167.265C21.3545 167.268 21.4523 167.273 21.5186 167.28V168.473C21.4788 168.463 21.3877 168.448 21.2452 168.428C21.106 168.405 20.9585 168.393 20.8027 168.393C20.4315 168.393 20.1 168.471 19.8084 168.627C19.52 168.78 19.2913 168.992 19.1223 169.263C18.9566 169.532 18.8737 169.839 18.8737 170.183V175.016H17.7004ZM23.1094 175.016V167.379H24.2429V168.572H24.3424C24.5015 168.165 24.7583 167.848 25.113 167.623C25.4676 167.394 25.8935 167.28 26.3907 167.28C26.8944 167.28 27.3137 167.394 27.6485 167.623C27.9865 167.848 28.25 168.165 28.439 168.572H28.5185C28.7141 168.178 29.0074 167.865 29.3985 167.633C29.7896 167.397 30.2586 167.28 30.8054 167.28C31.4882 167.28 32.0467 167.494 32.4809 167.921C32.915 168.345 33.1321 169.007 33.1321 169.905V175.016H31.9588V169.905C31.9588 169.341 31.8047 168.939 31.4965 168.697C31.1882 168.455 30.8253 168.334 30.4077 168.334C29.8708 168.334 29.4548 168.496 29.1598 168.821C28.8649 169.143 28.7174 169.55 28.7174 170.044V175.016H27.5242V169.786C27.5242 169.351 27.3833 169.002 27.1016 168.737C26.8199 168.468 26.4569 168.334 26.0128 168.334C25.7079 168.334 25.4229 168.415 25.1577 168.577C24.8959 168.74 24.6837 168.965 24.5213 169.254C24.3623 169.539 24.2827 169.868 24.2827 170.243V175.016H23.1094ZM40.8865 169.089L39.8325 169.388C39.7662 169.212 39.6684 169.041 39.5392 168.876C39.4132 168.707 39.2409 168.567 39.0221 168.458C38.8034 168.349 38.5233 168.294 38.1819 168.294C37.7146 168.294 37.3252 168.402 37.0136 168.617C36.7054 168.829 36.5512 169.099 36.5512 169.428C36.5512 169.719 36.6573 169.95 36.8694 170.119C37.0815 170.288 37.413 170.429 37.8637 170.541L38.9973 170.82C39.68 170.985 40.1888 171.239 40.5235 171.58C40.8583 171.918 41.0257 172.354 41.0257 172.888C41.0257 173.325 40.8997 173.716 40.6478 174.061C40.3993 174.406 40.0512 174.678 39.6038 174.876C39.1564 175.075 38.636 175.175 38.0427 175.175C37.2638 175.175 36.6192 175.006 36.1088 174.668C35.5984 174.33 35.2752 173.836 35.1393 173.186L36.2529 172.908C36.359 173.319 36.5595 173.627 36.8545 173.832C37.1528 174.038 37.5422 174.141 38.0228 174.141C38.5697 174.141 39.0039 174.025 39.3254 173.793C39.6502 173.557 39.8126 173.276 39.8126 172.947C39.8126 172.682 39.7198 172.46 39.5342 172.281C39.3486 172.099 39.0636 171.963 38.6791 171.874L37.4064 171.575C36.707 171.41 36.1933 171.153 35.8652 170.805C35.5404 170.453 35.3779 170.014 35.3779 169.487C35.3779 169.056 35.4989 168.675 35.7409 168.344C35.9861 168.012 36.3192 167.752 36.7402 167.563C37.1644 167.374 37.645 167.28 38.1819 167.28C38.9376 167.28 39.5309 167.446 39.9618 167.777C40.3959 168.108 40.7042 168.546 40.8865 169.089ZM50.0129 175.155C49.3433 175.155 48.7666 175.032 48.2827 174.787C47.7988 174.542 47.426 174.205 47.1641 173.778C46.9023 173.35 46.7714 172.861 46.7714 172.311C46.7714 171.887 46.8609 171.511 47.0398 171.183C47.2221 170.851 47.4724 170.545 47.7906 170.263C48.1121 169.978 48.4816 169.693 48.8992 169.408L50.3708 168.314C50.6592 168.125 50.8895 167.923 51.0619 167.707C51.2375 167.492 51.3254 167.21 51.3254 166.862C51.3254 166.604 51.211 166.353 50.9823 166.112C50.7569 165.87 50.4603 165.749 50.0924 165.749C49.8339 165.749 49.6052 165.815 49.4063 165.947C49.2108 166.077 49.0567 166.242 48.944 166.445C48.8346 166.643 48.7799 166.849 48.7799 167.061C48.7799 167.3 48.8445 167.542 48.9738 167.787C49.1064 168.029 49.2737 168.277 49.4759 168.533C49.6814 168.785 49.8935 169.043 50.1123 169.308L54.7856 175.016H53.3737L49.5157 170.362C49.1577 169.931 48.8329 169.54 48.5413 169.189C48.2496 168.838 48.0176 168.491 47.8452 168.15C47.6729 167.808 47.5867 167.439 47.5867 167.041C47.5867 166.584 47.6878 166.183 47.89 165.838C48.0955 165.49 48.3822 165.22 48.7501 165.028C49.1213 164.832 49.5555 164.734 50.0526 164.734C50.563 164.734 51.0022 164.834 51.3701 165.033C51.738 165.228 52.0214 165.488 52.2202 165.813C52.4191 166.135 52.5185 166.484 52.5185 166.862C52.5185 167.349 52.3976 167.772 52.1556 168.13C51.9137 168.488 51.5839 168.821 51.1663 169.129L49.1379 170.641C48.6805 170.979 48.3706 171.307 48.2082 171.625C48.0458 171.943 47.9646 172.172 47.9646 172.311C47.9646 172.629 48.0474 172.926 48.2131 173.201C48.3789 173.476 48.6125 173.698 48.9141 173.867C49.2157 174.036 49.5687 174.121 49.9731 174.121C50.3576 174.121 50.7321 174.04 51.0967 173.877C51.4612 173.711 51.791 173.473 52.086 173.161C52.3843 172.85 52.6196 172.475 52.792 172.038C52.9676 171.6 53.0555 171.108 53.0555 170.561H54.189C54.189 171.237 54.1111 171.789 53.9553 172.217C53.7996 172.644 53.6239 172.979 53.4283 173.221C53.2328 173.463 53.0754 173.643 52.956 173.763C52.9163 173.812 52.8798 173.862 52.8467 173.912C52.8135 173.962 52.7771 174.011 52.7373 174.061C52.4092 174.429 51.9949 174.704 51.4944 174.886C50.9939 175.065 50.5001 175.155 50.0129 175.155ZM68.7742 168.016H67.5412C67.4683 167.661 67.3407 167.349 67.1584 167.081C66.9794 166.812 66.7607 166.587 66.5022 166.405C66.247 166.219 65.9636 166.08 65.652 165.987C65.3405 165.894 65.0157 165.848 64.6776 165.848C64.0611 165.848 63.5026 166.004 63.0022 166.315C62.505 166.627 62.1089 167.086 61.814 167.692C61.5223 168.299 61.3765 169.043 61.3765 169.925C61.3765 170.806 61.5223 171.55 61.814 172.157C62.1089 172.763 62.505 173.223 63.0022 173.534C63.5026 173.846 64.0611 174.001 64.6776 174.001C65.0157 174.001 65.3405 173.955 65.652 173.862C65.9636 173.769 66.247 173.632 66.5022 173.45C66.7607 173.264 66.9794 173.037 67.1584 172.768C67.3407 172.497 67.4683 172.185 67.5412 171.834H68.7742C68.6814 172.354 68.5123 172.82 68.2671 173.231C68.0218 173.642 67.7169 173.991 67.3523 174.28C66.9877 174.565 66.5784 174.782 66.1243 174.931C65.6736 175.08 65.1913 175.155 64.6776 175.155C63.8092 175.155 63.037 174.943 62.3608 174.518C61.6847 174.094 61.1527 173.491 60.7649 172.709C60.3772 171.927 60.1833 170.999 60.1833 169.925C60.1833 168.851 60.3772 167.923 60.7649 167.141C61.1527 166.358 61.6847 165.755 62.3608 165.331C63.037 164.907 63.8092 164.695 64.6776 164.695C65.1913 164.695 65.6736 164.769 66.1243 164.918C66.5784 165.067 66.9877 165.286 67.3523 165.575C67.7169 165.86 68.0218 166.208 68.2671 166.619C68.5123 167.026 68.6814 167.492 68.7742 168.016ZM73.9097 175.175C73.2203 175.175 72.6155 175.011 72.0951 174.683C71.5781 174.354 71.1737 173.895 70.882 173.305C70.5937 172.715 70.4495 172.026 70.4495 171.237C70.4495 170.442 70.5937 169.747 70.882 169.154C71.1737 168.561 71.5781 168.1 72.0951 167.772C72.6155 167.444 73.2203 167.28 73.9097 167.28C74.5991 167.28 75.2023 167.444 75.7194 167.772C76.2398 168.1 76.6441 168.561 76.9325 169.154C77.2241 169.747 77.37 170.442 77.37 171.237C77.37 172.026 77.2241 172.715 76.9325 173.305C76.6441 173.895 76.2398 174.354 75.7194 174.683C75.2023 175.011 74.5991 175.175 73.9097 175.175ZM73.9097 174.121C74.4334 174.121 74.8643 173.987 75.2023 173.718C75.5404 173.45 75.7907 173.097 75.9531 172.659C76.1155 172.222 76.1967 171.748 76.1967 171.237C76.1967 170.727 76.1155 170.251 75.9531 169.81C75.7907 169.37 75.5404 169.013 75.2023 168.741C74.8643 168.47 74.4334 168.334 73.9097 168.334C73.3861 168.334 72.9552 168.47 72.6171 168.741C72.2791 169.013 72.0288 169.37 71.8664 169.81C71.704 170.251 71.6228 170.727 71.6228 171.237C71.6228 171.748 71.704 172.222 71.8664 172.659C72.0288 173.097 72.2791 173.45 72.6171 173.718C72.9552 173.987 73.3861 174.121 73.9097 174.121ZM80.5343 170.422V175.016H79.361V167.379H80.4945V168.572H80.5939C80.7729 168.185 81.0447 167.873 81.4093 167.638C81.7739 167.399 82.2445 167.28 82.8212 167.28C83.3382 167.28 83.7907 167.386 84.1784 167.598C84.5662 167.807 84.8678 168.125 85.0833 168.553C85.2987 168.977 85.4064 169.514 85.4064 170.163V175.016H84.2331V170.243C84.2331 169.643 84.0774 169.176 83.7658 168.841C83.4542 168.503 83.0267 168.334 82.4831 168.334C82.1086 168.334 81.7739 168.415 81.4789 168.577C81.1872 168.74 80.9569 168.977 80.7878 169.288C80.6188 169.6 80.5343 169.978 80.5343 170.422ZM90.6339 175.175C89.9976 175.175 89.4358 175.014 88.9486 174.692C88.4614 174.368 88.0802 173.91 87.8051 173.32C87.53 172.727 87.3925 172.026 87.3925 171.217C87.3925 170.415 87.53 169.719 87.8051 169.129C88.0802 168.539 88.463 168.084 88.9535 167.762C89.4441 167.441 90.0108 167.28 90.6538 167.28C91.151 167.28 91.5437 167.363 91.8321 167.528C92.1238 167.691 92.3458 167.876 92.4983 168.085C92.6541 168.291 92.775 168.46 92.8612 168.592H92.9607V164.834H94.1339V175.016H93.0004V173.842H92.8612C92.775 173.982 92.6524 174.157 92.4933 174.369C92.3342 174.578 92.1072 174.765 91.8122 174.931C91.5172 175.094 91.1245 175.175 90.6339 175.175ZM90.793 174.121C91.2637 174.121 91.6614 173.998 91.9862 173.753C92.311 173.504 92.558 173.161 92.727 172.724C92.896 172.283 92.9805 171.774 92.9805 171.197C92.9805 170.627 92.8977 170.129 92.732 169.701C92.5662 169.27 92.321 168.935 91.9962 168.697C91.6714 168.455 91.2703 168.334 90.793 168.334C90.2959 168.334 89.8816 168.461 89.5501 168.717C89.222 168.969 88.9751 169.312 88.8094 169.746C88.647 170.177 88.5658 170.661 88.5658 171.197C88.5658 171.741 88.6486 172.235 88.8143 172.679C88.9834 173.12 89.232 173.471 89.5601 173.733C89.8915 173.991 90.3025 174.121 90.793 174.121ZM96.6457 175.016V167.379H97.819V175.016H96.6457ZM97.2423 166.107C97.0136 166.107 96.8164 166.029 96.6507 165.873C96.4883 165.717 96.4071 165.53 96.4071 165.311C96.4071 165.092 96.4883 164.905 96.6507 164.749C96.8164 164.594 97.0136 164.516 97.2423 164.516C97.471 164.516 97.6666 164.594 97.829 164.749C97.9947 164.905 98.0776 165.092 98.0776 165.311C98.0776 165.53 97.9947 165.717 97.829 165.873C97.6666 166.029 97.471 166.107 97.2423 166.107ZM103.489 167.379V168.374H99.5316V167.379H103.489ZM100.685 165.55H101.858V172.828C101.858 173.16 101.906 173.408 102.003 173.574C102.102 173.736 102.228 173.846 102.38 173.902C102.536 173.955 102.7 173.982 102.873 173.982C103.002 173.982 103.108 173.975 103.191 173.962C103.274 173.945 103.34 173.932 103.39 173.922L103.628 174.976C103.549 175.006 103.438 175.036 103.295 175.065C103.153 175.098 102.972 175.115 102.753 175.115C102.422 175.115 102.097 175.044 101.779 174.901C101.464 174.759 101.202 174.542 100.993 174.25C100.788 173.958 100.685 173.59 100.685 173.146V165.55ZM105.454 175.016V167.379H106.627V175.016H105.454ZM106.051 166.107C105.822 166.107 105.625 166.029 105.459 165.873C105.297 165.717 105.215 165.53 105.215 165.311C105.215 165.092 105.297 164.905 105.459 164.749C105.625 164.594 105.822 164.516 106.051 164.516C106.279 164.516 106.475 164.594 106.637 164.749C106.803 164.905 106.886 165.092 106.886 165.311C106.886 165.53 106.803 165.717 106.637 165.873C106.475 166.029 106.279 166.107 106.051 166.107ZM112.078 175.175C111.389 175.175 110.784 175.011 110.264 174.683C109.747 174.354 109.342 173.895 109.051 173.305C108.762 172.715 108.618 172.026 108.618 171.237C108.618 170.442 108.762 169.747 109.051 169.154C109.342 168.561 109.747 168.1 110.264 167.772C110.784 167.444 111.389 167.28 112.078 167.28C112.768 167.28 113.371 167.444 113.888 167.772C114.408 168.1 114.813 168.561 115.101 169.154C115.393 169.747 115.539 170.442 115.539 171.237C115.539 172.026 115.393 172.715 115.101 173.305C114.813 173.895 114.408 174.354 113.888 174.683C113.371 175.011 112.768 175.175 112.078 175.175ZM112.078 174.121C112.602 174.121 113.033 173.987 113.371 173.718C113.709 173.45 113.959 173.097 114.122 172.659C114.284 172.222 114.365 171.748 114.365 171.237C114.365 170.727 114.284 170.251 114.122 169.81C113.959 169.37 113.709 169.013 113.371 168.741C113.033 168.47 112.602 168.334 112.078 168.334C111.555 168.334 111.124 168.47 110.786 168.741C110.448 169.013 110.198 169.37 110.035 169.81C109.873 170.251 109.792 170.727 109.792 171.237C109.792 171.748 109.873 172.222 110.035 172.659C110.198 173.097 110.448 173.45 110.786 173.718C111.124 173.987 111.555 174.121 112.078 174.121ZM118.703 170.422V175.016H117.53V167.379H118.663V168.572H118.763C118.942 168.185 119.213 167.873 119.578 167.638C119.943 167.399 120.413 167.28 120.99 167.28C121.507 167.28 121.959 167.386 122.347 167.598C122.735 167.807 123.037 168.125 123.252 168.553C123.467 168.977 123.575 169.514 123.575 170.163V175.016H122.402V170.243C122.402 169.643 122.246 169.176 121.935 168.841C121.623 168.503 121.195 168.334 120.652 168.334C120.277 168.334 119.943 168.415 119.648 168.577C119.356 168.74 119.126 168.977 118.957 169.288C118.788 169.6 118.703 169.978 118.703 170.422ZM131.328 169.089L130.274 169.388C130.208 169.212 130.11 169.041 129.981 168.876C129.855 168.707 129.683 168.567 129.464 168.458C129.245 168.349 128.965 168.294 128.624 168.294C128.156 168.294 127.767 168.402 127.455 168.617C127.147 168.829 126.993 169.099 126.993 169.428C126.993 169.719 127.099 169.95 127.311 170.119C127.523 170.288 127.855 170.429 128.306 170.541L129.439 170.82C130.122 170.985 130.631 171.239 130.965 171.58C131.3 171.918 131.467 172.354 131.467 172.888C131.467 173.325 131.342 173.716 131.09 174.061C130.841 174.406 130.493 174.678 130.046 174.876C129.598 175.075 129.078 175.175 128.485 175.175C127.706 175.175 127.061 175.006 126.551 174.668C126.04 174.33 125.717 173.836 125.581 173.186L126.695 172.908C126.801 173.319 127.001 173.627 127.296 173.832C127.595 174.038 127.984 174.141 128.465 174.141C129.012 174.141 129.446 174.025 129.767 173.793C130.092 173.557 130.254 173.276 130.254 172.947C130.254 172.682 130.162 172.46 129.976 172.281C129.79 172.099 129.505 171.963 129.121 171.874L127.848 171.575C127.149 171.41 126.635 171.153 126.307 170.805C125.982 170.453 125.82 170.014 125.82 169.487C125.82 169.056 125.941 168.675 126.183 168.344C126.428 168.012 126.761 167.752 127.182 167.563C127.606 167.374 128.087 167.28 128.624 167.28C129.379 167.28 129.973 167.446 130.404 167.777C130.838 168.108 131.146 168.546 131.328 169.089Z" fill="#626A72"/>
<path d="M1.34801 205.016V195.561H4.54261C5.28433 195.561 5.89063 195.695 6.36151 195.963C6.83546 196.227 7.18632 196.586 7.41406 197.038C7.64181 197.491 7.75568 197.996 7.75568 198.553C7.75568 199.11 7.64181 199.616 7.41406 200.071C7.18939 200.527 6.84162 200.89 6.37074 201.161C5.89986 201.429 5.29664 201.562 4.56108 201.562H2.27131V200.547H4.52415C5.03196 200.547 5.43975 200.459 5.74751 200.284C6.05528 200.108 6.27841 199.871 6.4169 199.573C6.55848 199.271 6.62926 198.931 6.62926 198.553C6.62926 198.174 6.55848 197.835 6.4169 197.537C6.27841 197.238 6.05374 197.004 5.7429 196.835C5.43206 196.663 5.01965 196.577 4.50568 196.577H2.4929V205.016H1.34801ZM9.65224 205.016V197.925H10.7048V198.996H10.7787C10.9079 198.645 11.1418 198.36 11.4804 198.142C11.8189 197.923 12.2005 197.814 12.6252 197.814C12.7053 197.814 12.8053 197.815 12.9253 197.819C13.0453 197.822 13.1361 197.826 13.1977 197.832V198.94C13.1608 198.931 13.0761 198.917 12.9438 198.899C12.8145 198.877 12.6776 198.866 12.5329 198.866C12.1882 198.866 11.8805 198.939 11.6096 199.083C11.3419 199.225 11.1295 199.422 10.9725 199.674C10.8187 199.924 10.7417 200.208 10.7417 200.528V205.016H9.65224ZM14.6892 205.016V197.925H15.7786V205.016H14.6892ZM15.2431 196.743C15.0308 196.743 14.8476 196.671 14.6938 196.526C14.543 196.381 14.4676 196.207 14.4676 196.004C14.4676 195.801 14.543 195.627 14.6938 195.483C14.8476 195.338 15.0308 195.266 15.2431 195.266C15.4555 195.266 15.6371 195.338 15.7879 195.483C15.9418 195.627 16.0187 195.801 16.0187 196.004C16.0187 196.207 15.9418 196.381 15.7879 196.526C15.6371 196.671 15.4555 196.743 15.2431 196.743ZM23.7724 197.925L21.1502 205.016H20.0423L17.4201 197.925H18.602L20.5593 203.575H20.6332L22.5906 197.925H23.7724ZM27.2813 205.182C26.8319 205.182 26.4241 205.097 26.0579 204.928C25.6917 204.756 25.4008 204.508 25.1854 204.185C24.97 203.858 24.8622 203.464 24.8622 203.003C24.8622 202.597 24.9423 202.267 25.1023 202.015C25.2623 201.759 25.4762 201.559 25.744 201.415C26.0117 201.27 26.3072 201.162 26.6303 201.092C26.9566 201.018 27.2843 200.959 27.6137 200.916C28.0445 200.861 28.3938 200.819 28.6616 200.792C28.9324 200.761 29.1294 200.71 29.2525 200.639C29.3787 200.568 29.4418 200.445 29.4418 200.27V200.233C29.4418 199.777 29.3171 199.424 29.0678 199.171C28.8216 198.919 28.4477 198.793 27.946 198.793C27.4259 198.793 27.0181 198.906 26.7227 199.134C26.4272 199.362 26.2195 199.605 26.0994 199.864L25.0654 199.494C25.25 199.063 25.4962 198.728 25.804 198.488C26.1148 198.245 26.4534 198.076 26.8196 197.98C27.1889 197.882 27.5521 197.832 27.9091 197.832C28.1369 197.832 28.3985 197.86 28.6939 197.915C28.9924 197.968 29.2802 198.077 29.5572 198.243C29.8373 198.409 30.0696 198.66 30.2543 198.996C30.4389 199.331 30.5313 199.781 30.5313 200.344V205.016H29.4418V204.055H29.3864C29.3125 204.209 29.1894 204.374 29.0171 204.549C28.8447 204.725 28.6154 204.874 28.3292 204.997C28.043 205.12 27.6937 205.182 27.2813 205.182ZM27.4475 204.203C27.8783 204.203 28.2415 204.118 28.5369 203.949C28.8355 203.78 29.0601 203.561 29.211 203.294C29.3648 203.026 29.4418 202.744 29.4418 202.449V201.452C29.3956 201.507 29.2941 201.558 29.1371 201.604C28.9832 201.647 28.8047 201.686 28.6016 201.719C28.4015 201.75 28.2061 201.778 28.0153 201.803C27.8276 201.824 27.6752 201.843 27.5583 201.858C27.2751 201.895 27.0104 201.955 26.7642 202.038C26.5211 202.118 26.3241 202.24 26.1733 202.403C26.0256 202.563 25.9517 202.781 25.9517 203.058C25.9517 203.437 26.0918 203.723 26.3718 203.917C26.655 204.108 27.0135 204.203 27.4475 204.203ZM35.6005 205.163C34.9357 205.163 34.3633 205.006 33.8832 204.692C33.4031 204.379 33.0337 203.946 32.7752 203.395C32.5167 202.844 32.3874 202.215 32.3874 201.507C32.3874 200.787 32.5198 200.151 32.7844 199.6C33.0522 199.047 33.4246 198.614 33.9016 198.303C34.3817 197.989 34.9419 197.832 35.582 197.832C36.0806 197.832 36.5299 197.925 36.93 198.109C37.3301 198.294 37.6579 198.553 37.9134 198.885C38.1688 199.217 38.3273 199.605 38.3888 200.048H37.2994C37.2163 199.725 37.0316 199.439 36.7454 199.19C36.4622 198.937 36.0806 198.811 35.6005 198.811C35.1758 198.811 34.8034 198.922 34.4833 199.143C34.1663 199.362 33.9186 199.671 33.7401 200.071C33.5646 200.468 33.4769 200.935 33.4769 201.47C33.4769 202.018 33.5631 202.495 33.7354 202.901C33.9109 203.308 34.1571 203.623 34.4741 203.848C34.7942 204.072 35.1696 204.185 35.6005 204.185C35.8836 204.185 36.1406 204.135 36.3714 204.037C36.6023 203.938 36.7977 203.797 36.9577 203.612C37.1178 203.428 37.2317 203.206 37.2994 202.947H38.3888C38.3273 203.366 38.175 203.743 37.9318 204.078C37.6918 204.411 37.3732 204.676 36.9762 204.873C36.5823 205.066 36.1237 205.163 35.6005 205.163ZM40.8832 207.675C40.6986 207.675 40.5339 207.659 40.3893 207.629C40.2446 207.601 40.1446 207.573 40.0892 207.545L40.3662 206.585C40.6309 206.653 40.8648 206.678 41.0679 206.659C41.271 206.641 41.4511 206.55 41.608 206.387C41.7681 206.227 41.9143 205.967 42.0466 205.607L42.2497 205.053L39.6276 197.925H40.8094L42.7668 203.575H42.8406L44.798 197.925H45.9798L42.9699 206.05C42.8345 206.416 42.6667 206.719 42.4667 206.959C42.2666 207.202 42.0343 207.382 41.7696 207.499C41.508 207.616 41.2125 207.675 40.8832 207.675ZM51.6218 205.016V195.561H54.8164C55.5582 195.561 56.1645 195.695 56.6353 195.963C57.1093 196.227 57.4601 196.586 57.6879 197.038C57.9156 197.491 58.0295 197.996 58.0295 198.553C58.0295 199.11 57.9156 199.616 57.6879 200.071C57.4632 200.527 57.1154 200.89 56.6446 201.161C56.1737 201.429 55.5705 201.562 54.8349 201.562H52.5451V200.547H54.798C55.3058 200.547 55.7136 200.459 56.0213 200.284C56.3291 200.108 56.5522 199.871 56.6907 199.573C56.8323 199.271 56.9031 198.931 56.9031 198.553C56.9031 198.174 56.8323 197.835 56.6907 197.537C56.5522 197.238 56.3276 197.004 56.0167 196.835C55.7059 196.663 55.2935 196.577 54.7795 196.577H52.7667V205.016H51.6218ZM62.7306 205.163C62.0904 205.163 61.5288 205.011 61.0456 204.706C60.5654 204.402 60.19 203.975 59.9191 203.428C59.6514 202.88 59.5175 202.24 59.5175 201.507C59.5175 200.768 59.6514 200.124 59.9191 199.573C60.19 199.022 60.5654 198.594 61.0456 198.289C61.5288 197.985 62.0904 197.832 62.7306 197.832C63.3707 197.832 63.9309 197.985 64.411 198.289C64.8942 198.594 65.2696 199.022 65.5374 199.573C65.8082 200.124 65.9436 200.768 65.9436 201.507C65.9436 202.24 65.8082 202.88 65.5374 203.428C65.2696 203.975 64.8942 204.402 64.411 204.706C63.9309 205.011 63.3707 205.163 62.7306 205.163ZM62.7306 204.185C63.2168 204.185 63.6169 204.06 63.9309 203.811C64.2448 203.561 64.4771 203.234 64.6279 202.827C64.7788 202.421 64.8542 201.981 64.8542 201.507C64.8542 201.033 64.7788 200.592 64.6279 200.182C64.4771 199.773 64.2448 199.442 63.9309 199.19C63.6169 198.937 63.2168 198.811 62.7306 198.811C62.2443 198.811 61.8442 198.937 61.5303 199.19C61.2164 199.442 60.984 199.773 60.8332 200.182C60.6824 200.592 60.607 201.033 60.607 201.507C60.607 201.981 60.6824 202.421 60.8332 202.827C60.984 203.234 61.2164 203.561 61.5303 203.811C61.8442 204.06 62.2443 204.185 62.7306 204.185ZM68.8962 195.561V205.016H67.8067V195.561H68.8962ZM71.0917 205.016V197.925H72.1812V205.016H71.0917ZM71.6457 196.743C71.4333 196.743 71.2502 196.671 71.0963 196.526C70.9455 196.381 70.8701 196.207 70.8701 196.004C70.8701 195.801 70.9455 195.627 71.0963 195.483C71.2502 195.338 71.4333 195.266 71.6457 195.266C71.858 195.266 72.0396 195.338 72.1904 195.483C72.3443 195.627 72.4212 195.801 72.4212 196.004C72.4212 196.207 72.3443 196.381 72.1904 196.526C72.0396 196.671 71.858 196.743 71.6457 196.743ZM77.2573 205.163C76.5926 205.163 76.0201 205.006 75.54 204.692C75.0599 204.379 74.6906 203.946 74.4321 203.395C74.1735 202.844 74.0443 202.215 74.0443 201.507C74.0443 200.787 74.1766 200.151 74.4413 199.6C74.709 199.047 75.0814 198.614 75.5585 198.303C76.0386 197.989 76.5987 197.832 77.2389 197.832C77.7374 197.832 78.1868 197.925 78.5869 198.109C78.987 198.294 79.3147 198.553 79.5702 198.885C79.8256 199.217 79.9841 199.605 80.0457 200.048H78.9562C78.8731 199.725 78.6884 199.439 78.4022 199.19C78.1191 198.937 77.7374 198.811 77.2573 198.811C76.8326 198.811 76.4602 198.922 76.1401 199.143C75.8231 199.362 75.5754 199.671 75.3969 200.071C75.2215 200.468 75.1338 200.935 75.1338 201.47C75.1338 202.018 75.2199 202.495 75.3923 202.901C75.5677 203.308 75.8139 203.623 76.1309 203.848C76.451 204.072 76.8265 204.185 77.2573 204.185C77.5405 204.185 77.7975 204.135 78.0283 204.037C78.2591 203.938 78.4545 203.797 78.6146 203.612C78.7746 203.428 78.8885 203.206 78.9562 202.947H80.0457C79.9841 203.366 79.8318 203.743 79.5887 204.078C79.3486 204.411 79.0301 204.676 78.633 204.873C78.2391 205.066 77.7805 205.163 77.2573 205.163ZM82.5401 207.675C82.3554 207.675 82.1908 207.659 82.0461 207.629C81.9015 207.601 81.8014 207.573 81.746 207.545L82.023 206.585C82.2877 206.653 82.5216 206.678 82.7247 206.659C82.9279 206.641 83.1079 206.55 83.2649 206.387C83.4249 206.227 83.5711 205.967 83.7034 205.607L83.9066 205.053L81.2844 197.925H82.4662L84.4236 203.575H84.4975L86.4548 197.925H87.6367L84.6267 206.05C84.4913 206.416 84.3236 206.719 84.1235 206.959C83.9235 207.202 83.6911 207.382 83.4264 207.499C83.1648 207.616 82.8694 207.675 82.5401 207.675Z" fill="#626A72"/>
</svg>
