<svg width="143" height="38" viewBox="0 0 143 38" fill="none" xmlns="http://www.w3.org/2000/svg">
<path d="M1.23295 14V3.81818H4.79261C5.50189 3.81818 6.08688 3.94081 6.54759 4.18608C7.00829 4.42803 7.35133 4.7545 7.5767 5.16548C7.80208 5.57315 7.91477 6.02557 7.91477 6.52273C7.91477 6.96023 7.83688 7.3215 7.68111 7.60653C7.52865 7.89157 7.32647 8.11695 7.07457 8.28267C6.82599 8.44839 6.55587 8.57102 6.2642 8.65057V8.75C6.57576 8.76989 6.88897 8.87926 7.20384 9.07812C7.5187 9.27699 7.7822 9.56203 7.99432 9.93324C8.20644 10.3045 8.3125 10.7585 8.3125 11.2955C8.3125 11.8059 8.1965 12.2649 7.96449 12.6726C7.73248 13.0803 7.36624 13.4034 6.86577 13.642C6.36529 13.8807 5.71402 14 4.91193 14H1.23295ZM2.46591 12.9062H4.91193C5.71733 12.9062 6.28906 12.7505 6.62713 12.4389C6.96851 12.1241 7.1392 11.7429 7.1392 11.2955C7.1392 10.9508 7.05137 10.6326 6.87571 10.3409C6.70005 10.0459 6.44981 9.81061 6.125 9.63494C5.80019 9.45597 5.41572 9.36648 4.97159 9.36648H2.46591V12.9062ZM2.46591 8.29261H4.75284C5.12405 8.29261 5.45881 8.2197 5.7571 8.07386C6.05871 7.92803 6.29735 7.72254 6.47301 7.45739C6.65199 7.19223 6.74148 6.88068 6.74148 6.52273C6.74148 6.07528 6.5857 5.69579 6.27415 5.38423C5.9626 5.06937 5.46875 4.91193 4.79261 4.91193H2.46591V8.29261ZM15.1918 10.8778V6.36364H16.3651V14H15.1918V12.7074H15.1123C14.9333 13.0952 14.6549 13.425 14.2771 13.6967C13.8992 13.9652 13.4219 14.0994 12.8452 14.0994C12.368 14.0994 11.9437 13.995 11.5725 13.7862C11.2013 13.5741 10.9096 13.2559 10.6975 12.8317C10.4854 12.4041 10.3793 11.8655 10.3793 11.2159V6.36364H11.5526V11.1364C11.5526 11.6932 11.7084 12.1373 12.02 12.4688C12.3348 12.8002 12.7359 12.9659 13.2231 12.9659C13.5147 12.9659 13.8114 12.8913 14.113 12.7422C14.4179 12.593 14.6731 12.3643 14.8786 12.0561C15.0874 11.7479 15.1918 11.3551 15.1918 10.8778ZM18.7141 14V6.36364H19.8874V14H18.7141ZM19.3107 5.09091C19.082 5.09091 18.8848 5.01302 18.7191 4.85724C18.5567 4.70147 18.4755 4.5142 18.4755 4.29545C18.4755 4.0767 18.5567 3.88944 18.7191 3.73366C18.8848 3.57789 19.082 3.5 19.3107 3.5C19.5394 3.5 19.7349 3.57789 19.8973 3.73366C20.0631 3.88944 20.1459 4.0767 20.1459 4.29545C20.1459 4.5142 20.0631 4.70147 19.8973 4.85724C19.7349 5.01302 19.5394 5.09091 19.3107 5.09091ZM23.4097 3.81818V14H22.2364V3.81818H23.4097ZM29.0797 6.36364V7.35795H25.1223V6.36364H29.0797ZM26.2757 4.53409H27.449V11.8125C27.449 12.1439 27.497 12.3925 27.5931 12.5582C27.6926 12.7206 27.8185 12.83 27.971 12.8864C28.1268 12.9394 28.2908 12.9659 28.4632 12.9659C28.5924 12.9659 28.6985 12.9593 28.7814 12.946C28.8642 12.9295 28.9305 12.9162 28.9802 12.9062L29.2189 13.9602C29.1393 13.9901 29.0283 14.0199 28.8858 14.0497C28.7432 14.0829 28.5626 14.0994 28.3439 14.0994C28.0124 14.0994 27.6876 14.0282 27.3694 13.8857C27.0546 13.7431 26.7927 13.526 26.5839 13.2344C26.3784 12.9427 26.2757 12.5748 26.2757 12.1307V4.53409ZM35.3412 14V3.81818H36.5145V7.5767H36.6139C36.7001 7.44413 36.8194 7.27509 36.9718 7.0696C37.1276 6.8608 37.3497 6.67519 37.638 6.51278C37.9297 6.34706 38.3241 6.2642 38.8213 6.2642C39.4643 6.2642 40.031 6.42495 40.5216 6.74645C41.0121 7.06794 41.3949 7.52367 41.67 8.11364C41.9451 8.7036 42.0826 9.39962 42.0826 10.2017C42.0826 11.0104 41.9451 11.7114 41.67 12.3047C41.3949 12.8946 41.0137 13.352 40.5265 13.6768C40.0393 13.9983 39.4775 14.1591 38.8412 14.1591C38.3506 14.1591 37.9579 14.0779 37.6629 13.9155C37.3679 13.7498 37.1409 13.5625 36.9818 13.3537C36.8227 13.1416 36.7001 12.9659 36.6139 12.8267H36.4747V14H35.3412ZM36.4946 10.1818C36.4946 10.7585 36.5791 11.2673 36.7481 11.7081C36.9172 12.1456 37.1641 12.4886 37.4889 12.7372C37.8137 12.9825 38.2114 13.1051 38.6821 13.1051C39.1726 13.1051 39.5819 12.9759 39.9101 12.7173C40.2415 12.4555 40.4901 12.1042 40.6558 11.6634C40.8248 11.2192 40.9093 10.7254 40.9093 10.1818C40.9093 9.64489 40.8265 9.16098 40.6608 8.73011C40.4984 8.29593 40.2514 7.95289 39.92 7.70099C39.5919 7.44579 39.1792 7.31818 38.6821 7.31818C38.2048 7.31818 37.8038 7.43916 37.4789 7.68111C37.1541 7.91974 36.9089 8.2545 36.7431 8.68537C36.5774 9.11293 36.4946 9.61174 36.4946 10.1818ZM44.5596 16.8636C44.3608 16.8636 44.1834 16.8471 44.0277 16.8139C43.8719 16.7841 43.7642 16.7543 43.7045 16.7244L44.0028 15.6903C44.2878 15.7633 44.5397 15.7898 44.7585 15.7699C44.9772 15.75 45.1711 15.6522 45.3402 15.4766C45.5125 15.3042 45.6699 15.0241 45.8125 14.6364L46.0312 14.0398L43.2074 6.36364H44.4801L46.588 12.4489H46.6676L48.7755 6.36364H50.0483L46.8068 15.1136C46.661 15.508 46.4803 15.8345 46.2649 16.093C46.0494 16.3549 45.7992 16.5488 45.5142 16.6747C45.2324 16.8007 44.9143 16.8636 44.5596 16.8636Z" fill="#1F1F1F"/>
<path d="M126.929 14.0795C126.684 14.0795 126.473 13.9917 126.298 13.8161C126.122 13.6404 126.034 13.4299 126.034 13.1847C126.034 12.9394 126.122 12.7289 126.298 12.5533C126.473 12.3776 126.684 12.2898 126.929 12.2898C127.174 12.2898 127.385 12.3776 127.56 12.5533C127.736 12.7289 127.824 12.9394 127.824 13.1847C127.824 13.3471 127.782 13.4962 127.7 13.6321C127.62 13.768 127.512 13.8774 127.376 13.9602C127.244 14.0398 127.095 14.0795 126.929 14.0795Z" fill="#1F1F1F"/>
<path d="M86.8622 33L84.277 23.5455H85.4403L87.4162 31.2457H87.5085L89.5213 23.5455H90.8139L92.8267 31.2457H92.919L94.8949 23.5455H96.0582L93.473 33H92.2912L90.2045 25.4659H90.1307L88.044 33H86.8622ZM99.8499 33.1477C99.1666 33.1477 98.5772 32.9969 98.0817 32.6953C97.5893 32.3906 97.2092 31.9659 96.9415 31.4212C96.6768 30.8733 96.5445 30.2363 96.5445 29.5099C96.5445 28.7836 96.6768 28.1435 96.9415 27.5895C97.2092 27.0324 97.5816 26.5985 98.0587 26.2876C98.5388 25.9737 99.0989 25.8168 99.7391 25.8168C100.108 25.8168 100.473 25.8783 100.833 26.0014C101.193 26.1245 101.521 26.3246 101.816 26.6016C102.112 26.8755 102.347 27.2386 102.523 27.6911C102.698 28.1435 102.786 28.7005 102.786 29.3622V29.8239H97.32V28.8821H101.678C101.678 28.482 101.598 28.125 101.438 27.8111C101.281 27.4972 101.056 27.2494 100.764 27.0678C100.475 26.8862 100.133 26.7955 99.7391 26.7955C99.3051 26.7955 98.9296 26.9032 98.6126 27.1186C98.2987 27.331 98.0571 27.608 97.8879 27.9496C97.7186 28.2912 97.6339 28.6574 97.6339 29.0483V29.6761C97.6339 30.2116 97.7263 30.6656 97.9109 31.038C98.0987 31.4073 98.3587 31.6889 98.6911 31.8828C99.0235 32.0736 99.4098 32.169 99.8499 32.169C100.136 32.169 100.395 32.129 100.625 32.049C100.859 31.9659 101.061 31.8428 101.23 31.6797C101.399 31.5135 101.53 31.3073 101.623 31.0611L102.675 31.3565C102.564 31.7135 102.378 32.0275 102.117 32.2983C101.855 32.5661 101.532 32.7753 101.147 32.9261C100.762 33.0739 100.33 33.1477 99.8499 33.1477ZM104.791 33V23.5455H105.88V27.0355H105.973C106.053 26.9124 106.164 26.7554 106.305 26.5646C106.45 26.3707 106.656 26.1984 106.924 26.0476C107.195 25.8937 107.561 25.8168 108.023 25.8168C108.62 25.8168 109.146 25.966 109.601 26.2646C110.057 26.5631 110.412 26.9863 110.668 27.5341C110.923 28.0819 111.051 28.7282 111.051 29.473C111.051 30.224 110.923 30.8749 110.668 31.4258C110.412 31.9736 110.058 32.3983 109.606 32.6999C109.154 32.9985 108.632 33.1477 108.041 33.1477C107.585 33.1477 107.221 33.0723 106.947 32.9215C106.673 32.7676 106.462 32.5937 106.314 32.3999C106.167 32.2029 106.053 32.0398 105.973 31.9105H105.844V33H104.791ZM105.862 29.4545C105.862 29.9901 105.94 30.4625 106.097 30.8718C106.254 31.2781 106.484 31.5966 106.785 31.8274C107.087 32.0552 107.456 32.169 107.893 32.169C108.349 32.169 108.729 32.049 109.034 31.8089C109.341 31.5658 109.572 31.2396 109.726 30.8303C109.883 30.4179 109.961 29.9593 109.961 29.4545C109.961 28.956 109.884 28.5066 109.731 28.1065C109.58 27.7034 109.351 27.3848 109.043 27.1509C108.738 26.9139 108.355 26.7955 107.893 26.7955C107.45 26.7955 107.078 26.9078 106.776 27.1325C106.474 27.354 106.247 27.6649 106.093 28.065C105.939 28.462 105.862 28.9252 105.862 29.4545ZM116.075 25.9091V26.8324H112.253V25.9091H116.075ZM113.398 33V24.9304C113.398 24.5241 113.493 24.1856 113.684 23.9148C113.875 23.6439 114.122 23.4408 114.427 23.3054C114.732 23.17 115.053 23.1023 115.392 23.1023C115.66 23.1023 115.878 23.1238 116.047 23.1669C116.217 23.21 116.343 23.25 116.426 23.2869L116.112 24.2287C116.057 24.2102 115.98 24.1871 115.881 24.1594C115.786 24.1317 115.66 24.1179 115.503 24.1179C115.143 24.1179 114.883 24.2087 114.723 24.3903C114.566 24.5719 114.487 24.8381 114.487 25.1889V33H113.398ZM118.892 23.5455V33H117.802V23.5455H118.892ZM123.968 33.1477C123.328 33.1477 122.766 32.9954 122.283 32.6907C121.803 32.386 121.427 31.9598 121.156 31.4119C120.888 30.8641 120.755 30.224 120.755 29.4915C120.755 28.7528 120.888 28.1081 121.156 27.5572C121.427 27.0063 121.803 26.5785 122.283 26.2738C122.766 25.9691 123.328 25.8168 123.968 25.8168C124.608 25.8168 125.168 25.9691 125.648 26.2738C126.131 26.5785 126.507 27.0063 126.775 27.5572C127.045 28.1081 127.181 28.7528 127.181 29.4915C127.181 30.224 127.045 30.8641 126.775 31.4119C126.507 31.9598 126.131 32.386 125.648 32.6907C125.168 32.9954 124.608 33.1477 123.968 33.1477ZM123.968 32.169C124.454 32.169 124.854 32.0444 125.168 31.7951C125.482 31.5458 125.714 31.218 125.865 30.8118C126.016 30.4055 126.091 29.9654 126.091 29.4915C126.091 29.0175 126.016 28.5759 125.865 28.1665C125.714 27.7572 125.482 27.4264 125.168 27.174C124.854 26.9216 124.454 26.7955 123.968 26.7955C123.481 26.7955 123.081 26.9216 122.767 27.174C122.453 27.4264 122.221 27.7572 122.07 28.1665C121.92 28.5759 121.844 29.0175 121.844 29.4915C121.844 29.9654 121.92 30.4055 122.07 30.8118C122.221 31.218 122.453 31.5458 122.767 31.7951C123.081 32.0444 123.481 32.169 123.968 32.169ZM130.409 33L128.249 25.9091H129.394L130.926 31.3381H131L132.514 25.9091H133.678L135.173 31.3196H135.247L136.78 25.9091H137.925L135.764 33H134.693L133.142 27.5526H133.031L131.48 33H130.409Z" fill="#0070A0"/>
<path d="M59.642 4.54545V14H58.5341L53.3821 6.5767H53.2898V14H52.1449V4.54545H53.2528L58.4233 11.9872H58.5156V4.54545H59.642ZM61.9852 14V6.90909H63.0747V14H61.9852ZM62.5392 5.72727C62.3269 5.72727 62.1437 5.65495 61.9899 5.5103C61.8391 5.36565 61.7637 5.19176 61.7637 4.98864C61.7637 4.78551 61.8391 4.61162 61.9899 4.46697C62.1437 4.32232 62.3269 4.25 62.5392 4.25C62.7516 4.25 62.9332 4.32232 63.084 4.46697C63.2378 4.61162 63.3148 4.78551 63.3148 4.98864C63.3148 5.19176 63.2378 5.36565 63.084 5.5103C62.9332 5.65495 62.7516 5.72727 62.5392 5.72727ZM66.2858 11.4148L66.2674 10.0668H66.489L69.5912 6.90909H70.9392L67.6338 10.2514H67.5415L66.2858 11.4148ZM65.2702 14V4.54545H66.3597V14H65.2702ZM69.7759 14L67.006 10.4915L67.7816 9.73438L71.1608 14H69.7759ZM75.1302 14.1477C74.49 14.1477 73.9284 13.9954 73.4452 13.6907C72.9651 13.386 72.5896 12.9598 72.3188 12.4119C72.051 11.8641 71.9171 11.224 71.9171 10.4915C71.9171 9.75284 72.051 9.10807 72.3188 8.55717C72.5896 8.00627 72.9651 7.57848 73.4452 7.27379C73.9284 6.96911 74.49 6.81676 75.1302 6.81676C75.7703 6.81676 76.3305 6.96911 76.8106 7.27379C77.2938 7.57848 77.6692 8.00627 77.937 8.55717C78.2078 9.10807 78.3433 9.75284 78.3433 10.4915C78.3433 11.224 78.2078 11.8641 77.937 12.4119C77.6692 12.9598 77.2938 13.386 76.8106 13.6907C76.3305 13.9954 75.7703 14.1477 75.1302 14.1477ZM75.1302 13.169C75.6165 13.169 76.0165 13.0444 76.3305 12.7951C76.6444 12.5458 76.8768 12.218 77.0276 11.8118C77.1784 11.4055 77.2538 10.9654 77.2538 10.4915C77.2538 10.0175 77.1784 9.57588 77.0276 9.16655C76.8768 8.75722 76.6444 8.42637 76.3305 8.17401C76.0165 7.92164 75.6165 7.79545 75.1302 7.79545C74.6439 7.79545 74.2438 7.92164 73.9299 8.17401C73.616 8.42637 73.3836 8.75722 73.2328 9.16655C73.082 9.57588 73.0066 10.0175 73.0066 10.4915C73.0066 10.9654 73.082 11.4055 73.2328 11.8118C73.3836 12.218 73.616 12.5458 73.9299 12.7951C74.2438 13.0444 74.6439 13.169 75.1302 13.169ZM81.2958 4.54545V14H80.2063V4.54545H81.2958ZM85.5779 14.1662C85.1286 14.1662 84.7208 14.0816 84.3546 13.9123C83.9883 13.7399 83.6975 13.4922 83.4821 13.169C83.2666 12.8428 83.1589 12.4489 83.1589 11.9872C83.1589 11.581 83.2389 11.2517 83.399 10.9993C83.559 10.7438 83.7729 10.5438 84.0407 10.3991C84.3084 10.2545 84.6039 10.1468 84.927 10.076C85.2533 10.0021 85.581 9.94366 85.9103 9.90057C86.3412 9.84517 86.6905 9.80362 86.9583 9.77592C87.2291 9.74515 87.4261 9.69437 87.5492 9.62358C87.6754 9.55279 87.7385 9.42969 87.7385 9.25426V9.21733C87.7385 8.76184 87.6138 8.40791 87.3645 8.15554C87.1183 7.90317 86.7444 7.77699 86.2427 7.77699C85.7226 7.77699 85.3148 7.89086 85.0194 8.11861C84.7239 8.34635 84.5162 8.58949 84.3961 8.84801L83.362 8.47869C83.5467 8.04782 83.7929 7.71236 84.1007 7.4723C84.4115 7.22917 84.7501 7.0599 85.1163 6.96449C85.4856 6.866 85.8488 6.81676 86.2058 6.81676C86.4335 6.81676 86.6951 6.84446 86.9906 6.89986C87.2891 6.95218 87.5769 7.06143 87.8539 7.22763C88.1339 7.39382 88.3663 7.64465 88.551 7.98011C88.7356 8.31558 88.8279 8.76491 88.8279 9.32812V14H87.7385V13.0398H87.6831C87.6092 13.1937 87.4861 13.3583 87.3137 13.5337C87.1414 13.7092 86.9121 13.8584 86.6259 13.9815C86.3397 14.1046 85.9904 14.1662 85.5779 14.1662ZM85.7441 13.1875C86.175 13.1875 86.5382 13.1029 86.8336 12.9336C87.1322 12.7643 87.3568 12.5458 87.5076 12.2781C87.6615 12.0103 87.7385 11.7287 87.7385 11.4332V10.4361C87.6923 10.4915 87.5907 10.5423 87.4338 10.5884C87.2799 10.6315 87.1014 10.67 86.8983 10.7038C86.6982 10.7346 86.5028 10.7623 86.312 10.7869C86.1242 10.8085 85.9719 10.8269 85.8549 10.8423C85.5718 10.8793 85.3071 10.9393 85.0609 11.0224C84.8178 11.1024 84.6208 11.224 84.47 11.3871C84.3223 11.5471 84.2484 11.7656 84.2484 12.0426C84.2484 12.4212 84.3884 12.7074 84.6685 12.9013C84.9516 13.0921 85.3102 13.1875 85.7441 13.1875ZM91.0165 14V6.90909H92.106V14H91.0165ZM91.5705 5.72727C91.3581 5.72727 91.175 5.65495 91.0211 5.5103C90.8703 5.36565 90.7949 5.19176 90.7949 4.98864C90.7949 4.78551 90.8703 4.61162 91.0211 4.46697C91.175 4.32232 91.3581 4.25 91.5705 4.25C91.7828 4.25 91.9644 4.32232 92.1152 4.46697C92.2691 4.61162 92.346 4.78551 92.346 4.98864C92.346 5.19176 92.2691 5.36565 92.1152 5.5103C91.9644 5.65495 91.7828 5.72727 91.5705 5.72727ZM98.3054 14V4.54545H101.611C102.269 4.54545 102.813 4.65933 103.24 4.88707C103.668 5.11174 103.987 5.41489 104.196 5.79652C104.405 6.17507 104.51 6.59517 104.51 7.05682C104.51 7.46307 104.438 7.79853 104.293 8.06321C104.151 8.32789 103.964 8.53717 103.73 8.69105C103.499 8.84493 103.248 8.95881 102.977 9.03267V9.125C103.267 9.14347 103.557 9.24503 103.85 9.42969C104.142 9.61435 104.387 9.87902 104.584 10.2237C104.781 10.5684 104.879 10.9901 104.879 11.4886C104.879 11.9626 104.772 12.3888 104.556 12.7674C104.341 13.146 104.001 13.446 103.536 13.6676C103.071 13.8892 102.466 14 101.722 14H98.3054ZM99.4503 12.9844H101.722C102.469 12.9844 103 12.8397 103.314 12.5504C103.631 12.258 103.79 11.9041 103.79 11.4886C103.79 11.1686 103.708 10.8731 103.545 10.6023C103.382 10.3284 103.15 10.1098 102.848 9.94673C102.546 9.78054 102.189 9.69744 101.777 9.69744H99.4503V12.9844ZM99.4503 8.70028H101.574C101.919 8.70028 102.229 8.63258 102.506 8.49716C102.786 8.36174 103.008 8.17093 103.171 7.92472C103.337 7.6785 103.42 7.3892 103.42 7.05682C103.42 6.64134 103.276 6.28894 102.987 5.99964C102.697 5.70727 102.239 5.56108 101.611 5.56108H99.4503V8.70028ZM108.899 14.1662C108.45 14.1662 108.042 14.0816 107.676 13.9123C107.31 13.7399 107.019 13.4922 106.804 13.169C106.588 12.8428 106.48 12.4489 106.48 11.9872C106.48 11.581 106.56 11.2517 106.72 10.9993C106.88 10.7438 107.094 10.5438 107.362 10.3991C107.63 10.2545 107.925 10.1468 108.249 10.076C108.575 10.0021 108.903 9.94366 109.232 9.90057C109.663 9.84517 110.012 9.80362 110.28 9.77592C110.551 9.74515 110.748 9.69437 110.871 9.62358C110.997 9.55279 111.06 9.42969 111.06 9.25426V9.21733C111.06 8.76184 110.935 8.40791 110.686 8.15554C110.44 7.90317 110.066 7.77699 109.564 7.77699C109.044 7.77699 108.636 7.89086 108.341 8.11861C108.045 8.34635 107.838 8.58949 107.718 8.84801L106.684 8.47869C106.868 8.04782 107.114 7.71236 107.422 7.4723C107.733 7.22917 108.072 7.0599 108.438 6.96449C108.807 6.866 109.17 6.81676 109.527 6.81676C109.755 6.81676 110.017 6.84446 110.312 6.89986C110.611 6.95218 110.898 7.06143 111.175 7.22763C111.455 7.39382 111.688 7.64465 111.872 7.98011C112.057 8.31558 112.149 8.76491 112.149 9.32812V14H111.06V13.0398H111.005C110.931 13.1937 110.808 13.3583 110.635 13.5337C110.463 13.7092 110.234 13.8584 109.947 13.9815C109.661 14.1046 109.312 14.1662 108.899 14.1662ZM109.066 13.1875C109.496 13.1875 109.86 13.1029 110.155 12.9336C110.454 12.7643 110.678 12.5458 110.829 12.2781C110.983 12.0103 111.06 11.7287 111.06 11.4332V10.4361C111.014 10.4915 110.912 10.5423 110.755 10.5884C110.601 10.6315 110.423 10.67 110.22 10.7038C110.02 10.7346 109.824 10.7623 109.633 10.7869C109.446 10.8085 109.293 10.8269 109.176 10.8423C108.893 10.8793 108.629 10.9393 108.382 11.0224C108.139 11.1024 107.942 11.224 107.791 11.3871C107.644 11.5471 107.57 11.7656 107.57 12.0426C107.57 12.4212 107.71 12.7074 107.99 12.9013C108.273 13.0921 108.632 13.1875 109.066 13.1875ZM114.338 14V6.90909H115.427V14H114.338ZM114.892 5.72727C114.68 5.72727 114.496 5.65495 114.343 5.5103C114.192 5.36565 114.116 5.19176 114.116 4.98864C114.116 4.78551 114.192 4.61162 114.343 4.46697C114.496 4.32232 114.68 4.25 114.892 4.25C115.104 4.25 115.286 4.32232 115.437 4.46697C115.591 4.61162 115.668 4.78551 115.668 4.98864C115.668 5.19176 115.591 5.36565 115.437 5.5103C115.286 5.65495 115.104 5.72727 114.892 5.72727ZM118.712 9.73438V14H117.623V6.90909H118.675V8.01705H118.768C118.934 7.65696 119.186 7.36766 119.525 7.14915C119.863 6.92756 120.3 6.81676 120.836 6.81676C121.316 6.81676 121.736 6.91525 122.096 7.11222C122.456 7.30611 122.736 7.60156 122.937 7.99858C123.137 8.39252 123.237 8.8911 123.237 9.49432V14H122.147V9.56818C122.147 9.01113 122.002 8.57718 121.713 8.26633C121.424 7.95241 121.027 7.79545 120.522 7.79545C120.174 7.79545 119.863 7.87086 119.59 8.02166C119.319 8.17247 119.105 8.39252 118.948 8.68182C118.791 8.97112 118.712 9.32197 118.712 9.73438Z" fill="#0070A0"/>
<path d="M140.929 33.0795C140.684 33.0795 140.473 32.9917 140.298 32.8161C140.122 32.6404 140.034 32.4299 140.034 32.1847C140.034 31.9394 140.122 31.7289 140.298 31.5533C140.473 31.3776 140.684 31.2898 140.929 31.2898C141.174 31.2898 141.385 31.3776 141.56 31.5533C141.736 31.7289 141.824 31.9394 141.824 32.1847C141.824 32.3471 141.782 32.4962 141.7 32.6321C141.62 32.768 141.512 32.8774 141.376 32.9602C141.244 33.0398 141.095 33.0795 140.929 33.0795Z" fill="#1F1F1F"/>
<path d="M1.23295 33V22.8182H4.6733C5.47206 22.8182 6.125 22.9624 6.6321 23.2507C7.14252 23.5357 7.52036 23.9219 7.76562 24.4091C8.01089 24.8963 8.13352 25.4399 8.13352 26.0398C8.13352 26.6397 8.01089 27.1849 7.76562 27.6754C7.52367 28.166 7.14915 28.5571 6.64205 28.8487C6.13494 29.1371 5.48532 29.2812 4.69318 29.2812H2.22727V28.1875H4.65341C5.20028 28.1875 5.63944 28.093 5.97088 27.9041C6.30232 27.7152 6.54261 27.46 6.69176 27.1385C6.84422 26.8137 6.92045 26.4474 6.92045 26.0398C6.92045 25.6321 6.84422 25.2675 6.69176 24.946C6.54261 24.6245 6.30066 24.3726 5.96591 24.1903C5.63116 24.0047 5.18703 23.9119 4.63352 23.9119H2.46591V33H1.23295ZM13.1808 33.1591C12.4914 33.1591 11.8866 32.995 11.3662 32.6669C10.8491 32.3388 10.4448 31.8797 10.1531 31.2898C9.86477 30.6998 9.7206 30.0104 9.7206 29.2216C9.7206 28.4261 9.86477 27.7318 10.1531 27.1385C10.4448 26.5452 10.8491 26.0845 11.3662 25.7564C11.8866 25.4283 12.4914 25.2642 13.1808 25.2642C13.8702 25.2642 14.4734 25.4283 14.9905 25.7564C15.5108 26.0845 15.9152 26.5452 16.2036 27.1385C16.4952 27.7318 16.6411 28.4261 16.6411 29.2216C16.6411 30.0104 16.4952 30.6998 16.2036 31.2898C15.9152 31.8797 15.5108 32.3388 14.9905 32.6669C14.4734 32.995 13.8702 33.1591 13.1808 33.1591ZM13.1808 32.1051C13.7045 32.1051 14.1354 31.9709 14.4734 31.7024C14.8115 31.4339 15.0617 31.081 15.2241 30.6435C15.3866 30.206 15.4678 29.732 15.4678 29.2216C15.4678 28.7112 15.3866 28.2356 15.2241 27.7947C15.0617 27.3539 14.8115 26.9976 14.4734 26.7259C14.1354 26.4541 13.7045 26.3182 13.1808 26.3182C12.6571 26.3182 12.2263 26.4541 11.8882 26.7259C11.5501 26.9976 11.2999 27.3539 11.1375 27.7947C10.9751 28.2356 10.8939 28.7112 10.8939 29.2216C10.8939 29.732 10.9751 30.206 11.1375 30.6435C11.2999 31.081 11.5501 31.4339 11.8882 31.7024C12.2263 31.9709 12.6571 32.1051 13.1808 32.1051ZM20.1024 33L17.7757 25.3636H19.0087L20.6592 31.2102H20.7388L22.3695 25.3636H23.6223L25.2331 31.1903H25.3126L26.9632 25.3636H28.1962L25.8695 33H24.7161L23.0456 27.1335H22.9263L21.2558 33H20.1024ZM32.8892 33.1591C32.1534 33.1591 31.5187 32.9967 30.9851 32.6719C30.4548 32.3438 30.0455 31.8864 29.7571 31.2997C29.4721 30.7098 29.3296 30.0237 29.3296 29.2415C29.3296 28.4593 29.4721 27.7699 29.7571 27.1733C30.0455 26.5734 30.4465 26.1061 30.9603 25.7713C31.4773 25.4332 32.0805 25.2642 32.7699 25.2642C33.1676 25.2642 33.5604 25.3305 33.9482 25.4631C34.336 25.5956 34.689 25.8111 35.0071 26.1094C35.3253 26.4044 35.5789 26.7955 35.7678 27.2827C35.9567 27.7699 36.0512 28.3698 36.0512 29.0824V29.5795H30.1648V28.5653H34.858C34.858 28.1345 34.7718 27.75 34.5995 27.4119C34.4304 27.0739 34.1885 26.8071 33.8736 26.6115C33.5621 26.416 33.1942 26.3182 32.7699 26.3182C32.3026 26.3182 31.8982 26.4342 31.5569 26.6662C31.2188 26.8949 30.9586 27.1932 30.7763 27.5611C30.594 27.929 30.5029 28.3234 30.5029 28.7443V29.4205C30.5029 29.9972 30.6023 30.486 30.8012 30.8871C31.0034 31.2848 31.2834 31.5881 31.6414 31.7969C31.9993 32.0024 32.4153 32.1051 32.8892 32.1051C33.1975 32.1051 33.4759 32.062 33.7245 31.9759C33.9764 31.8864 34.1935 31.7538 34.3757 31.5781C34.558 31.3991 34.6989 31.1771 34.7983 30.9119L35.9319 31.2301C35.8125 31.6146 35.612 31.9527 35.3303 32.2443C35.0486 32.5327 34.7006 32.758 34.2863 32.9205C33.872 33.0795 33.4063 33.1591 32.8892 33.1591ZM38.036 33V25.3636H39.1695V26.517H39.249C39.3882 26.1392 39.6401 25.8326 40.0047 25.5973C40.3693 25.362 40.7803 25.2443 41.2377 25.2443C41.3239 25.2443 41.4316 25.246 41.5608 25.2493C41.6901 25.2526 41.7879 25.2576 41.8542 25.2642V26.4574C41.8144 26.4474 41.7232 26.4325 41.5807 26.4126C41.4415 26.3894 41.294 26.3778 41.1382 26.3778C40.767 26.3778 40.4356 26.4557 40.1439 26.6115C39.8556 26.764 39.6269 26.9761 39.4578 27.2479C39.2921 27.5163 39.2093 27.8229 39.2093 28.1676V33H38.036ZM46.4142 33.1591C45.6784 33.1591 45.0437 32.9967 44.5101 32.6719C43.9798 32.3438 43.5705 31.8864 43.2821 31.2997C42.9971 30.7098 42.8546 30.0237 42.8546 29.2415C42.8546 28.4593 42.9971 27.7699 43.2821 27.1733C43.5705 26.5734 43.9715 26.1061 44.4853 25.7713C45.0023 25.4332 45.6055 25.2642 46.2949 25.2642C46.6926 25.2642 47.0854 25.3305 47.4732 25.4631C47.861 25.5956 48.214 25.8111 48.5321 26.1094C48.8503 26.4044 49.1039 26.7955 49.2928 27.2827C49.4817 27.7699 49.5762 28.3698 49.5762 29.0824V29.5795H43.6898V28.5653H48.383C48.383 28.1345 48.2968 27.75 48.1245 27.4119C47.9554 27.0739 47.7135 26.8071 47.3986 26.6115C47.0871 26.416 46.7192 26.3182 46.2949 26.3182C45.8276 26.3182 45.4232 26.4342 45.0819 26.6662C44.7438 26.8949 44.4836 27.1932 44.3013 27.5611C44.119 27.929 44.0279 28.3234 44.0279 28.7443V29.4205C44.0279 29.9972 44.1273 30.486 44.3262 30.8871C44.5283 31.2848 44.8084 31.5881 45.1664 31.7969C45.5243 32.0024 45.9403 32.1051 46.4142 32.1051C46.7225 32.1051 47.0009 32.062 47.2495 31.9759C47.5014 31.8864 47.7185 31.7538 47.9007 31.5781C48.083 31.3991 48.2239 31.1771 48.3233 30.9119L49.4569 31.2301C49.3375 31.6146 49.137 31.9527 48.8553 32.2443C48.5736 32.5327 48.2256 32.758 47.8113 32.9205C47.397 33.0795 46.9313 33.1591 46.4142 33.1591ZM54.4445 33.1591C53.8081 33.1591 53.2463 32.9983 52.7591 32.6768C52.2719 32.352 51.8908 31.8946 51.6157 31.3047C51.3406 30.7114 51.203 30.0104 51.203 29.2017C51.203 28.3996 51.3406 27.7036 51.6157 27.1136C51.8908 26.5237 52.2736 26.0679 52.7641 25.7464C53.2546 25.425 53.8214 25.2642 54.4644 25.2642C54.9615 25.2642 55.3543 25.3471 55.6426 25.5128C55.9343 25.6752 56.1564 25.8608 56.3088 26.0696C56.4646 26.2751 56.5856 26.4441 56.6718 26.5767H56.7712V22.8182H57.9445V33H56.811V31.8267H56.6718C56.5856 31.9659 56.463 32.1416 56.3039 32.3537C56.1448 32.5625 55.9177 32.7498 55.6228 32.9155C55.3278 33.0779 54.935 33.1591 54.4445 33.1591ZM54.6036 32.1051C55.0742 32.1051 55.472 31.9825 55.7968 31.7372C56.1216 31.4886 56.3685 31.1456 56.5375 30.7081C56.7066 30.2673 56.7911 29.7585 56.7911 29.1818C56.7911 28.6117 56.7082 28.1129 56.5425 27.6854C56.3768 27.2545 56.1315 26.9197 55.8067 26.6811C55.4819 26.4392 55.0809 26.3182 54.6036 26.3182C54.1064 26.3182 53.6921 26.4458 53.3607 26.701C53.0326 26.9529 52.7856 27.2959 52.6199 27.7301C52.4575 28.161 52.3763 28.6449 52.3763 29.1818C52.3763 29.7254 52.4592 30.2192 52.6249 30.6634C52.7939 31.1042 53.0425 31.4555 53.3706 31.7173C53.7021 31.9759 54.1131 32.1051 54.6036 32.1051ZM64.7529 33V22.8182H65.9262V26.5767H66.0256C66.1118 26.4441 66.2311 26.2751 66.3836 26.0696C66.5393 25.8608 66.7614 25.6752 67.0497 25.5128C67.3414 25.3471 67.7358 25.2642 68.233 25.2642C68.876 25.2642 69.4427 25.425 69.9333 25.7464C70.4238 26.0679 70.8066 26.5237 71.0817 27.1136C71.3568 27.7036 71.4944 28.3996 71.4944 29.2017C71.4944 30.0104 71.3568 30.7114 71.0817 31.3047C70.8066 31.8946 70.4255 32.352 69.9382 32.6768C69.451 32.9983 68.8892 33.1591 68.2529 33.1591C67.7623 33.1591 67.3696 33.0779 67.0746 32.9155C66.7796 32.7498 66.5526 32.5625 66.3935 32.3537C66.2344 32.1416 66.1118 31.9659 66.0256 31.8267H65.8864V33H64.7529ZM65.9063 29.1818C65.9063 29.7585 65.9908 30.2673 66.1598 30.7081C66.3289 31.1456 66.5758 31.4886 66.9006 31.7372C67.2254 31.9825 67.6231 32.1051 68.0938 32.1051C68.5843 32.1051 68.9936 31.9759 69.3218 31.7173C69.6532 31.4555 69.9018 31.1042 70.0675 30.6634C70.2365 30.2192 70.3211 29.7254 70.3211 29.1818C70.3211 28.6449 70.2382 28.161 70.0725 27.7301C69.9101 27.2959 69.6631 26.9529 69.3317 26.701C69.0036 26.4458 68.5909 26.3182 68.0938 26.3182C67.6165 26.3182 67.2155 26.4392 66.8907 26.6811C66.5658 26.9197 66.3206 27.2545 66.1549 27.6854C65.9891 28.1129 65.9063 28.6117 65.9063 29.1818ZM73.9713 35.8636C73.7725 35.8636 73.5952 35.8471 73.4394 35.8139C73.2836 35.7841 73.1759 35.7543 73.1162 35.7244L73.4145 34.6903C73.6996 34.7633 73.9515 34.7898 74.1702 34.7699C74.389 34.75 74.5829 34.6522 74.7519 34.4766C74.9242 34.3042 75.0817 34.0241 75.2242 33.6364L75.4429 33.0398L72.6191 25.3636H73.8918L75.9998 31.4489H76.0793L78.1873 25.3636H79.46L76.2185 34.1136C76.0727 34.508 75.892 34.8345 75.6766 35.093C75.4612 35.3549 75.2109 35.5488 74.9259 35.6747C74.6442 35.8007 74.326 35.8636 73.9713 35.8636Z" fill="#1F1F1F"/>
</svg>
