<svg width="217" height="216" viewBox="0 0 217 216" fill="none" xmlns="http://www.w3.org/2000/svg">
<path d="M8.1946 47.2884C8.12642 46.7126 7.84991 46.2656 7.36506 45.9474C6.88021 45.6293 6.28551 45.4702 5.58097 45.4702C5.06581 45.4702 4.61506 45.5535 4.22869 45.7202C3.84612 45.8868 3.54688 46.116 3.33097 46.4077C3.11884 46.6993 3.01278 47.0308 3.01278 47.402C3.01278 47.7126 3.08665 47.9796 3.23438 48.2031C3.38589 48.4228 3.57907 48.6065 3.81392 48.7543C4.04877 48.8982 4.29498 49.0175 4.55256 49.1122C4.81013 49.2031 5.04688 49.277 5.26278 49.3338L6.4446 49.652C6.74763 49.7315 7.08475 49.8414 7.45597 49.9815C7.83097 50.1217 8.18892 50.313 8.52983 50.5554C8.87453 50.794 9.15862 51.1009 9.3821 51.4759C9.60559 51.8509 9.71733 52.3111 9.71733 52.8565C9.71733 53.4853 9.55256 54.0535 9.22301 54.5611C8.89725 55.0687 8.41998 55.4721 7.79119 55.7713C7.16619 56.0705 6.40672 56.2202 5.51278 56.2202C4.67945 56.2202 3.95786 56.0857 3.34801 55.8168C2.74195 55.5478 2.26468 55.1728 1.91619 54.6918C1.5715 54.2107 1.37642 53.652 1.33097 53.0156H2.78551C2.82339 53.455 2.97112 53.8187 3.22869 54.1065C3.49006 54.3906 3.8196 54.6027 4.21733 54.7429C4.61884 54.8793 5.05066 54.9474 5.51278 54.9474C6.05066 54.9474 6.53362 54.8603 6.96165 54.6861C7.38968 54.508 7.72869 54.2618 7.97869 53.9474C8.22869 53.6293 8.35369 53.258 8.35369 52.8338C8.35369 52.4474 8.24574 52.133 8.02983 51.8906C7.81392 51.6482 7.52983 51.4512 7.17756 51.2997C6.82528 51.1482 6.4446 51.0156 6.03551 50.902L4.60369 50.4929C3.6946 50.2315 2.97491 49.8584 2.4446 49.3736C1.9143 48.8887 1.64915 48.2543 1.64915 47.4702C1.64915 46.8187 1.82528 46.2505 2.17756 45.7656C2.53362 45.277 3.01089 44.8982 3.60938 44.6293C4.21165 44.3565 4.884 44.2202 5.62642 44.2202C6.37642 44.2202 7.04309 44.3546 7.62642 44.6236C8.20975 44.8887 8.67188 45.2524 9.01278 45.7145C9.35748 46.1766 9.5393 46.7012 9.55824 47.2884H8.1946ZM12.0523 56.0156V47.2884H13.3932V56.0156H12.0523ZM12.7341 45.8338C12.4727 45.8338 12.2473 45.7448 12.058 45.5668C11.8723 45.3887 11.7795 45.1747 11.7795 44.9247C11.7795 44.6747 11.8723 44.4607 12.058 44.2827C12.2473 44.1046 12.4727 44.0156 12.7341 44.0156C12.9955 44.0156 13.2189 44.1046 13.4045 44.2827C13.5939 44.4607 13.6886 44.6747 13.6886 44.9247C13.6886 45.1747 13.5939 45.3887 13.4045 45.5668C13.2189 45.7448 12.9955 45.8338 12.7341 45.8338ZM19.5719 59.4702C18.9241 59.4702 18.3673 59.3868 17.9014 59.2202C17.4355 59.0573 17.0473 58.8414 16.7366 58.5724C16.4298 58.3073 16.1855 58.0232 16.0037 57.7202L17.0719 56.9702C17.1931 57.1293 17.3465 57.3111 17.5321 57.5156C17.7177 57.724 17.9715 57.9039 18.2935 58.0554C18.6192 58.2107 19.0454 58.2884 19.5719 58.2884C20.2764 58.2884 20.8579 58.1179 21.3162 57.777C21.7745 57.4361 22.0037 56.902 22.0037 56.1747V54.402H21.8901C21.7916 54.5611 21.6514 54.758 21.4696 54.9929C21.2916 55.224 21.034 55.4304 20.6969 55.6122C20.3635 55.7902 19.9128 55.8793 19.3446 55.8793C18.6401 55.8793 18.0075 55.7126 17.4469 55.3793C16.8901 55.0459 16.4488 54.5611 16.123 53.9247C15.801 53.2884 15.6401 52.5156 15.6401 51.6065C15.6401 50.7126 15.7973 49.9342 16.1116 49.2713C16.426 48.6046 16.8635 48.0895 17.4241 47.7259C17.9848 47.3584 18.6325 47.1747 19.3673 47.1747C19.9355 47.1747 20.3863 47.2694 20.7196 47.4588C21.0567 47.6444 21.3143 47.8565 21.4923 48.0952C21.6741 48.33 21.8143 48.5232 21.9128 48.6747H22.0491V47.2884H23.3446V56.2656C23.3446 57.0156 23.1741 57.6255 22.8332 58.0952C22.4961 58.5687 22.0416 58.9152 21.4696 59.1349C20.9014 59.3584 20.2688 59.4702 19.5719 59.4702ZM19.5264 54.6747C20.0643 54.6747 20.5188 54.5516 20.8901 54.3054C21.2613 54.0592 21.5435 53.705 21.7366 53.2429C21.9298 52.7808 22.0264 52.2277 22.0264 51.5838C22.0264 50.955 21.9317 50.4001 21.7423 49.919C21.5529 49.438 21.2726 49.0611 20.9014 48.7884C20.5302 48.5156 20.0719 48.3793 19.5264 48.3793C18.9582 48.3793 18.4848 48.5232 18.106 48.8111C17.731 49.099 17.4488 49.4853 17.2594 49.9702C17.0738 50.455 16.981 50.9929 16.981 51.5838C16.981 52.1899 17.0757 52.7259 17.2651 53.1918C17.4582 53.6539 17.7423 54.0175 18.1173 54.2827C18.4961 54.544 18.9658 54.6747 19.5264 54.6747ZM27.3401 50.7656V56.0156H25.9991V47.2884H27.2946V48.652H27.4082C27.6128 48.2088 27.9234 47.8527 28.3401 47.5838C28.7567 47.3111 29.2946 47.1747 29.9537 47.1747C30.5446 47.1747 31.0616 47.2959 31.5048 47.5384C31.948 47.777 32.2927 48.1406 32.5389 48.6293C32.7851 49.1141 32.9082 49.7277 32.9082 50.4702V56.0156H31.5673V50.5611C31.5673 49.8755 31.3893 49.3414 31.0332 48.9588C30.6772 48.5724 30.1885 48.3793 29.5673 48.3793C29.1393 48.3793 28.7567 48.4721 28.4196 48.6577C28.0863 48.8433 27.823 49.1141 27.6298 49.4702C27.4366 49.8262 27.3401 50.258 27.3401 50.7656ZM45.7585 52.4474V47.2884H47.0994V56.0156H45.7585V54.5384H45.6676C45.4631 54.9815 45.1449 55.3584 44.7131 55.669C44.2813 55.9759 43.7358 56.1293 43.0767 56.1293C42.5312 56.1293 42.0464 56.0099 41.6222 55.7713C41.1979 55.5289 40.8646 55.1652 40.6222 54.6804C40.3797 54.1918 40.2585 53.5762 40.2585 52.8338V47.2884H41.5994V52.7429C41.5994 53.3793 41.7775 53.8868 42.1335 54.2656C42.4934 54.6444 42.9517 54.8338 43.5085 54.8338C43.8419 54.8338 44.1809 54.7486 44.5256 54.5781C44.8741 54.4077 45.1657 54.1463 45.4006 53.794C45.6392 53.4418 45.7585 52.9929 45.7585 52.4474ZM49.7554 59.2884V47.2884H51.0509V48.6747H51.2099C51.3084 48.5232 51.4448 48.33 51.619 48.0952C51.7971 47.8565 52.0509 47.6444 52.3804 47.4588C52.7137 47.2694 53.1645 47.1747 53.7327 47.1747C54.4675 47.1747 55.1152 47.3584 55.6759 47.7259C56.2365 48.0933 56.674 48.6141 56.9884 49.2884C57.3027 49.9626 57.4599 50.758 57.4599 51.6747C57.4599 52.599 57.3027 53.4001 56.9884 54.0781C56.674 54.7524 56.2384 55.2751 55.6815 55.6463C55.1247 56.0137 54.4827 56.1974 53.7554 56.1974C53.1948 56.1974 52.7459 56.1046 52.4088 55.919C52.0717 55.7296 51.8122 55.5156 51.6304 55.277C51.4486 55.0346 51.3084 54.8338 51.2099 54.6747H51.0963V59.2884H49.7554ZM51.0736 51.652C51.0736 52.3111 51.1702 52.8925 51.3634 53.3963C51.5565 53.8963 51.8387 54.2884 52.2099 54.5724C52.5812 54.8527 53.0357 54.9929 53.5736 54.9929C54.1342 54.9929 54.602 54.8452 54.977 54.5497C55.3558 54.2505 55.6399 53.849 55.8293 53.3452C56.0224 52.8376 56.119 52.2732 56.119 51.652C56.119 51.0384 56.0243 50.4853 55.8349 49.9929C55.6493 49.4967 55.3671 49.1046 54.9884 48.8168C54.6134 48.5251 54.1418 48.3793 53.5736 48.3793C53.0281 48.3793 52.5698 48.5175 52.1986 48.794C51.8274 49.0668 51.5471 49.4493 51.3577 49.9418C51.1683 50.4304 51.0736 51.0005 51.0736 51.652ZM68.2918 47.2884V48.4247H63.5872V47.2884H68.2918ZM64.9963 56.0156V46.0838C64.9963 45.5838 65.1137 45.1671 65.3486 44.8338C65.5834 44.5005 65.8884 44.2505 66.2634 44.0838C66.6384 43.9171 67.0342 43.8338 67.4509 43.8338C67.7804 43.8338 68.0493 43.8603 68.2577 43.9134C68.466 43.9664 68.6213 44.0156 68.7236 44.0611L68.3372 45.2202C68.269 45.1974 68.1743 45.169 68.0531 45.1349C67.9357 45.1009 67.7804 45.0838 67.5872 45.0838C67.144 45.0838 66.824 45.1955 66.627 45.419C66.4338 45.6425 66.3372 45.9702 66.3372 46.402V56.0156H64.9963ZM73.5571 56.1974C72.7692 56.1974 72.0779 56.0099 71.4832 55.6349C70.8923 55.2599 70.4302 54.7353 70.0969 54.0611C69.7673 53.3868 69.6026 52.599 69.6026 51.6974C69.6026 50.7884 69.7673 49.9948 70.0969 49.3168C70.4302 48.6387 70.8923 48.1122 71.4832 47.7372C72.0779 47.3622 72.7692 47.1747 73.5571 47.1747C74.345 47.1747 75.0344 47.3622 75.6253 47.7372C76.22 48.1122 76.6821 48.6387 77.0117 49.3168C77.345 49.9948 77.5117 50.7884 77.5117 51.6974C77.5117 52.599 77.345 53.3868 77.0117 54.0611C76.6821 54.7353 76.22 55.2599 75.6253 55.6349C75.0344 56.0099 74.345 56.1974 73.5571 56.1974ZM73.5571 54.9929C74.1556 54.9929 74.648 54.8395 75.0344 54.5327C75.4207 54.2259 75.7067 53.8224 75.8923 53.3224C76.0779 52.8224 76.1707 52.2808 76.1707 51.6974C76.1707 51.1141 76.0779 50.5705 75.8923 50.0668C75.7067 49.563 75.4207 49.1558 75.0344 48.8452C74.648 48.5346 74.1556 48.3793 73.5571 48.3793C72.9586 48.3793 72.4662 48.5346 72.0798 48.8452C71.6935 49.1558 71.4075 49.563 71.2219 50.0668C71.0363 50.5705 70.9435 51.1141 70.9435 51.6974C70.9435 52.2808 71.0363 52.8224 71.2219 53.3224C71.4075 53.8224 71.6935 54.2259 72.0798 54.5327C72.4662 54.8395 72.9586 54.9929 73.5571 54.9929ZM79.7585 56.0156V47.2884H81.054V48.6065H81.1449C81.304 48.1747 81.5919 47.8243 82.0085 47.5554C82.4252 47.2865 82.8949 47.152 83.4176 47.152C83.5161 47.152 83.6392 47.1539 83.7869 47.1577C83.9347 47.1615 84.0464 47.1671 84.1222 47.1747V48.5384C84.0767 48.527 83.9725 48.5099 83.8097 48.4872C83.6506 48.4607 83.482 48.4474 83.304 48.4474C82.8797 48.4474 82.5009 48.5365 82.1676 48.7145C81.8381 48.8887 81.5767 49.1312 81.3835 49.4418C81.1941 49.7486 81.0994 50.099 81.0994 50.4929V56.0156H79.7585ZM94.4071 47.2884V48.4247H89.8844V47.2884H94.4071ZM91.2026 45.1974H92.5435V53.5156C92.5435 53.8944 92.5984 54.1785 92.7082 54.3679C92.8219 54.5535 92.9658 54.6785 93.1401 54.7429C93.3181 54.8035 93.5056 54.8338 93.7026 54.8338C93.8503 54.8338 93.9715 54.8262 94.0662 54.8111C94.1609 54.7921 94.2366 54.777 94.2935 54.7656L94.5662 55.9702C94.4753 56.0043 94.3484 56.0384 94.1855 56.0724C94.0226 56.1103 93.8162 56.1293 93.5662 56.1293C93.1874 56.1293 92.8162 56.0478 92.4526 55.8849C92.0927 55.7221 91.7935 55.474 91.5548 55.1406C91.32 54.8073 91.2026 54.3868 91.2026 53.8793V45.1974ZM98.1526 50.7656V56.0156H96.8116V44.3793H98.1526V48.652H98.2662C98.4707 48.2012 98.7776 47.8433 99.1866 47.5781C99.5995 47.3092 100.149 47.1747 100.834 47.1747C101.429 47.1747 101.95 47.294 102.397 47.5327C102.844 47.7675 103.19 48.1293 103.437 48.6179C103.687 49.1027 103.812 49.7202 103.812 50.4702V56.0156H102.471V50.5611C102.471 49.8679 102.291 49.3319 101.931 48.9531C101.575 48.5705 101.081 48.3793 100.448 48.3793C100.009 48.3793 99.6147 48.4721 99.2662 48.6577C98.9215 48.8433 98.6488 49.1141 98.448 49.4702C98.251 49.8262 98.1526 50.258 98.1526 50.7656ZM110.124 56.1974C109.283 56.1974 108.558 56.0118 107.948 55.6406C107.342 55.2656 106.874 54.7429 106.544 54.0724C106.219 53.3982 106.056 52.6141 106.056 51.7202C106.056 50.8262 106.219 50.0384 106.544 49.3565C106.874 48.6709 107.332 48.1368 107.919 47.7543C108.51 47.3679 109.2 47.1747 109.988 47.1747C110.442 47.1747 110.891 47.2505 111.334 47.402C111.777 47.5535 112.181 47.7997 112.544 48.1406C112.908 48.4777 113.198 48.9247 113.414 49.4815C113.63 50.0384 113.738 50.724 113.738 51.5384V52.1065H107.01V50.9474H112.374C112.374 50.455 112.275 50.0156 112.078 49.6293C111.885 49.2429 111.609 48.938 111.249 48.7145C110.893 48.491 110.472 48.3793 109.988 48.3793C109.453 48.3793 108.991 48.5118 108.601 48.777C108.215 49.0384 107.917 49.3793 107.709 49.7997C107.501 50.2202 107.397 50.6709 107.397 51.152V51.9247C107.397 52.5838 107.51 53.1425 107.738 53.6009C107.969 54.0554 108.289 54.402 108.698 54.6406C109.107 54.8755 109.582 54.9929 110.124 54.9929C110.476 54.9929 110.794 54.9437 111.078 54.8452C111.366 54.7429 111.614 54.5914 111.823 54.3906C112.031 54.1861 112.192 53.9323 112.306 53.6293L113.601 53.9929C113.465 54.4323 113.236 54.8187 112.914 55.152C112.592 55.4815 112.194 55.7391 111.72 55.9247C111.247 56.1065 110.715 56.1974 110.124 56.1974ZM122.018 44.3793V56.0156H120.677V44.3793H122.018ZM127.242 56.2202C126.689 56.2202 126.187 56.116 125.737 55.9077C125.286 55.6955 124.928 55.3906 124.663 54.9929C124.398 54.5914 124.265 54.1065 124.265 53.5384C124.265 53.0384 124.364 52.633 124.561 52.3224C124.757 52.008 125.021 51.7618 125.35 51.5838C125.68 51.4058 126.043 51.2732 126.441 51.1861C126.843 51.0952 127.246 51.0232 127.651 50.9702C128.182 50.902 128.612 50.8509 128.941 50.8168C129.275 50.7789 129.517 50.7164 129.668 50.6293C129.824 50.5421 129.901 50.3906 129.901 50.1747V50.1293C129.901 49.5687 129.748 49.133 129.441 48.8224C129.138 48.5118 128.678 48.3565 128.061 48.3565C127.42 48.3565 126.918 48.4967 126.555 48.777C126.191 49.0573 125.936 49.3565 125.788 49.6747L124.515 49.2202C124.742 48.6899 125.045 48.277 125.424 47.9815C125.807 47.6823 126.223 47.474 126.674 47.3565C127.129 47.2353 127.576 47.1747 128.015 47.1747C128.295 47.1747 128.617 47.2088 128.981 47.277C129.348 47.3414 129.703 47.4759 130.043 47.6804C130.388 47.8849 130.674 48.1937 130.901 48.6065C131.129 49.0194 131.242 49.5724 131.242 50.2656V56.0156H129.901V54.8338H129.833C129.742 55.0232 129.591 55.2259 129.379 55.4418C129.167 55.6577 128.884 55.8414 128.532 55.9929C128.18 56.1444 127.75 56.2202 127.242 56.2202ZM127.447 55.0156C127.977 55.0156 128.424 54.9115 128.788 54.7031C129.155 54.4948 129.432 54.2259 129.617 53.8963C129.807 53.5668 129.901 53.2202 129.901 52.8565V51.6293C129.845 51.6974 129.72 51.7599 129.526 51.8168C129.337 51.8698 129.117 51.9171 128.867 51.9588C128.621 51.9967 128.381 52.0308 128.146 52.0611C127.915 52.0876 127.727 52.1103 127.583 52.1293C127.235 52.1747 126.909 52.2486 126.606 52.3509C126.307 52.4493 126.064 52.599 125.879 52.7997C125.697 52.9967 125.606 53.2656 125.606 53.6065C125.606 54.0724 125.778 54.4247 126.123 54.6634C126.471 54.8982 126.913 55.0156 127.447 55.0156ZM137.685 47.2884V48.4247H133.163V47.2884H137.685ZM134.481 45.1974H135.822V53.5156C135.822 53.8944 135.877 54.1785 135.986 54.3679C136.1 54.5535 136.244 54.6785 136.418 54.7429C136.596 54.8035 136.784 54.8338 136.981 54.8338C137.128 54.8338 137.25 54.8262 137.344 54.8111C137.439 54.7921 137.515 54.777 137.572 54.7656L137.844 55.9702C137.753 56.0043 137.627 56.0384 137.464 56.0724C137.301 56.1103 137.094 56.1293 136.844 56.1293C136.466 56.1293 136.094 56.0478 135.731 55.8849C135.371 55.7221 135.072 55.474 134.833 55.1406C134.598 54.8073 134.481 54.3868 134.481 53.8793V45.1974ZM143.468 56.1974C142.627 56.1974 141.901 56.0118 141.291 55.6406C140.685 55.2656 140.218 54.7429 139.888 54.0724C139.562 53.3982 139.399 52.6141 139.399 51.7202C139.399 50.8262 139.562 50.0384 139.888 49.3565C140.218 48.6709 140.676 48.1368 141.263 47.7543C141.854 47.3679 142.543 47.1747 143.331 47.1747C143.786 47.1747 144.235 47.2505 144.678 47.402C145.121 47.5535 145.524 47.7997 145.888 48.1406C146.252 48.4777 146.541 48.9247 146.757 49.4815C146.973 50.0384 147.081 50.724 147.081 51.5384V52.1065H140.354V50.9474H145.718C145.718 50.455 145.619 50.0156 145.422 49.6293C145.229 49.2429 144.952 48.938 144.593 48.7145C144.237 48.491 143.816 48.3793 143.331 48.3793C142.797 48.3793 142.335 48.5118 141.945 48.777C141.559 49.0384 141.261 49.3793 141.053 49.7997C140.845 50.2202 140.74 50.6709 140.74 51.152V51.9247C140.74 52.5838 140.854 53.1425 141.081 53.6009C141.312 54.0554 141.632 54.402 142.041 54.6406C142.451 54.8755 142.926 54.9929 143.468 54.9929C143.82 54.9929 144.138 54.9437 144.422 54.8452C144.71 54.7429 144.958 54.5914 145.166 54.3906C145.375 54.1861 145.536 53.9323 145.649 53.6293L146.945 53.9929C146.809 54.4323 146.579 54.8187 146.257 55.152C145.935 55.4815 145.538 55.7391 145.064 55.9247C144.591 56.1065 144.059 56.1974 143.468 56.1974ZM155.503 49.2429L154.298 49.5838C154.223 49.383 154.111 49.188 153.963 48.9986C153.819 48.8054 153.622 48.6463 153.372 48.5213C153.122 48.3963 152.802 48.3338 152.412 48.3338C151.878 48.3338 151.433 48.4569 151.077 48.7031C150.724 48.9455 150.548 49.2543 150.548 49.6293C150.548 49.9626 150.67 50.2259 150.912 50.419C151.154 50.6122 151.533 50.7732 152.048 50.902L153.344 51.2202C154.124 51.4096 154.705 51.6993 155.088 52.0895C155.471 52.4759 155.662 52.974 155.662 53.5838C155.662 54.0838 155.518 54.5308 155.23 54.9247C154.946 55.3187 154.548 55.6293 154.037 55.8565C153.526 56.0838 152.931 56.1974 152.253 56.1974C151.363 56.1974 150.626 56.0043 150.043 55.6179C149.459 55.2315 149.09 54.6671 148.935 53.9247L150.207 53.6065C150.329 54.0762 150.558 54.4285 150.895 54.6634C151.236 54.8982 151.681 55.0156 152.23 55.0156C152.855 55.0156 153.351 54.883 153.719 54.6179C154.09 54.349 154.276 54.027 154.276 53.652C154.276 53.349 154.17 53.0952 153.957 52.8906C153.745 52.6823 153.42 52.527 152.98 52.4247L151.526 52.0838C150.726 51.8944 150.139 51.6009 149.764 51.2031C149.393 50.8016 149.207 50.2997 149.207 49.6974C149.207 49.205 149.346 48.7694 149.622 48.3906C149.902 48.0118 150.283 47.7145 150.764 47.4986C151.249 47.2827 151.798 47.1747 152.412 47.1747C153.276 47.1747 153.954 47.3641 154.446 47.7429C154.942 48.1217 155.295 48.6217 155.503 49.2429ZM161.676 47.2884V48.4247H157.153V47.2884H161.676ZM158.471 45.1974H159.812V53.5156C159.812 53.8944 159.867 54.1785 159.977 54.3679C160.091 54.5535 160.235 54.6785 160.409 54.7429C160.587 54.8035 160.774 54.8338 160.971 54.8338C161.119 54.8338 161.24 54.8262 161.335 54.8111C161.43 54.7921 161.505 54.777 161.562 54.7656L161.835 55.9702C161.744 56.0043 161.617 56.0384 161.454 56.0724C161.291 56.1103 161.085 56.1293 160.835 56.1293C160.456 56.1293 160.085 56.0478 159.721 55.8849C159.361 55.7221 159.062 55.474 158.824 55.1406C158.589 54.8073 158.471 54.3868 158.471 53.8793V45.1974ZM2.99006 74.7656V80.0156H1.64915V71.2884H2.9446V72.652H3.05824C3.26278 72.2088 3.57339 71.8527 3.99006 71.5838C4.40672 71.3111 4.9446 71.1747 5.60369 71.1747C6.1946 71.1747 6.71165 71.2959 7.15483 71.5384C7.59801 71.777 7.94271 72.1406 8.18892 72.6293C8.43513 73.1141 8.55824 73.7277 8.55824 74.4702V80.0156H7.21733V74.5611C7.21733 73.8755 7.0393 73.3414 6.68324 72.9588C6.32718 72.5724 5.83854 72.3793 5.21733 72.3793C4.7893 72.3793 4.40672 72.4721 4.0696 72.6577C3.73627 72.8433 3.47301 73.1141 3.27983 73.4702C3.08665 73.8262 2.99006 74.258 2.99006 74.7656ZM14.8676 80.1974C14.0267 80.1974 13.3013 80.0118 12.6915 79.6406C12.0854 79.2656 11.6176 78.7429 11.2881 78.0724C10.9623 77.3982 10.7994 76.6141 10.7994 75.7202C10.7994 74.8262 10.9623 74.0384 11.2881 73.3565C11.6176 72.6709 12.0759 72.1368 12.6631 71.7543C13.254 71.3679 13.9434 71.1747 14.7312 71.1747C15.1858 71.1747 15.6347 71.2505 16.0778 71.402C16.521 71.5535 16.9244 71.7997 17.2881 72.1406C17.6517 72.4777 17.9415 72.9247 18.1574 73.4815C18.3733 74.0384 18.4812 74.724 18.4812 75.5384V76.1065H11.754V74.9474H17.1176C17.1176 74.455 17.0191 74.0156 16.8222 73.6293C16.629 73.2429 16.3525 72.938 15.9926 72.7145C15.6366 72.491 15.2161 72.3793 14.7312 72.3793C14.1972 72.3793 13.735 72.5118 13.3449 72.777C12.9585 73.0384 12.6612 73.3793 12.4528 73.7997C12.2445 74.2202 12.1403 74.6709 12.1403 75.152V75.9247C12.1403 76.5838 12.254 77.1425 12.4812 77.6009C12.7123 78.0554 13.0324 78.402 13.4415 78.6406C13.8506 78.8755 14.3259 78.9929 14.8676 78.9929C15.2199 78.9929 15.5381 78.9437 15.8222 78.8452C16.11 78.7429 16.3581 78.5914 16.5665 78.3906C16.7748 78.1861 16.9358 77.9323 17.0494 77.6293L18.3449 77.9929C18.2085 78.4323 17.9794 78.8187 17.6574 79.152C17.3354 79.4815 16.9377 79.7391 16.4642 79.9247C15.9907 80.1065 15.4585 80.1974 14.8676 80.1974ZM22.6983 80.0156L20.0392 71.2884H21.4483L23.3347 77.9702H23.4256L25.2892 71.2884H26.721L28.5619 77.9474H28.6528L30.5392 71.2884H31.9483L29.2892 80.0156H27.971L26.0619 73.3111H25.9256L24.0165 80.0156H22.6983ZM40.1028 73.2429L38.8983 73.5838C38.8225 73.383 38.7108 73.188 38.5631 72.9986C38.4191 72.8054 38.2222 72.6463 37.9722 72.5213C37.7222 72.3963 37.4021 72.3338 37.0119 72.3338C36.4778 72.3338 36.0328 72.4569 35.6767 72.7031C35.3244 72.9455 35.1483 73.2543 35.1483 73.6293C35.1483 73.9626 35.2695 74.2259 35.5119 74.419C35.7544 74.6122 36.1331 74.7732 36.6483 74.902L37.9437 75.2202C38.7241 75.4096 39.3055 75.6993 39.6881 76.0895C40.0706 76.4759 40.2619 76.974 40.2619 77.5838C40.2619 78.0838 40.118 78.5308 39.8301 78.9247C39.546 79.3187 39.1483 79.6293 38.6369 79.8565C38.1256 80.0838 37.5309 80.1974 36.8528 80.1974C35.9627 80.1974 35.2259 80.0043 34.6426 79.6179C34.0593 79.2315 33.69 78.6671 33.5347 77.9247L34.8074 77.6065C34.9286 78.0762 35.1578 78.4285 35.4949 78.6634C35.8358 78.8982 36.2809 79.0156 36.8301 79.0156C37.4551 79.0156 37.9513 78.883 38.3187 78.6179C38.69 78.349 38.8756 78.027 38.8756 77.652C38.8756 77.349 38.7695 77.0952 38.5574 76.8906C38.3453 76.6823 38.0195 76.527 37.5801 76.4247L36.1256 76.0838C35.3263 75.8944 34.7392 75.6009 34.3642 75.2031C33.993 74.8016 33.8074 74.2997 33.8074 73.6974C33.8074 73.205 33.9456 72.7694 34.2222 72.3906C34.5025 72.0118 34.8831 71.7145 35.3642 71.4986C35.8491 71.2827 36.3983 71.1747 37.0119 71.1747C37.8756 71.1747 38.5536 71.3641 39.046 71.7429C39.5422 72.1217 39.8945 72.6217 40.1028 73.2429ZM44.4804 78.4247L44.3895 79.0384C44.3251 79.4702 44.2266 79.9323 44.094 80.4247C43.9652 80.9171 43.8308 81.3812 43.6906 81.8168C43.5505 82.2524 43.4349 82.599 43.344 82.8565H42.3213C42.3705 82.6141 42.4349 82.294 42.5145 81.8963C42.594 81.4986 42.6736 81.0535 42.7531 80.5611C42.8365 80.0724 42.9046 79.5724 42.9577 79.0611L43.0259 78.4247H44.4804ZM55.4102 80.1974C54.592 80.1974 53.8875 80.0043 53.2966 79.6179C52.7057 79.2315 52.2511 78.6993 51.933 78.0213C51.6148 77.3433 51.4557 76.5687 51.4557 75.6974C51.4557 74.8111 51.6186 74.0289 51.9443 73.3509C52.2739 72.669 52.7322 72.1368 53.3193 71.7543C53.9102 71.3679 54.5996 71.1747 55.3875 71.1747C56.0011 71.1747 56.5542 71.2884 57.0466 71.5156C57.539 71.7429 57.9424 72.0611 58.2568 72.4702C58.5712 72.8793 58.7663 73.3565 58.842 73.902H57.5011C57.3989 73.5043 57.1716 73.152 56.8193 72.8452C56.4708 72.5346 56.0011 72.3793 55.4102 72.3793C54.8875 72.3793 54.4292 72.5156 54.0352 72.7884C53.6451 73.0573 53.3402 73.438 53.1205 73.9304C52.9045 74.419 52.7966 74.9929 52.7966 75.652C52.7966 76.3262 52.9027 76.9134 53.1148 77.4134C53.3307 77.9134 53.6337 78.3016 54.0239 78.5781C54.4178 78.8546 54.8799 78.9929 55.4102 78.9929C55.7587 78.9929 56.075 78.9323 56.3591 78.8111C56.6432 78.6899 56.8837 78.5156 57.0807 78.2884C57.2777 78.0611 57.4178 77.7884 57.5011 77.4702H58.842C58.7663 77.9853 58.5788 78.4493 58.2795 78.8622C57.9841 79.2713 57.592 79.5971 57.1034 79.8395C56.6186 80.0781 56.0542 80.1974 55.4102 80.1974ZM64.5477 80.1974C63.7599 80.1974 63.0686 80.0099 62.4739 79.6349C61.883 79.2599 61.4208 78.7353 61.0875 78.0611C60.758 77.3868 60.5932 76.599 60.5932 75.6974C60.5932 74.7884 60.758 73.9948 61.0875 73.3168C61.4208 72.6387 61.883 72.1122 62.4739 71.7372C63.0686 71.3622 63.7599 71.1747 64.5477 71.1747C65.3356 71.1747 66.025 71.3622 66.6159 71.7372C67.2106 72.1122 67.6727 72.6387 68.0023 73.3168C68.3356 73.9948 68.5023 74.7884 68.5023 75.6974C68.5023 76.599 68.3356 77.3868 68.0023 78.0611C67.6727 78.7353 67.2106 79.2599 66.6159 79.6349C66.025 80.0099 65.3356 80.1974 64.5477 80.1974ZM64.5477 78.9929C65.1462 78.9929 65.6386 78.8395 66.025 78.5327C66.4114 78.2259 66.6974 77.8224 66.883 77.3224C67.0686 76.8224 67.1614 76.2808 67.1614 75.6974C67.1614 75.1141 67.0686 74.5705 66.883 74.0668C66.6974 73.563 66.4114 73.1558 66.025 72.8452C65.6386 72.5346 65.1462 72.3793 64.5477 72.3793C63.9492 72.3793 63.4568 72.5346 63.0705 72.8452C62.6841 73.1558 62.3981 73.563 62.2125 74.0668C62.0269 74.5705 61.9341 75.1141 61.9341 75.6974C61.9341 76.2808 62.0269 76.8224 62.2125 77.3224C62.3981 77.8224 62.6841 78.2259 63.0705 78.5327C63.4568 78.8395 63.9492 78.9929 64.5477 78.9929ZM70.7491 80.0156V71.2884H72.0446V72.652H72.1582C72.3401 72.1861 72.6336 71.8243 73.0389 71.5668C73.4442 71.3054 73.931 71.1747 74.4991 71.1747C75.0749 71.1747 75.5541 71.3054 75.9366 71.5668C76.323 71.8243 76.6241 72.1861 76.8401 72.652H76.931C77.1544 72.2012 77.4897 71.8433 77.9366 71.5781C78.3836 71.3092 78.9196 71.1747 79.5446 71.1747C80.3249 71.1747 80.9632 71.419 81.4594 71.9077C81.9556 72.3925 82.2037 73.1482 82.2037 74.1747V80.0156H80.8628V74.1747C80.8628 73.5308 80.6866 73.0705 80.3344 72.794C79.9821 72.5175 79.5673 72.3793 79.0901 72.3793C78.4764 72.3793 78.001 72.5649 77.6639 72.9361C77.3268 73.3035 77.1582 73.7694 77.1582 74.3338V80.0156H75.7946V74.0384C75.7946 73.5421 75.6336 73.1425 75.3116 72.8395C74.9897 72.5327 74.5749 72.3793 74.0673 72.3793C73.7188 72.3793 73.3931 72.4721 73.0901 72.6577C72.7908 72.8433 72.5484 73.1009 72.3628 73.4304C72.181 73.7562 72.0901 74.133 72.0901 74.5611V80.0156H70.7491ZM84.8554 83.2884V71.2884H86.1509V72.6747H86.3099C86.4084 72.5232 86.5448 72.33 86.719 72.0952C86.8971 71.8565 87.1509 71.6444 87.4804 71.4588C87.8137 71.2694 88.2645 71.1747 88.8327 71.1747C89.5675 71.1747 90.2152 71.3584 90.7759 71.7259C91.3365 72.0933 91.774 72.6141 92.0884 73.2884C92.4027 73.9626 92.5599 74.758 92.5599 75.6747C92.5599 76.599 92.4027 77.4001 92.0884 78.0781C91.774 78.7524 91.3384 79.2751 90.7815 79.6463C90.2247 80.0137 89.5827 80.1974 88.8554 80.1974C88.2948 80.1974 87.8459 80.1046 87.5088 79.919C87.1717 79.7296 86.9122 79.5156 86.7304 79.277C86.5486 79.0346 86.4084 78.8338 86.3099 78.6747H86.1963V83.2884H84.8554ZM86.1736 75.652C86.1736 76.3111 86.2702 76.8925 86.4634 77.3963C86.6565 77.8963 86.9387 78.2884 87.3099 78.5724C87.6812 78.8527 88.1357 78.9929 88.6736 78.9929C89.2342 78.9929 89.702 78.8452 90.077 78.5497C90.4558 78.2505 90.7399 77.849 90.9293 77.3452C91.1224 76.8376 91.219 76.2732 91.219 75.652C91.219 75.0384 91.1243 74.4853 90.9349 73.9929C90.7493 73.4967 90.4671 73.1046 90.0884 72.8168C89.7134 72.5251 89.2418 72.3793 88.6736 72.3793C88.1281 72.3793 87.6698 72.5175 87.2986 72.794C86.9274 73.0668 86.6471 73.4493 86.4577 73.9418C86.2683 74.4304 86.1736 75.0005 86.1736 75.652ZM97.3736 80.2202C96.8205 80.2202 96.3187 80.116 95.8679 79.9077C95.4171 79.6955 95.0592 79.3906 94.794 78.9929C94.5289 78.5914 94.3963 78.1065 94.3963 77.5384C94.3963 77.0384 94.4948 76.633 94.6918 76.3224C94.8887 76.008 95.152 75.7618 95.4815 75.5838C95.8111 75.4058 96.1747 75.2732 96.5724 75.1861C96.974 75.0952 97.3774 75.0232 97.7827 74.9702C98.313 74.902 98.7429 74.8509 99.0724 74.8168C99.4058 74.7789 99.6482 74.7164 99.7997 74.6293C99.955 74.5421 100.033 74.3906 100.033 74.1747V74.1293C100.033 73.5687 99.8793 73.133 99.5724 72.8224C99.2694 72.5118 98.8092 72.3565 98.1918 72.3565C97.5516 72.3565 97.0497 72.4967 96.6861 72.777C96.3224 73.0573 96.0668 73.3565 95.919 73.6747L94.6463 73.2202C94.8736 72.6899 95.1766 72.277 95.5554 71.9815C95.938 71.6823 96.3546 71.474 96.8054 71.3565C97.2599 71.2353 97.7069 71.1747 98.1463 71.1747C98.4266 71.1747 98.7486 71.2088 99.1122 71.277C99.4796 71.3414 99.8338 71.4759 100.175 71.6804C100.519 71.8849 100.805 72.1937 101.033 72.6065C101.26 73.0194 101.374 73.5724 101.374 74.2656V80.0156H100.033V78.8338H99.9645C99.8736 79.0232 99.7221 79.2259 99.5099 79.4418C99.2978 79.6577 99.0156 79.8414 98.6634 79.9929C98.3111 80.1444 97.8812 80.2202 97.3736 80.2202ZM97.5781 79.0156C98.1084 79.0156 98.5554 78.9115 98.919 78.7031C99.2865 78.4948 99.563 78.2259 99.7486 77.8963C99.938 77.5668 100.033 77.2202 100.033 76.8565V75.6293C99.9759 75.6974 99.8509 75.7599 99.6577 75.8168C99.4683 75.8698 99.2486 75.9171 98.9986 75.9588C98.7524 75.9967 98.5118 76.0308 98.277 76.0611C98.0459 76.0876 97.8584 76.1103 97.7145 76.1293C97.366 76.1747 97.0402 76.2486 96.7372 76.3509C96.438 76.4493 96.1955 76.599 96.0099 76.7997C95.8281 76.9967 95.7372 77.2656 95.7372 77.6065C95.7372 78.0724 95.9096 78.4247 96.2543 78.6634C96.6027 78.8982 97.044 79.0156 97.5781 79.0156ZM105.362 74.7656V80.0156H104.021V71.2884H105.316V72.652H105.43C105.635 72.2088 105.945 71.8527 106.362 71.5838C106.779 71.3111 107.316 71.1747 107.976 71.1747C108.566 71.1747 109.084 71.2959 109.527 71.5384C109.97 71.777 110.315 72.1406 110.561 72.6293C110.807 73.1141 110.93 73.7277 110.93 74.4702V80.0156H109.589V74.5611C109.589 73.8755 109.411 73.3414 109.055 72.9588C108.699 72.5724 108.21 72.3793 107.589 72.3793C107.161 72.3793 106.779 72.4721 106.441 72.6577C106.108 72.8433 105.845 73.1141 105.652 73.4702C105.459 73.8262 105.362 74.258 105.362 74.7656ZM114.132 83.2884C113.904 83.2884 113.702 83.2694 113.524 83.2315C113.346 83.1974 113.222 83.1634 113.154 83.1293L113.495 81.9474C113.821 82.0308 114.109 82.0611 114.359 82.0384C114.609 82.0156 114.83 81.9039 115.024 81.7031C115.221 81.5062 115.4 81.1861 115.563 80.7429L115.813 80.0611L112.586 71.2884H114.041L116.45 78.2429H116.541L118.95 71.2884H120.404L116.7 81.2884C116.533 81.7391 116.327 82.1122 116.08 82.4077C115.834 82.7069 115.548 82.9285 115.222 83.0724C114.9 83.2164 114.537 83.2884 114.132 83.2884ZM127.074 80.0156V71.2884H128.415V80.0156H127.074ZM127.756 69.8338C127.495 69.8338 127.269 69.7448 127.08 69.5668C126.894 69.3887 126.801 69.1747 126.801 68.9247C126.801 68.6747 126.894 68.4607 127.08 68.2827C127.269 68.1046 127.495 68.0156 127.756 68.0156C128.017 68.0156 128.241 68.1046 128.426 68.2827C128.616 68.4607 128.711 68.6747 128.711 68.9247C128.711 69.1747 128.616 69.3887 128.426 69.5668C128.241 69.7448 128.017 69.8338 127.756 69.8338ZM132.412 74.7656V80.0156H131.071V71.2884H132.366V72.652H132.48C132.685 72.2088 132.995 71.8527 133.412 71.5838C133.829 71.3111 134.366 71.1747 135.026 71.1747C135.616 71.1747 136.134 71.2959 136.577 71.5384C137.02 71.777 137.365 72.1406 137.611 72.6293C137.857 73.1141 137.98 73.7277 137.98 74.4702V80.0156H136.639V74.5611C136.639 73.8755 136.461 73.3414 136.105 72.9588C135.749 72.5724 135.26 72.3793 134.639 72.3793C134.211 72.3793 133.829 72.4721 133.491 72.6577C133.158 72.8433 132.895 73.1141 132.702 73.4702C132.509 73.8262 132.412 74.258 132.412 74.7656ZM146.812 73.2429L145.608 73.5838C145.532 73.383 145.42 73.188 145.272 72.9986C145.129 72.8054 144.932 72.6463 144.682 72.5213C144.432 72.3963 144.111 72.3338 143.721 72.3338C143.187 72.3338 142.742 72.4569 142.386 72.7031C142.034 72.9455 141.858 73.2543 141.858 73.6293C141.858 73.9626 141.979 74.2259 142.221 74.419C142.464 74.6122 142.843 74.7732 143.358 74.902L144.653 75.2202C145.433 75.4096 146.015 75.6993 146.397 76.0895C146.78 76.4759 146.971 76.974 146.971 77.5838C146.971 78.0838 146.827 78.5308 146.539 78.9247C146.255 79.3187 145.858 79.6293 145.346 79.8565C144.835 80.0838 144.24 80.1974 143.562 80.1974C142.672 80.1974 141.935 80.0043 141.352 79.6179C140.769 79.2315 140.399 78.6671 140.244 77.9247L141.517 77.6065C141.638 78.0762 141.867 78.4285 142.204 78.6634C142.545 78.8982 142.99 79.0156 143.539 79.0156C144.164 79.0156 144.661 78.883 145.028 78.6179C145.399 78.349 145.585 78.027 145.585 77.652C145.585 77.349 145.479 77.0952 145.267 76.8906C145.055 76.6823 144.729 76.527 144.289 76.4247L142.835 76.0838C142.036 75.8944 141.449 75.6009 141.074 75.2031C140.702 74.8016 140.517 74.2997 140.517 73.6974C140.517 73.205 140.655 72.7694 140.932 72.3906C141.212 72.0118 141.593 71.7145 142.074 71.4986C142.558 71.2827 143.108 71.1747 143.721 71.1747C144.585 71.1747 145.263 71.3641 145.755 71.7429C146.252 72.1217 146.604 72.6217 146.812 73.2429ZM149.19 80.0156V71.2884H150.531V80.0156H149.19ZM149.872 69.8338C149.61 69.8338 149.385 69.7448 149.195 69.5668C149.01 69.3887 148.917 69.1747 148.917 68.9247C148.917 68.6747 149.01 68.4607 149.195 68.2827C149.385 68.1046 149.61 68.0156 149.872 68.0156C150.133 68.0156 150.356 68.1046 150.542 68.2827C150.731 68.4607 150.826 68.6747 150.826 68.9247C150.826 69.1747 150.731 69.3887 150.542 69.5668C150.356 69.7448 150.133 69.8338 149.872 69.8338ZM156.709 83.4702C156.062 83.4702 155.505 83.3868 155.039 83.2202C154.573 83.0573 154.185 82.8414 153.874 82.5724C153.567 82.3073 153.323 82.0232 153.141 81.7202L154.209 80.9702C154.331 81.1293 154.484 81.3111 154.67 81.5156C154.855 81.724 155.109 81.9039 155.431 82.0554C155.757 82.2107 156.183 82.2884 156.709 82.2884C157.414 82.2884 157.995 82.1179 158.454 81.777C158.912 81.4361 159.141 80.902 159.141 80.1747V78.402H159.028C158.929 78.5611 158.789 78.758 158.607 78.9929C158.429 79.224 158.172 79.4304 157.834 79.6122C157.501 79.7902 157.05 79.8793 156.482 79.8793C155.778 79.8793 155.145 79.7126 154.584 79.3793C154.028 79.0459 153.586 78.5611 153.261 77.9247C152.939 77.2884 152.778 76.5156 152.778 75.6065C152.778 74.7126 152.935 73.9342 153.249 73.2713C153.564 72.6046 154.001 72.0895 154.562 71.7259C155.122 71.3584 155.77 71.1747 156.505 71.1747C157.073 71.1747 157.524 71.2694 157.857 71.4588C158.194 71.6444 158.452 71.8565 158.63 72.0952C158.812 72.33 158.952 72.5232 159.05 72.6747H159.187V71.2884H160.482V80.2656C160.482 81.0156 160.312 81.6255 159.971 82.0952C159.634 82.5687 159.179 82.9152 158.607 83.1349C158.039 83.3584 157.406 83.4702 156.709 83.4702ZM156.664 78.6747C157.202 78.6747 157.656 78.5516 158.028 78.3054C158.399 78.0592 158.681 77.705 158.874 77.2429C159.067 76.7808 159.164 76.2277 159.164 75.5838C159.164 74.955 159.069 74.4001 158.88 73.919C158.69 73.438 158.41 73.0611 158.039 72.7884C157.668 72.5156 157.209 72.3793 156.664 72.3793C156.096 72.3793 155.622 72.5232 155.243 72.8111C154.868 73.099 154.586 73.4853 154.397 73.9702C154.211 74.455 154.118 74.9929 154.118 75.5838C154.118 76.1899 154.213 76.7259 154.403 77.1918C154.596 77.6539 154.88 78.0175 155.255 78.2827C155.634 78.544 156.103 78.6747 156.664 78.6747ZM164.478 74.7656V80.0156H163.137V68.3793H164.478V72.652H164.591C164.796 72.2012 165.103 71.8433 165.512 71.5781C165.925 71.3092 166.474 71.1747 167.159 71.1747C167.754 71.1747 168.275 71.294 168.722 71.5327C169.169 71.7675 169.515 72.1293 169.762 72.6179C170.012 73.1027 170.137 73.7202 170.137 74.4702V80.0156H168.796V74.5611C168.796 73.8679 168.616 73.3319 168.256 72.9531C167.9 72.5705 167.406 72.3793 166.773 72.3793C166.334 72.3793 165.94 72.4721 165.591 72.6577C165.246 72.8433 164.974 73.1141 164.773 73.4702C164.576 73.8262 164.478 74.258 164.478 74.7656ZM176.585 71.2884V72.4247H172.062V71.2884H176.585ZM173.381 69.1974H174.722V77.5156C174.722 77.8944 174.777 78.1785 174.886 78.3679C175 78.5535 175.144 78.6785 175.318 78.7429C175.496 78.8035 175.684 78.8338 175.881 78.8338C176.028 78.8338 176.15 78.8262 176.244 78.8111C176.339 78.7921 176.415 78.777 176.472 78.7656L176.744 79.9702C176.653 80.0043 176.527 80.0384 176.364 80.0724C176.201 80.1103 175.994 80.1293 175.744 80.1293C175.366 80.1293 174.994 80.0478 174.631 79.8849C174.271 79.7221 173.972 79.474 173.733 79.1406C173.498 78.8073 173.381 78.3868 173.381 77.8793V69.1974ZM184.828 73.2429L183.623 73.5838C183.548 73.383 183.436 73.188 183.288 72.9986C183.144 72.8054 182.947 72.6463 182.697 72.5213C182.447 72.3963 182.127 72.3338 181.737 72.3338C181.203 72.3338 180.758 72.4569 180.402 72.7031C180.049 72.9455 179.873 73.2543 179.873 73.6293C179.873 73.9626 179.995 74.2259 180.237 74.419C180.479 74.6122 180.858 74.7732 181.373 74.902L182.669 75.2202C183.449 75.4096 184.03 75.6993 184.413 76.0895C184.796 76.4759 184.987 76.974 184.987 77.5838C184.987 78.0838 184.843 78.5308 184.555 78.9247C184.271 79.3187 183.873 79.6293 183.362 79.8565C182.851 80.0838 182.256 80.1974 181.578 80.1974C180.688 80.1974 179.951 80.0043 179.368 79.6179C178.784 79.2315 178.415 78.6671 178.26 77.9247L179.532 77.6065C179.654 78.0762 179.883 78.4285 180.22 78.6634C180.561 78.8982 181.006 79.0156 181.555 79.0156C182.18 79.0156 182.676 78.883 183.044 78.6179C183.415 78.349 183.601 78.027 183.601 77.652C183.601 77.349 183.495 77.0952 183.282 76.8906C183.07 76.6823 182.745 76.527 182.305 76.4247L180.851 76.0838C180.051 75.8944 179.464 75.6009 179.089 75.2031C178.718 74.8016 178.532 74.2997 178.532 73.6974C178.532 73.205 178.671 72.7694 178.947 72.3906C179.227 72.0118 179.608 71.7145 180.089 71.4986C180.574 71.2827 181.123 71.1747 181.737 71.1747C182.601 71.1747 183.279 71.3641 183.771 71.7429C184.267 72.1217 184.62 72.6217 184.828 73.2429ZM189.205 78.4247L189.114 79.0384C189.05 79.4702 188.952 79.9323 188.819 80.4247C188.69 80.9171 188.556 81.3812 188.416 81.8168C188.275 82.2524 188.16 82.599 188.069 82.8565H187.046C187.096 82.6141 187.16 82.294 187.239 81.8963C187.319 81.4986 187.399 81.0535 187.478 80.5611C187.561 80.0724 187.63 79.5724 187.683 79.0611L187.751 78.4247H189.205ZM4.21733 104.22C3.6643 104.22 3.16241 104.116 2.71165 103.908C2.26089 103.696 1.90294 103.391 1.63778 102.993C1.37263 102.591 1.24006 102.107 1.24006 101.538C1.24006 101.038 1.33854 100.633 1.53551 100.322C1.73248 100.008 1.99574 99.7618 2.32528 99.5838C2.65483 99.4058 3.01847 99.2732 3.41619 99.1861C3.81771 99.0952 4.22112 99.0232 4.62642 98.9702C5.15672 98.902 5.58665 98.8509 5.91619 98.8168C6.24953 98.7789 6.49195 98.7164 6.64347 98.6293C6.79877 98.5421 6.87642 98.3906 6.87642 98.1747V98.1293C6.87642 97.5687 6.72301 97.133 6.41619 96.8224C6.11316 96.5118 5.65294 96.3565 5.03551 96.3565C4.39536 96.3565 3.89347 96.4967 3.52983 96.777C3.16619 97.0573 2.91051 97.3565 2.76278 97.6747L1.49006 97.2202C1.71733 96.6899 2.02036 96.277 2.39915 95.9815C2.78172 95.6823 3.19839 95.474 3.64915 95.3565C4.10369 95.2353 4.55066 95.1747 4.99006 95.1747C5.27036 95.1747 5.59233 95.2088 5.95597 95.277C6.32339 95.3414 6.67756 95.4759 7.01847 95.6804C7.36316 95.8849 7.64915 96.1937 7.87642 96.6065C8.10369 97.0194 8.21733 97.5724 8.21733 98.2656V104.016H6.87642V102.834H6.80824C6.71733 103.023 6.56581 103.226 6.35369 103.442C6.14157 103.658 5.85938 103.841 5.5071 103.993C5.15483 104.144 4.72491 104.22 4.21733 104.22ZM4.42188 103.016C4.95218 103.016 5.39915 102.911 5.76278 102.703C6.13021 102.495 6.40672 102.226 6.59233 101.896C6.78172 101.567 6.87642 101.22 6.87642 100.857V99.6293C6.8196 99.6974 6.6946 99.7599 6.50142 99.8168C6.31203 99.8698 6.09233 99.9171 5.84233 99.9588C5.59612 99.9967 5.35559 100.031 5.12074 100.061C4.88968 100.088 4.70218 100.11 4.55824 100.129C4.20975 100.175 3.884 100.249 3.58097 100.351C3.28172 100.449 3.0393 100.599 2.85369 100.8C2.67188 100.997 2.58097 101.266 2.58097 101.607C2.58097 102.072 2.75331 102.425 3.09801 102.663C3.4465 102.898 3.88778 103.016 4.42188 103.016ZM12.2057 98.7656V104.016H10.8648V95.2884H12.1602V96.652H12.2739C12.4784 96.2088 12.789 95.8527 13.2057 95.5838C13.6223 95.3111 14.1602 95.1747 14.8193 95.1747C15.4102 95.1747 15.9273 95.2959 16.3705 95.5384C16.8136 95.777 17.1583 96.1406 17.4045 96.6293C17.6508 97.1141 17.7739 97.7277 17.7739 98.4702V104.016H16.433V98.5611C16.433 97.8755 16.2549 97.3414 15.8989 96.9588C15.5428 96.5724 15.0542 96.3793 14.433 96.3793C14.0049 96.3793 13.6223 96.4721 13.2852 96.6577C12.9519 96.8433 12.6886 97.1141 12.4955 97.4702C12.3023 97.8262 12.2057 98.258 12.2057 98.7656ZM23.7196 104.197C22.9923 104.197 22.3503 104.014 21.7935 103.646C21.2366 103.275 20.801 102.752 20.4866 102.078C20.1723 101.4 20.0151 100.599 20.0151 99.6747C20.0151 98.758 20.1723 97.9626 20.4866 97.2884C20.801 96.6141 21.2385 96.0933 21.7991 95.7259C22.3598 95.3584 23.0075 95.1747 23.7423 95.1747C24.3105 95.1747 24.7594 95.2694 25.0889 95.4588C25.4223 95.6444 25.676 95.8565 25.8503 96.0952C26.0283 96.33 26.1666 96.5232 26.2651 96.6747H26.3787V92.3793H27.7196V104.016H26.4241V102.675H26.2651C26.1666 102.834 26.0264 103.035 25.8446 103.277C25.6628 103.516 25.4033 103.73 25.0662 103.919C24.7291 104.105 24.2802 104.197 23.7196 104.197ZM23.9014 102.993C24.4393 102.993 24.8938 102.853 25.2651 102.572C25.6363 102.288 25.9185 101.896 26.1116 101.396C26.3048 100.893 26.4014 100.311 26.4014 99.652C26.4014 99.0005 26.3067 98.4304 26.1173 97.9418C25.9279 97.4493 25.6476 97.0668 25.2764 96.794C24.9052 96.5175 24.4469 96.3793 23.9014 96.3793C23.3332 96.3793 22.8598 96.5251 22.481 96.8168C22.106 97.1046 21.8238 97.4967 21.6344 97.9929C21.4488 98.4853 21.356 99.0384 21.356 99.652C21.356 100.273 21.4507 100.838 21.6401 101.345C21.8332 101.849 22.1173 102.25 22.4923 102.55C22.8711 102.845 23.3408 102.993 23.9014 102.993ZM37.5571 104.016L34.3753 92.3793H35.8071L38.2389 101.857H38.3526L40.8298 92.3793H42.4207L44.898 101.857H45.0116L47.4435 92.3793H48.8753L45.6935 104.016H44.2389L41.6707 94.7429H41.5798L39.0116 104.016H37.5571ZM51.9901 98.7656V104.016H50.6491V92.3793H51.9901V96.652H52.1037C52.3082 96.2012 52.6151 95.8433 53.0241 95.5781C53.437 95.3092 53.9863 95.1747 54.6719 95.1747C55.2666 95.1747 55.7874 95.294 56.2344 95.5327C56.6813 95.7675 57.0279 96.1293 57.2741 96.6179C57.5241 97.1027 57.6491 97.7202 57.6491 98.4702V104.016H56.3082V98.5611C56.3082 97.8679 56.1283 97.3319 55.7685 96.9531C55.4124 96.5705 54.9181 96.3793 54.2855 96.3793C53.8461 96.3793 53.4522 96.4721 53.1037 96.6577C52.759 96.8433 52.4863 97.1141 52.2855 97.4702C52.0885 97.8262 51.9901 98.258 51.9901 98.7656ZM60.3023 104.016V95.2884H61.6432V104.016H60.3023ZM60.9841 93.8338C60.7227 93.8338 60.4973 93.7448 60.308 93.5668C60.1223 93.3887 60.0295 93.1747 60.0295 92.9247C60.0295 92.6747 60.1223 92.4607 60.308 92.2827C60.4973 92.1046 60.7227 92.0156 60.9841 92.0156C61.2455 92.0156 61.4689 92.1046 61.6545 92.2827C61.8439 92.4607 61.9386 92.6747 61.9386 92.9247C61.9386 93.1747 61.8439 93.3887 61.6545 93.5668C61.4689 93.7448 61.2455 93.8338 60.9841 93.8338ZM64.2991 104.016V95.2884H65.5946V96.6065H65.6855C65.8446 96.1747 66.1325 95.8243 66.5491 95.5554C66.9658 95.2865 67.4355 95.152 67.9582 95.152C68.0567 95.152 68.1798 95.1539 68.3276 95.1577C68.4753 95.1615 68.587 95.1671 68.6628 95.1747V96.5384C68.6173 96.527 68.5132 96.5099 68.3503 96.4872C68.1912 96.4607 68.0226 96.4474 67.8446 96.4474C67.4204 96.4474 67.0416 96.5365 66.7082 96.7145C66.3787 96.8887 66.1173 97.1312 65.9241 97.4418C65.7348 97.7486 65.6401 98.099 65.6401 98.4929V104.016H64.2991ZM71.7932 92.3793V104.016H70.4523V92.3793H71.7932ZM84.6491 100.447V95.2884H85.9901V104.016H84.6491V102.538H84.5582C84.3537 102.982 84.0355 103.358 83.6037 103.669C83.1719 103.976 82.6264 104.129 81.9673 104.129C81.4219 104.129 80.937 104.01 80.5128 103.771C80.0885 103.529 79.7552 103.165 79.5128 102.68C79.2704 102.192 79.1491 101.576 79.1491 100.834V95.2884H80.4901V100.743C80.4901 101.379 80.6681 101.887 81.0241 102.266C81.384 102.644 81.8423 102.834 82.3991 102.834C82.7325 102.834 83.0715 102.749 83.4162 102.578C83.7647 102.408 84.0563 102.146 84.2912 101.794C84.5298 101.442 84.6491 100.993 84.6491 100.447ZM88.646 107.288V95.2884H89.9415V96.6747H90.1006C90.1991 96.5232 90.3354 96.33 90.5097 96.0952C90.6877 95.8565 90.9415 95.6444 91.271 95.4588C91.6044 95.2694 92.0551 95.1747 92.6233 95.1747C93.3581 95.1747 94.0059 95.3584 94.5665 95.7259C95.1271 96.0933 95.5646 96.6141 95.879 97.2884C96.1934 97.9626 96.3506 98.758 96.3506 99.6747C96.3506 100.599 96.1934 101.4 95.879 102.078C95.5646 102.752 95.129 103.275 94.5722 103.646C94.0153 104.014 93.3733 104.197 92.646 104.197C92.0854 104.197 91.6366 104.105 91.2994 103.919C90.9623 103.73 90.7028 103.516 90.521 103.277C90.3392 103.035 90.1991 102.834 90.1006 102.675H89.9869V107.288H88.646ZM89.9642 99.652C89.9642 100.311 90.0608 100.893 90.254 101.396C90.4472 101.896 90.7294 102.288 91.1006 102.572C91.4718 102.853 91.9263 102.993 92.4642 102.993C93.0248 102.993 93.4926 102.845 93.8676 102.55C94.2464 102.25 94.5305 101.849 94.7199 101.345C94.9131 100.838 95.0097 100.273 95.0097 99.652C95.0097 99.0384 94.915 98.4853 94.7256 97.9929C94.54 97.4967 94.2578 97.1046 93.879 96.8168C93.504 96.5251 93.0324 96.3793 92.4642 96.3793C91.9187 96.3793 91.4604 96.5175 91.0892 96.794C90.718 97.0668 90.4377 97.4493 90.2483 97.9418C90.0589 98.4304 89.9642 99.0005 89.9642 99.652ZM101.891 104.197C101.164 104.197 100.522 104.014 99.9653 103.646C99.4085 103.275 98.9729 102.752 98.6585 102.078C98.3441 101.4 98.1869 100.599 98.1869 99.6747C98.1869 98.758 98.3441 97.9626 98.6585 97.2884C98.9729 96.6141 99.4104 96.0933 99.971 95.7259C100.532 95.3584 101.179 95.1747 101.914 95.1747C102.482 95.1747 102.931 95.2694 103.261 95.4588C103.594 95.6444 103.848 95.8565 104.022 96.0952C104.2 96.33 104.338 96.5232 104.437 96.6747H104.551V92.3793H105.891V104.016H104.596V102.675H104.437C104.338 102.834 104.198 103.035 104.016 103.277C103.835 103.516 103.575 103.73 103.238 103.919C102.901 104.105 102.452 104.197 101.891 104.197ZM102.073 102.993C102.611 102.993 103.066 102.853 103.437 102.572C103.808 102.288 104.09 101.896 104.284 101.396C104.477 100.893 104.573 100.311 104.573 99.652C104.573 99.0005 104.479 98.4304 104.289 97.9418C104.1 97.4493 103.82 97.0668 103.448 96.794C103.077 96.5175 102.619 96.3793 102.073 96.3793C101.505 96.3793 101.032 96.5251 100.653 96.8168C100.278 97.1046 99.9956 97.4967 99.8063 97.9929C99.6206 98.4853 99.5278 99.0384 99.5278 99.652C99.5278 100.273 99.6225 100.838 99.8119 101.345C100.005 101.849 100.289 102.25 100.664 102.55C101.043 102.845 101.513 102.993 102.073 102.993ZM111.302 104.22C110.749 104.22 110.247 104.116 109.796 103.908C109.345 103.696 108.987 103.391 108.722 102.993C108.457 102.591 108.324 102.107 108.324 101.538C108.324 101.038 108.423 100.633 108.62 100.322C108.817 100.008 109.08 99.7618 109.41 99.5838C109.739 99.4058 110.103 99.2732 110.501 99.1861C110.902 99.0952 111.305 99.0232 111.711 98.9702C112.241 98.902 112.671 98.8509 113.001 98.8168C113.334 98.7789 113.576 98.7164 113.728 98.6293C113.883 98.5421 113.961 98.3906 113.961 98.1747V98.1293C113.961 97.5687 113.807 97.133 113.501 96.8224C113.198 96.5118 112.737 96.3565 112.12 96.3565C111.48 96.3565 110.978 96.4967 110.614 96.777C110.251 97.0573 109.995 97.3565 109.847 97.6747L108.574 97.2202C108.802 96.6899 109.105 96.277 109.484 95.9815C109.866 95.6823 110.283 95.474 110.734 95.3565C111.188 95.2353 111.635 95.1747 112.074 95.1747C112.355 95.1747 112.677 95.2088 113.04 95.277C113.408 95.3414 113.762 95.4759 114.103 95.6804C114.448 95.8849 114.734 96.1937 114.961 96.6065C115.188 97.0194 115.302 97.5724 115.302 98.2656V104.016H113.961V102.834H113.893C113.802 103.023 113.65 103.226 113.438 103.442C113.226 103.658 112.944 103.841 112.591 103.993C112.239 104.144 111.809 104.22 111.302 104.22ZM111.506 103.016C112.037 103.016 112.484 102.911 112.847 102.703C113.215 102.495 113.491 102.226 113.677 101.896C113.866 101.567 113.961 101.22 113.961 100.857V99.6293C113.904 99.6974 113.779 99.7599 113.586 99.8168C113.396 99.8698 113.177 99.9171 112.927 99.9588C112.68 99.9967 112.44 100.031 112.205 100.061C111.974 100.088 111.787 100.11 111.643 100.129C111.294 100.175 110.968 100.249 110.665 100.351C110.366 100.449 110.124 100.599 109.938 100.8C109.756 100.997 109.665 101.266 109.665 101.607C109.665 102.072 109.838 102.425 110.182 102.663C110.531 102.898 110.972 103.016 111.506 103.016ZM121.745 95.2884V96.4247H117.222V95.2884H121.745ZM118.54 93.1974H119.881V101.516C119.881 101.894 119.936 102.179 120.046 102.368C120.159 102.554 120.303 102.679 120.478 102.743C120.656 102.804 120.843 102.834 121.04 102.834C121.188 102.834 121.309 102.826 121.404 102.811C121.498 102.792 121.574 102.777 121.631 102.766L121.904 103.97C121.813 104.004 121.686 104.038 121.523 104.072C121.36 104.11 121.154 104.129 120.904 104.129C120.525 104.129 120.154 104.048 119.79 103.885C119.43 103.722 119.131 103.474 118.892 103.141C118.657 102.807 118.54 102.387 118.54 101.879V93.1974ZM127.527 104.197C126.686 104.197 125.961 104.012 125.351 103.641C124.745 103.266 124.277 102.743 123.947 102.072C123.622 101.398 123.459 100.614 123.459 99.7202C123.459 98.8262 123.622 98.0384 123.947 97.3565C124.277 96.6709 124.735 96.1368 125.322 95.7543C125.913 95.3679 126.603 95.1747 127.391 95.1747C127.845 95.1747 128.294 95.2505 128.737 95.402C129.18 95.5535 129.584 95.7997 129.947 96.1406C130.311 96.4777 130.601 96.9247 130.817 97.4815C131.033 98.0384 131.141 98.724 131.141 99.5384V100.107H124.413V98.9474H129.777C129.777 98.455 129.679 98.0156 129.482 97.6293C129.288 97.2429 129.012 96.938 128.652 96.7145C128.296 96.491 127.875 96.3793 127.391 96.3793C126.857 96.3793 126.394 96.5118 126.004 96.777C125.618 97.0384 125.321 97.3793 125.112 97.7997C124.904 98.2202 124.8 98.6709 124.8 99.152V99.9247C124.8 100.584 124.913 101.143 125.141 101.601C125.372 102.055 125.692 102.402 126.101 102.641C126.51 102.875 126.985 102.993 127.527 102.993C127.879 102.993 128.197 102.944 128.482 102.845C128.769 102.743 129.018 102.591 129.226 102.391C129.434 102.186 129.595 101.932 129.709 101.629L131.004 101.993C130.868 102.432 130.639 102.819 130.317 103.152C129.995 103.482 129.597 103.739 129.124 103.925C128.65 104.107 128.118 104.197 127.527 104.197ZM139.562 97.2429L138.358 97.5838C138.282 97.383 138.17 97.188 138.022 96.9986C137.879 96.8054 137.682 96.6463 137.432 96.5213C137.182 96.3963 136.861 96.3338 136.471 96.3338C135.937 96.3338 135.492 96.4569 135.136 96.7031C134.784 96.9455 134.608 97.2543 134.608 97.6293C134.608 97.9626 134.729 98.2259 134.971 98.419C135.214 98.6122 135.593 98.7732 136.108 98.902L137.403 99.2202C138.183 99.4096 138.765 99.6993 139.147 100.089C139.53 100.476 139.721 100.974 139.721 101.584C139.721 102.084 139.577 102.531 139.289 102.925C139.005 103.319 138.608 103.629 138.096 103.857C137.585 104.084 136.99 104.197 136.312 104.197C135.422 104.197 134.685 104.004 134.102 103.618C133.519 103.232 133.149 102.667 132.994 101.925L134.267 101.607C134.388 102.076 134.617 102.429 134.954 102.663C135.295 102.898 135.74 103.016 136.289 103.016C136.914 103.016 137.411 102.883 137.778 102.618C138.149 102.349 138.335 102.027 138.335 101.652C138.335 101.349 138.229 101.095 138.017 100.891C137.805 100.682 137.479 100.527 137.039 100.425L135.585 100.084C134.786 99.8944 134.199 99.6009 133.824 99.2031C133.452 98.8016 133.267 98.2997 133.267 97.6974C133.267 97.205 133.405 96.7694 133.682 96.3906C133.962 96.0118 134.343 95.7145 134.824 95.4986C135.308 95.2827 135.858 95.1747 136.471 95.1747C137.335 95.1747 138.013 95.3641 138.505 95.7429C139.002 96.1217 139.354 96.6217 139.562 97.2429ZM142.917 104.107C142.637 104.107 142.396 104.006 142.195 103.805C141.995 103.605 141.894 103.364 141.894 103.084C141.894 102.804 141.995 102.563 142.195 102.362C142.396 102.161 142.637 102.061 142.917 102.061C143.197 102.061 143.438 102.161 143.639 102.362C143.839 102.563 143.94 102.804 143.94 103.084C143.94 103.269 143.892 103.44 143.798 103.595C143.707 103.75 143.584 103.875 143.428 103.97C143.277 104.061 143.106 104.107 142.917 104.107Z" fill="#1F1F1F"/>
<rect y="168" width="216.391" height="1" fill="#C2CDD8"/>
<path d="M0.421875 124.016H216.422V168.016H0.421875V124.016Z" fill="white"/>
<path d="M15.7543 146.561H17.0653L19.6875 150.974H19.7983L22.4205 146.561H23.7315L20.3153 152.119V156.016H19.1705V152.119L15.7543 146.561ZM27.1423 156.163C26.5021 156.163 25.9405 156.011 25.4573 155.706C24.9772 155.402 24.6017 154.975 24.3309 154.428C24.0631 153.88 23.9292 153.24 23.9292 152.507C23.9292 151.768 24.0631 151.124 24.3309 150.573C24.6017 150.022 24.9772 149.594 25.4573 149.289C25.9405 148.985 26.5021 148.832 27.1423 148.832C27.7824 148.832 28.3426 148.985 28.8227 149.289C29.3059 149.594 29.6814 150.022 29.9491 150.573C30.2199 151.124 30.3554 151.768 30.3554 152.507C30.3554 153.24 30.2199 153.88 29.9491 154.428C29.6814 154.975 29.3059 155.402 28.8227 155.706C28.3426 156.011 27.7824 156.163 27.1423 156.163ZM27.1423 155.185C27.6286 155.185 28.0287 155.06 28.3426 154.811C28.6565 154.561 28.8889 154.234 29.0397 153.827C29.1905 153.421 29.2659 152.981 29.2659 152.507C29.2659 152.033 29.1905 151.592 29.0397 151.182C28.8889 150.773 28.6565 150.442 28.3426 150.19C28.0287 149.937 27.6286 149.811 27.1423 149.811C26.656 149.811 26.2559 149.937 25.942 150.19C25.6281 150.442 25.3957 150.773 25.2449 151.182C25.0941 151.592 25.0187 152.033 25.0187 152.507C25.0187 152.981 25.0941 153.421 25.2449 153.827C25.3957 154.234 25.6281 154.561 25.942 154.811C26.2559 155.06 26.656 155.185 27.1423 155.185ZM36.6872 153.116V148.925H37.7767V156.016H36.6872V154.815H36.6133C36.4471 155.175 36.1886 155.482 35.8378 155.734C35.4869 155.983 35.0437 156.108 34.5082 156.108C34.065 156.108 33.6711 156.011 33.3264 155.817C32.9817 155.62 32.7109 155.325 32.5139 154.931C32.3169 154.534 32.2184 154.034 32.2184 153.43V148.925H33.3079V153.357C33.3079 153.874 33.4526 154.286 33.7419 154.594C34.0343 154.902 34.4067 155.055 34.8591 155.055C35.1299 155.055 35.4054 154.986 35.6854 154.848C35.9686 154.709 36.2055 154.497 36.3964 154.211C36.5903 153.924 36.6872 153.56 36.6872 153.116ZM39.9722 156.016V148.925H41.0247V149.996H41.0986C41.2278 149.645 41.4617 149.36 41.8003 149.142C42.1388 148.923 42.5205 148.814 42.9452 148.814C43.0252 148.814 43.1252 148.815 43.2452 148.819C43.3653 148.822 43.4561 148.826 43.5176 148.832V149.94C43.4807 149.931 43.396 149.917 43.2637 149.899C43.1344 149.877 42.9975 149.866 42.8528 149.866C42.5081 149.866 42.2004 149.939 41.9295 150.083C41.6618 150.225 41.4494 150.422 41.2925 150.674C41.1386 150.924 41.0616 151.208 41.0616 151.528V156.016H39.9722ZM51.8383 156.163C51.1551 156.163 50.5657 156.013 50.0702 155.711C49.5778 155.406 49.1977 154.982 48.93 154.437C48.6653 153.889 48.5329 153.252 48.5329 152.526C48.5329 151.799 48.6653 151.159 48.93 150.605C49.1977 150.048 49.5701 149.614 50.0471 149.303C50.5273 148.989 51.0874 148.832 51.7275 148.832C52.0969 148.832 52.4616 148.894 52.8216 149.017C53.1817 149.14 53.5095 149.34 53.805 149.617C54.1004 149.891 54.3358 150.254 54.5113 150.707C54.6867 151.159 54.7744 151.716 54.7744 152.378V152.839H49.3085V151.898H53.6665C53.6665 151.498 53.5864 151.141 53.4264 150.827C53.2694 150.513 53.0448 150.265 52.7524 150.083C52.4631 149.902 52.1215 149.811 51.7275 149.811C51.2936 149.811 50.9181 149.919 50.6011 150.134C50.2872 150.347 50.0456 150.624 49.8763 150.965C49.7071 151.307 49.6224 151.673 49.6224 152.064V152.692C49.6224 153.227 49.7148 153.681 49.8994 154.054C50.0872 154.423 50.3472 154.705 50.6796 154.898C51.012 155.089 51.3982 155.185 51.8383 155.185C52.1246 155.185 52.3831 155.145 52.6139 155.065C52.8478 154.982 53.0494 154.858 53.2187 154.695C53.3879 154.529 53.5187 154.323 53.6111 154.077L54.6636 154.372C54.5528 154.729 54.3666 155.043 54.105 155.314C53.8434 155.582 53.5203 155.791 53.1356 155.942C52.7509 156.089 52.3184 156.163 51.8383 156.163ZM56.6317 156.016V148.925H57.6843V150.033H57.7766C57.9243 149.654 58.1629 149.36 58.4922 149.151C58.8215 148.939 59.217 148.832 59.6786 148.832C60.1464 148.832 60.5357 148.939 60.8466 149.151C61.1605 149.36 61.4052 149.654 61.5806 150.033H61.6545C61.836 149.666 62.1084 149.376 62.4716 149.16C62.8347 148.942 63.2702 148.832 63.778 148.832C64.412 148.832 64.9306 149.031 65.3338 149.428C65.737 149.822 65.9385 150.436 65.9385 151.27V156.016H64.8491V151.27C64.8491 150.747 64.7059 150.373 64.4197 150.148C64.1335 149.923 63.7965 149.811 63.4087 149.811C62.9101 149.811 62.5239 149.962 62.25 150.263C61.9761 150.562 61.8391 150.941 61.8391 151.399V156.016H60.7312V151.159C60.7312 150.756 60.6004 150.431 60.3388 150.185C60.0772 149.936 59.7402 149.811 59.3278 149.811C59.0446 149.811 58.7799 149.886 58.5337 150.037C58.2906 150.188 58.0936 150.397 57.9428 150.665C57.7951 150.93 57.7212 151.236 57.7212 151.584V156.016H56.6317ZM70.2172 156.182C69.7679 156.182 69.3601 156.097 68.9938 155.928C68.6276 155.756 68.3368 155.508 68.1213 155.185C67.9059 154.858 67.7982 154.464 67.7982 154.003C67.7982 153.597 67.8782 153.267 68.0382 153.015C68.1983 152.759 68.4122 152.559 68.6799 152.415C68.9477 152.27 69.2431 152.162 69.5663 152.092C69.8925 152.018 70.2203 151.959 70.5496 151.916C70.9805 151.861 71.3298 151.819 71.5975 151.792C71.8684 151.761 72.0653 151.71 72.1884 151.639C72.3146 151.568 72.3777 151.445 72.3777 151.27V151.233C72.3777 150.777 72.2531 150.424 72.0038 150.171C71.7576 149.919 71.3836 149.793 70.882 149.793C70.3619 149.793 69.9541 149.906 69.6586 150.134C69.3632 150.362 69.1554 150.605 69.0354 150.864L68.0013 150.494C68.186 150.063 68.4322 149.728 68.7399 149.488C69.0508 149.245 69.3893 149.076 69.7556 148.98C70.1249 148.882 70.488 148.832 70.845 148.832C71.0728 148.832 71.3344 148.86 71.6298 148.915C71.9284 148.968 72.2161 149.077 72.4931 149.243C72.7732 149.409 73.0056 149.66 73.1902 149.996C73.3749 150.331 73.4672 150.781 73.4672 151.344V156.016H72.3777V155.055H72.3223C72.2485 155.209 72.1254 155.374 71.953 155.549C71.7807 155.725 71.5514 155.874 71.2651 155.997C70.9789 156.12 70.6296 156.182 70.2172 156.182ZM70.3834 155.203C70.8143 155.203 71.1774 155.118 71.4729 154.949C71.7714 154.78 71.9961 154.561 72.1469 154.294C72.3008 154.026 72.3777 153.744 72.3777 153.449V152.452C72.3316 152.507 72.23 152.558 72.073 152.604C71.9191 152.647 71.7406 152.686 71.5375 152.719C71.3375 152.75 71.142 152.778 70.9512 152.803C70.7635 152.824 70.6111 152.843 70.4942 152.858C70.2111 152.895 69.9464 152.955 69.7002 153.038C69.457 153.118 69.2601 153.24 69.1093 153.403C68.9615 153.563 68.8877 153.781 68.8877 154.058C68.8877 154.437 69.0277 154.723 69.3078 154.917C69.5909 155.108 69.9495 155.203 70.3834 155.203ZM75.6558 156.016V148.925H76.7452V156.016H75.6558ZM76.2097 147.743C75.9974 147.743 75.8143 147.671 75.6604 147.526C75.5096 147.381 75.4342 147.207 75.4342 147.004C75.4342 146.801 75.5096 146.627 75.6604 146.483C75.8143 146.338 75.9974 146.266 76.2097 146.266C76.4221 146.266 76.6037 146.338 76.7545 146.483C76.9084 146.627 76.9853 146.801 76.9853 147.004C76.9853 147.207 76.9084 147.381 76.7545 147.526C76.6037 147.671 76.4221 147.743 76.2097 147.743ZM80.0302 146.561V156.016H78.9407V146.561H80.0302Z" fill="#626A72"/>
<path d="M10.3935 6.10653V17.0156H9.11506L3.17045 8.45028H3.06392V17.0156H1.7429V6.10653H3.02131L8.98722 14.6932H9.09375V6.10653H10.3935ZM16.4968 17.1861C15.7084 17.1861 15.0284 17.0121 14.4567 16.6641C13.8885 16.3125 13.4499 15.8224 13.141 15.1939C12.8356 14.5618 12.6829 13.8267 12.6829 12.9886C12.6829 12.1506 12.8356 11.4119 13.141 10.7727C13.4499 10.13 13.8796 9.62926 14.43 9.2706C14.984 8.90838 15.6303 8.72727 16.3689 8.72727C16.7951 8.72727 17.2159 8.7983 17.6314 8.94034C18.0469 9.08239 18.4251 9.31321 18.766 9.63281C19.1069 9.94886 19.3785 10.3679 19.5809 10.8899C19.7834 11.4119 19.8846 12.0547 19.8846 12.8182V13.3509H13.5778V12.2642H18.6062C18.6062 11.8026 18.5138 11.3906 18.3292 11.0284C18.1481 10.6662 17.8888 10.3803 17.5515 10.1708C17.2177 9.96129 16.8235 9.85653 16.3689 9.85653C15.8682 9.85653 15.435 9.98082 15.0692 10.2294C14.707 10.4744 14.4282 10.794 14.2329 11.1882C14.0376 11.5824 13.94 12.005 13.94 12.456V13.1804C13.94 13.7983 14.0465 14.3221 14.2596 14.7518C14.4762 15.1779 14.7763 15.5028 15.1598 15.7266C15.5433 15.9467 15.989 16.0568 16.4968 16.0568C16.827 16.0568 17.1253 16.0107 17.3917 15.9183C17.6616 15.8224 17.8942 15.6804 18.0895 15.4922C18.2848 15.3004 18.4357 15.0625 18.5422 14.7784L19.7567 15.1193C19.6289 15.5312 19.414 15.8935 19.1122 16.206C18.8104 16.5149 18.4375 16.7564 17.9936 16.9304C17.5497 17.1009 17.0508 17.1861 16.4968 17.1861ZM23.8506 17.0156L21.3577 8.83381H22.6787L24.4471 15.098H24.5324L26.2795 8.83381H27.6219L29.3477 15.0767H29.4329L31.2014 8.83381H32.5224L30.0295 17.0156H28.7937L27.004 10.7301H26.8761L25.0863 17.0156H23.8506ZM40.1798 10.6662L39.0505 10.9858C38.9795 10.7976 38.8748 10.6147 38.7363 10.4371C38.6013 10.256 38.4167 10.1069 38.1823 9.9897C37.9479 9.87251 37.6479 9.81392 37.2821 9.81392C36.7814 9.81392 36.3641 9.92933 36.0303 10.1602C35.7001 10.3874 35.5349 10.6768 35.5349 11.0284C35.5349 11.3409 35.6486 11.5877 35.8758 11.7688C36.1031 11.9499 36.4582 12.1009 36.9412 12.2216L38.1557 12.5199C38.8872 12.6974 39.4323 12.9691 39.791 13.3349C40.1496 13.6971 40.329 14.1641 40.329 14.7358C40.329 15.2045 40.194 15.6236 39.9241 15.9929C39.6578 16.3622 39.2849 16.6534 38.8055 16.8665C38.3261 17.0795 37.7686 17.1861 37.1329 17.1861C36.2984 17.1861 35.6077 17.005 35.0608 16.6428C34.514 16.2805 34.1677 15.7514 34.0221 15.0554L35.2153 14.7571C35.329 15.1974 35.5438 15.5277 35.8599 15.7479C36.1795 15.968 36.5967 16.0781 37.1116 16.0781C37.6976 16.0781 38.1628 15.9538 38.5072 15.7053C38.8552 15.4531 39.0292 15.1513 39.0292 14.7997C39.0292 14.5156 38.9298 14.2777 38.7309 14.0859C38.5321 13.8906 38.2267 13.745 37.8148 13.6491L36.4511 13.3295C35.7018 13.152 35.1514 12.8768 34.7998 12.5039C34.4518 12.1275 34.2778 11.657 34.2778 11.0923C34.2778 10.6307 34.4074 10.2223 34.6667 9.86719C34.9295 9.51207 35.2863 9.23331 35.7373 9.03089C36.1919 8.82848 36.7068 8.72727 37.2821 8.72727C38.0917 8.72727 38.7274 8.90483 39.189 9.25994C39.6542 9.61506 39.9845 10.0838 40.1798 10.6662ZM43.6784 6.10653V17.0156H42.4213V6.10653H43.6784ZM49.6112 17.1861C48.8229 17.1861 48.1428 17.0121 47.5711 16.6641C47.0029 16.3125 46.5644 15.8224 46.2554 15.1939C45.95 14.5618 45.7973 13.8267 45.7973 12.9886C45.7973 12.1506 45.95 11.4119 46.2554 10.7727C46.5644 10.13 46.9941 9.62926 47.5445 9.2706C48.0985 8.90838 48.7448 8.72727 49.4834 8.72727C49.9095 8.72727 50.3303 8.7983 50.7458 8.94034C51.1613 9.08239 51.5395 9.31321 51.8804 9.63281C52.2213 9.94886 52.493 10.3679 52.6954 10.8899C52.8978 11.4119 52.999 12.0547 52.999 12.8182V13.3509H46.6922V12.2642H51.7206C51.7206 11.8026 51.6283 11.3906 51.4436 11.0284C51.2625 10.6662 51.0033 10.3803 50.6659 10.1708C50.3321 9.96129 49.9379 9.85653 49.4834 9.85653C48.9827 9.85653 48.5494 9.98082 48.1837 10.2294C47.8215 10.4744 47.5427 10.794 47.3474 11.1882C47.1521 11.5824 47.0544 12.005 47.0544 12.456V13.1804C47.0544 13.7983 47.161 14.3221 47.374 14.7518C47.5906 15.1779 47.8907 15.5028 48.2742 15.7266C48.6578 15.9467 49.1034 16.0568 49.6112 16.0568C49.9415 16.0568 50.2398 16.0107 50.5061 15.9183C50.776 15.8224 51.0086 15.6804 51.2039 15.4922C51.3992 15.3004 51.5502 15.0625 51.6567 14.7784L52.8712 15.1193C52.7433 15.5312 52.5285 15.8935 52.2267 16.206C51.9248 16.5149 51.5519 16.7564 51.108 16.9304C50.6642 17.1009 50.1652 17.1861 49.6112 17.1861ZM58.6695 8.83381V9.89915H54.4295V8.83381H58.6695ZM55.6653 6.87358H56.9224V14.6719C56.9224 15.027 56.9739 15.2933 57.0769 15.4709C57.1834 15.6449 57.3183 15.7621 57.4817 15.8224C57.6486 15.8793 57.8244 15.9077 58.009 15.9077C58.1475 15.9077 58.2612 15.9006 58.3499 15.8864C58.4387 15.8686 58.5097 15.8544 58.563 15.8438L58.8187 16.973C58.7335 17.005 58.6145 17.0369 58.4618 17.0689C58.3091 17.1044 58.1156 17.1222 57.8812 17.1222C57.5261 17.1222 57.1781 17.0458 56.8372 16.8931C56.4998 16.7404 56.2193 16.5078 55.9955 16.1953C55.7754 15.8828 55.6653 15.4886 55.6653 15.0128V6.87358ZM64.3188 8.83381V9.89915H60.0787V8.83381H64.3188ZM61.3145 6.87358H62.5716V14.6719C62.5716 15.027 62.6231 15.2933 62.7261 15.4709C62.8326 15.6449 62.9676 15.7621 63.1309 15.8224C63.2978 15.8793 63.4736 15.9077 63.6583 15.9077C63.7968 15.9077 63.9104 15.9006 63.9992 15.8864C64.0879 15.8686 64.159 15.8544 64.2122 15.8438L64.4679 16.973C64.3827 17.005 64.2637 17.0369 64.111 17.0689C63.9583 17.1044 63.7648 17.1222 63.5304 17.1222C63.1753 17.1222 62.8273 17.0458 62.4864 16.8931C62.149 16.7404 61.8685 16.5078 61.6448 16.1953C61.4246 15.8828 61.3145 15.4886 61.3145 15.0128V6.87358ZM69.7523 17.1861C68.9639 17.1861 68.2839 17.0121 67.7121 16.6641C67.1439 16.3125 66.7054 15.8224 66.3964 15.1939C66.091 14.5618 65.9383 13.8267 65.9383 12.9886C65.9383 12.1506 66.091 11.4119 66.3964 10.7727C66.7054 10.13 67.1351 9.62926 67.6855 9.2706C68.2395 8.90838 68.8858 8.72727 69.6244 8.72727C70.0505 8.72727 70.4714 8.7983 70.8868 8.94034C71.3023 9.08239 71.6805 9.31321 72.0214 9.63281C72.3623 9.94886 72.634 10.3679 72.8364 10.8899C73.0388 11.4119 73.14 12.0547 73.14 12.8182V13.3509H66.8332V12.2642H71.8616C71.8616 11.8026 71.7693 11.3906 71.5846 11.0284C71.4035 10.6662 71.1443 10.3803 70.8069 10.1708C70.4731 9.96129 70.079 9.85653 69.6244 9.85653C69.1237 9.85653 68.6905 9.98082 68.3247 10.2294C67.9625 10.4744 67.6837 10.794 67.4884 11.1882C67.2931 11.5824 67.1954 12.005 67.1954 12.456V13.1804C67.1954 13.7983 67.302 14.3221 67.515 14.7518C67.7317 15.1779 68.0317 15.5028 68.4153 15.7266C68.7988 15.9467 69.2444 16.0568 69.7523 16.0568C70.0825 16.0568 70.3808 16.0107 70.6471 15.9183C70.917 15.8224 71.1496 15.6804 71.3449 15.4922C71.5403 15.3004 71.6912 15.0625 71.7977 14.7784L73.0122 15.1193C72.8844 15.5312 72.6695 15.8935 72.3677 16.206C72.0658 16.5149 71.6929 16.7564 71.2491 16.9304C70.8052 17.1009 70.3062 17.1861 69.7523 17.1861ZM75.2523 17.0156V8.83381H76.4668V10.0696H76.552C76.7012 9.66477 76.9711 9.33629 77.3617 9.08416C77.7523 8.83203 78.1927 8.70597 78.6827 8.70597C78.7751 8.70597 78.8905 8.70774 79.029 8.71129C79.1675 8.71484 79.2722 8.72017 79.3432 8.72727V10.0057C79.3006 9.99503 79.203 9.97905 79.0503 9.95774C78.9011 9.93288 78.7431 9.92045 78.5762 9.92045C78.1785 9.92045 77.8234 10.0039 77.5109 10.1708C77.2019 10.3342 76.9569 10.5614 76.7758 10.8526C76.5982 11.1403 76.5094 11.4687 76.5094 11.8381V17.0156H75.2523Z" fill="#1F1F1F"/>
</svg>
