<svg width="1130" height="35" viewBox="0 0 1130 35" fill="none" xmlns="http://www.w3.org/2000/svg">
<path d="M325.315 7.92472C325.26 7.45691 325.035 7.09375 324.641 6.83523C324.247 6.5767 323.764 6.44744 323.192 6.44744C322.773 6.44744 322.407 6.51515 322.093 6.65057C321.782 6.78598 321.539 6.97218 321.364 7.20916C321.191 7.44614 321.105 7.71544 321.105 8.01704C321.105 8.26941 321.165 8.48639 321.285 8.66797C321.408 8.84647 321.565 8.99574 321.756 9.11577C321.947 9.23272 322.147 9.32966 322.356 9.4066C322.565 9.48047 322.758 9.54048 322.933 9.58665L323.893 9.84517C324.14 9.9098 324.414 9.99905 324.715 10.1129C325.02 10.2268 325.311 10.3822 325.588 10.5792C325.868 10.7731 326.099 11.0224 326.28 11.3271C326.462 11.6317 326.553 12.0057 326.553 12.4489C326.553 12.9598 326.419 13.4214 326.151 13.8338C325.886 14.2462 325.498 14.574 324.988 14.8171C324.48 15.0603 323.863 15.1818 323.136 15.1818C322.459 15.1818 321.873 15.0726 321.377 14.854C320.885 14.6355 320.497 14.3308 320.214 13.94C319.934 13.5491 319.776 13.0952 319.739 12.5781H320.92C320.951 12.9351 321.071 13.2306 321.281 13.4645C321.493 13.6953 321.761 13.8677 322.084 13.9815C322.41 14.0923 322.761 14.1477 323.136 14.1477C323.573 14.1477 323.966 14.0769 324.314 13.9354C324.661 13.7907 324.937 13.5907 325.14 13.3352C325.343 13.0767 325.445 12.7751 325.445 12.4304C325.445 12.1165 325.357 11.861 325.181 11.6641C325.006 11.4671 324.775 11.3071 324.489 11.1839C324.203 11.0608 323.893 10.9531 323.561 10.8608L322.398 10.5284C321.659 10.3161 321.074 10.0129 320.643 9.61896C320.213 9.22502 319.997 8.70952 319.997 8.07244C319.997 7.54309 320.14 7.08144 320.426 6.6875C320.716 6.29048 321.104 5.98272 321.59 5.7642C322.079 5.54261 322.625 5.43182 323.229 5.43182C323.838 5.43182 324.38 5.54107 324.854 5.75959C325.328 5.97502 325.703 6.27048 325.98 6.64595C326.26 7.02142 326.408 7.44768 326.423 7.92472H325.315ZM331.571 7.92472V8.84801H327.896V7.92472H331.571ZM328.967 6.22585H330.057V12.9844C330.057 13.2921 330.101 13.523 330.191 13.6768C330.283 13.8277 330.4 13.9292 330.542 13.9815C330.686 14.0308 330.839 14.0554 330.999 14.0554C331.119 14.0554 331.217 14.0492 331.294 14.0369C331.371 14.0215 331.433 14.0092 331.479 14L331.7 14.9787C331.626 15.0064 331.523 15.0341 331.391 15.0618C331.259 15.0926 331.091 15.108 330.888 15.108C330.58 15.108 330.278 15.0418 329.983 14.9094C329.691 14.7771 329.447 14.5755 329.254 14.3047C329.063 14.0339 328.967 13.6922 328.967 13.2798V6.22585ZM333.41 15.0156V7.92472H334.462V8.99574H334.536C334.666 8.64489 334.899 8.3602 335.238 8.14169C335.577 7.92318 335.958 7.81392 336.383 7.81392C336.463 7.81392 336.563 7.81546 336.683 7.81854C336.803 7.82161 336.894 7.82623 336.955 7.83239V8.94034C336.918 8.93111 336.834 8.91726 336.701 8.89879C336.572 8.87725 336.435 8.86648 336.291 8.86648C335.946 8.86648 335.638 8.9388 335.367 9.08345C335.099 9.22502 334.887 9.42199 334.73 9.67436C334.576 9.92365 334.499 10.2083 334.499 10.5284V15.0156H333.41ZM341.204 15.1634C340.521 15.1634 339.931 15.0125 339.436 14.7109C338.943 14.4062 338.563 13.9815 338.296 13.4368C338.031 12.889 337.899 12.2519 337.899 11.5256C337.899 10.7992 338.031 10.1591 338.296 9.60511C338.563 9.04806 338.936 8.61411 339.413 8.30327C339.893 7.98935 340.453 7.83239 341.093 7.83239C341.462 7.83239 341.827 7.89394 342.187 8.01704C342.547 8.14015 342.875 8.3402 343.171 8.61719C343.466 8.8911 343.701 9.25426 343.877 9.70668C344.052 10.1591 344.14 10.7161 344.14 11.3778V11.8395H338.674V10.8977H343.032C343.032 10.4976 342.952 10.1406 342.792 9.8267C342.635 9.51278 342.41 9.26503 342.118 9.08345C341.829 8.90187 341.487 8.81108 341.093 8.81108C340.659 8.81108 340.284 8.9188 339.967 9.13423C339.653 9.34659 339.411 9.62358 339.242 9.9652C339.073 10.3068 338.988 10.6731 338.988 11.0639V11.6918C338.988 12.2273 339.08 12.6812 339.265 13.0536C339.453 13.4229 339.713 13.7045 340.045 13.8984C340.378 14.0893 340.764 14.1847 341.204 14.1847C341.49 14.1847 341.749 14.1446 341.98 14.0646C342.213 13.9815 342.415 13.8584 342.584 13.6953C342.754 13.5291 342.884 13.3229 342.977 13.0767L344.029 13.3722C343.918 13.7292 343.732 14.0431 343.471 14.3139C343.209 14.5817 342.886 14.791 342.501 14.9418C342.116 15.0895 341.684 15.1634 341.204 15.1634ZM348.084 15.1818C347.635 15.1818 347.227 15.0972 346.861 14.9279C346.494 14.7556 346.204 14.5078 345.988 14.1847C345.773 13.8584 345.665 13.4645 345.665 13.0028C345.665 12.5966 345.745 12.2673 345.905 12.0149C346.065 11.7595 346.279 11.5594 346.547 11.4148C346.814 11.2701 347.11 11.1624 347.433 11.0916C347.759 11.0178 348.087 10.9593 348.416 10.9162C348.847 10.8608 349.197 10.8192 349.464 10.7915C349.735 10.7608 349.932 10.71 350.055 10.6392C350.181 10.5684 350.245 10.4453 350.245 10.2699V10.233C350.245 9.77746 350.12 9.42353 349.871 9.17116C349.624 8.9188 349.25 8.79261 348.749 8.79261C348.229 8.79261 347.821 8.90649 347.525 9.13423C347.23 9.36198 347.022 9.60511 346.902 9.86364L345.868 9.49432C346.053 9.06345 346.299 8.72798 346.607 8.48793C346.918 8.24479 347.256 8.07552 347.622 7.98011C347.992 7.88163 348.355 7.83239 348.712 7.83239C348.94 7.83239 349.201 7.86009 349.497 7.91548C349.795 7.9678 350.083 8.07706 350.36 8.24325C350.64 8.40945 350.872 8.66027 351.057 8.99574C351.242 9.3312 351.334 9.78054 351.334 10.3438V15.0156H350.245V14.0554H350.189C350.115 14.2093 349.992 14.3739 349.82 14.5494C349.647 14.7248 349.418 14.8741 349.132 14.9972C348.846 15.1203 348.496 15.1818 348.084 15.1818ZM348.25 14.2031C348.681 14.2031 349.044 14.1185 349.34 13.9492C349.638 13.7799 349.863 13.5614 350.014 13.2937C350.168 13.0259 350.245 12.7443 350.245 12.4489V11.4517C350.198 11.5071 350.097 11.5579 349.94 11.604C349.786 11.6471 349.607 11.6856 349.404 11.7195C349.204 11.7502 349.009 11.7779 348.818 11.8026C348.63 11.8241 348.478 11.8426 348.361 11.858C348.078 11.8949 347.813 11.9549 347.567 12.038C347.324 12.118 347.127 12.2396 346.976 12.4027C346.828 12.5627 346.754 12.7812 346.754 13.0582C346.754 13.4368 346.894 13.723 347.175 13.9169C347.458 14.1077 347.816 14.2031 348.25 14.2031ZM353.523 15.0156V7.92472H354.575V9.03267H354.667C354.815 8.65412 355.054 8.3602 355.383 8.15092C355.712 7.93857 356.108 7.83239 356.569 7.83239C357.037 7.83239 357.427 7.93857 357.737 8.15092C358.051 8.3602 358.296 8.65412 358.471 9.03267H358.545C358.727 8.66643 358.999 8.37559 359.362 8.16016C359.726 7.94164 360.161 7.83239 360.669 7.83239C361.303 7.83239 361.821 8.03089 362.225 8.42791C362.628 8.82185 362.829 9.43584 362.829 10.2699V15.0156H361.74V10.2699C361.74 9.74669 361.597 9.37275 361.311 9.14808C361.024 8.92341 360.687 8.81108 360.3 8.81108C359.801 8.81108 359.415 8.96188 359.141 9.26349C358.867 9.56203 358.73 9.94058 358.73 10.3991V15.0156H357.622V10.1591C357.622 9.75592 357.491 9.43123 357.23 9.18501C356.968 8.93572 356.631 8.81108 356.219 8.81108C355.935 8.81108 355.671 8.88648 355.425 9.03729C355.181 9.18809 354.984 9.39737 354.834 9.66513C354.686 9.92981 354.612 10.236 354.612 10.5838V15.0156H353.523ZM366.111 5.56108V15.0156H365.021V5.56108H366.111ZM368.306 15.0156V7.92472H369.396V15.0156H368.306ZM368.86 6.7429C368.648 6.7429 368.465 6.67057 368.311 6.52592C368.16 6.38127 368.085 6.20739 368.085 6.00426C368.085 5.80114 368.16 5.62725 368.311 5.4826C368.465 5.33795 368.648 5.26562 368.86 5.26562C369.073 5.26562 369.254 5.33795 369.405 5.4826C369.559 5.62725 369.636 5.80114 369.636 6.00426C369.636 6.20739 369.559 6.38127 369.405 6.52592C369.254 6.67057 369.073 6.7429 368.86 6.7429ZM372.681 10.75V15.0156H371.591V7.92472H372.644V9.03267H372.736C372.902 8.67259 373.155 8.38329 373.493 8.16477C373.832 7.94318 374.269 7.83239 374.804 7.83239C375.284 7.83239 375.705 7.93087 376.065 8.12784C376.425 8.32173 376.705 8.61719 376.905 9.0142C377.105 9.40814 377.205 9.90672 377.205 10.5099V15.0156H376.115V10.5838C376.115 10.0268 375.971 9.5928 375.681 9.28196C375.392 8.96804 374.995 8.81108 374.49 8.81108C374.143 8.81108 373.832 8.88648 373.558 9.03729C373.287 9.18809 373.073 9.40814 372.916 9.69744C372.759 9.98674 372.681 10.3376 372.681 10.75ZM382.369 15.1634C381.686 15.1634 381.096 15.0125 380.601 14.7109C380.108 14.4062 379.728 13.9815 379.46 13.4368C379.196 12.889 379.063 12.2519 379.063 11.5256C379.063 10.7992 379.196 10.1591 379.46 9.60511C379.728 9.04806 380.101 8.61411 380.578 8.30327C381.058 7.98935 381.618 7.83239 382.258 7.83239C382.627 7.83239 382.992 7.89394 383.352 8.01704C383.712 8.14015 384.04 8.3402 384.335 8.61719C384.631 8.8911 384.866 9.25426 385.042 9.70668C385.217 10.1591 385.305 10.7161 385.305 11.3778V11.8395H379.839V10.8977H384.197C384.197 10.4976 384.117 10.1406 383.957 9.8267C383.8 9.51278 383.575 9.26503 383.283 9.08345C382.994 8.90187 382.652 8.81108 382.258 8.81108C381.824 8.81108 381.449 8.9188 381.132 9.13423C380.818 9.34659 380.576 9.62358 380.407 9.9652C380.238 10.3068 380.153 10.6731 380.153 11.0639V11.6918C380.153 12.2273 380.245 12.6812 380.43 13.0536C380.618 13.4229 380.878 13.7045 381.21 13.8984C381.542 14.0893 381.929 14.1847 382.369 14.1847C382.655 14.1847 382.914 14.1446 383.144 14.0646C383.378 13.9815 383.58 13.8584 383.749 13.6953C383.918 13.5291 384.049 13.3229 384.142 13.0767L385.194 13.3722C385.083 13.7292 384.897 14.0431 384.635 14.3139C384.374 14.5817 384.051 14.791 383.666 14.9418C383.281 15.0895 382.849 15.1634 382.369 15.1634Z" fill="#0070A0"/>
<path d="M3.25 10.2884C3.25 9.78362 3.37311 9.32351 3.61932 8.90803C3.86553 8.49254 4.19638 8.16169 4.61186 7.91548C5.02734 7.66927 5.48745 7.54616 5.99219 7.54616C6.42921 7.54616 6.83239 7.64003 7.20171 7.82777C7.5741 8.01551 7.88187 8.27249 8.125 8.59872C8.36813 8.92187 8.51894 9.28812 8.57742 9.69744H7.46023C7.39867 9.38044 7.22786 9.12192 6.9478 8.92188C6.66773 8.71875 6.3492 8.61719 5.99219 8.61719C5.68442 8.61719 5.40436 8.69259 5.15199 8.84339C4.89962 8.9942 4.69804 9.19579 4.54723 9.44815C4.39643 9.70052 4.32102 9.98059 4.32102 10.2884C4.32102 10.5961 4.39643 10.8762 4.54723 11.1286C4.69804 11.3809 4.89962 11.5825 5.15199 11.7333C5.40436 11.8841 5.68442 11.9595 5.99219 11.9595C6.3492 11.9595 6.65081 11.8595 6.89702 11.6594C7.14631 11.4563 7.30327 11.1963 7.3679 10.8793H8.48509C8.42661 11.2886 8.2835 11.6564 8.05575 11.9826C7.82801 12.3058 7.53563 12.5612 7.17862 12.7489C6.82469 12.9367 6.42921 13.0305 5.99219 13.0305C5.48745 13.0305 5.02734 12.9074 4.61186 12.6612C4.19638 12.415 3.86553 12.0842 3.61932 11.6687C3.37311 11.2532 3.25 10.7931 3.25 10.2884ZM5.94602 15.1634C5.27509 15.1634 4.64418 15.0372 4.05327 14.7848C3.46544 14.5324 2.94685 14.1831 2.49751 13.7369C2.05125 13.2875 1.7004 12.7689 1.44496 12.1811C1.19259 11.5933 1.06795 10.9624 1.07102 10.2884C1.0741 9.61435 1.20182 8.98343 1.45419 8.3956C1.70964 7.80776 2.06049 7.29072 2.50675 6.84446C2.95301 6.39512 3.47005 6.04427 4.05788 5.7919C4.64572 5.53954 5.27509 5.41335 5.94602 5.41335C6.62003 5.41335 7.25095 5.53954 7.83878 5.7919C8.42969 6.04427 8.94673 6.39512 9.38992 6.84446C9.83617 7.29072 10.1855 7.80776 10.4379 8.3956C10.6902 8.98343 10.8179 9.61435 10.821 10.2884C10.8241 10.9624 10.6995 11.5933 10.4471 12.1811C10.1947 12.7689 9.84541 13.2875 9.39915 13.7369C8.95289 14.1831 8.4343 14.5324 7.84339 14.7848C7.25249 15.0372 6.62003 15.1634 5.94602 15.1634ZM5.94602 14.0923C6.4723 14.0923 6.96626 13.9938 7.42791 13.7969C7.88956 13.5999 8.29427 13.3275 8.64205 12.9798C8.98982 12.632 9.26219 12.2288 9.45916 11.7702C9.65613 11.3086 9.75308 10.8162 9.75 10.293C9.74692 9.76669 9.6469 9.27273 9.44993 8.81108C9.25296 8.34943 8.98059 7.94472 8.63281 7.59695C8.28504 7.24917 7.88187 6.9768 7.4233 6.77983C6.96473 6.58286 6.4723 6.48438 5.94602 6.48438C5.42282 6.48438 4.93194 6.58286 4.47337 6.77983C4.0148 6.9768 3.61162 7.25071 3.26385 7.60156C2.91607 7.94934 2.64216 8.35405 2.44212 8.8157C2.24515 9.27427 2.14512 9.76669 2.14205 10.293C2.13897 10.8131 2.23591 11.304 2.43288 11.7656C2.62985 12.2242 2.90223 12.6274 3.25 12.9751C3.60085 13.3229 4.00556 13.5968 4.46413 13.7969C4.92578 13.9938 5.41974 14.0923 5.94602 14.0923ZM16.9305 15.0156V14.1847L20.0512 10.7685C20.4174 10.3684 20.719 10.0206 20.956 9.72514C21.193 9.42661 21.3684 9.14654 21.4823 8.88494C21.5992 8.62026 21.6577 8.34328 21.6577 8.05398C21.6577 7.72159 21.5777 7.43383 21.4177 7.1907C21.2607 6.94756 21.0453 6.75982 20.7714 6.62749C20.4974 6.49515 20.1897 6.42898 19.8481 6.42898C19.4849 6.42898 19.1679 6.50438 18.8971 6.65518C18.6293 6.80291 18.4216 7.01065 18.2738 7.27841C18.1292 7.54616 18.0569 7.86009 18.0569 8.22017H16.9674C16.9674 7.66619 17.0951 7.17992 17.3506 6.76136C17.606 6.3428 17.9538 6.01657 18.3939 5.78267C18.8371 5.54877 19.3341 5.43182 19.885 5.43182C20.439 5.43182 20.9299 5.54877 21.3577 5.78267C21.7854 6.01657 22.1209 6.33203 22.364 6.72905C22.6072 7.12607 22.7287 7.56771 22.7287 8.05398C22.7287 8.40175 22.6657 8.74183 22.5395 9.07422C22.4164 9.40353 22.2009 9.77131 21.8932 10.1776C21.5885 10.5807 21.1653 11.0732 20.6236 11.6548L18.5001 13.9261V14H22.8949V15.0156H16.9305ZM28.0854 15.1449C27.3898 15.1449 26.7974 14.9556 26.308 14.5771C25.8187 14.1954 25.4447 13.643 25.1862 12.9197C24.9277 12.1934 24.7984 11.3163 24.7984 10.2884C24.7984 9.26657 24.9277 8.39406 25.1862 7.67081C25.4478 6.94448 25.8233 6.39051 26.3126 6.00888C26.805 5.62417 27.396 5.43182 28.0854 5.43182C28.7747 5.43182 29.3641 5.62417 29.8535 6.00888C30.3459 6.39051 30.7214 6.94448 30.9799 7.67081C31.2415 8.39406 31.3723 9.26657 31.3723 10.2884C31.3723 11.3163 31.243 12.1934 30.9845 12.9197C30.726 13.643 30.352 14.1954 29.8627 14.5771C29.3733 14.9556 28.7809 15.1449 28.0854 15.1449ZM28.0854 14.1293C28.7747 14.1293 29.3103 13.7969 29.6919 13.1321C30.0735 12.4673 30.2643 11.5194 30.2643 10.2884C30.2643 9.4697 30.1766 8.77261 30.0012 8.19709C29.8288 7.62157 29.5796 7.183 29.2533 6.88139C28.9302 6.57978 28.5408 6.42898 28.0854 6.42898C27.4021 6.42898 26.8681 6.76598 26.4834 7.43999C26.0987 8.11091 25.9064 9.06037 25.9064 10.2884C25.9064 11.107 25.9925 11.8026 26.1649 12.375C26.3372 12.9474 26.585 13.3829 26.9082 13.6815C27.2344 13.98 27.6268 14.1293 28.0854 14.1293ZM33.3265 15.0156V14.1847L36.4473 10.7685C36.8135 10.3684 37.1151 10.0206 37.3521 9.72514C37.5891 9.42661 37.7645 9.14654 37.8784 8.88494C37.9953 8.62026 38.0538 8.34328 38.0538 8.05398C38.0538 7.72159 37.9738 7.43383 37.8138 7.1907C37.6568 6.94756 37.4414 6.75982 37.1675 6.62749C36.8935 6.49515 36.5858 6.42898 36.2442 6.42898C35.881 6.42898 35.564 6.50438 35.2932 6.65518C35.0254 6.80291 34.8177 7.01065 34.6699 7.27841C34.5253 7.54616 34.453 7.86009 34.453 8.22017H33.3635C33.3635 7.66619 33.4912 7.17992 33.7466 6.76136C34.0021 6.3428 34.3499 6.01657 34.79 5.78267C35.2331 5.54877 35.7302 5.43182 36.2811 5.43182C36.8351 5.43182 37.326 5.54877 37.7537 5.78267C38.1815 6.01657 38.517 6.33203 38.7601 6.72905C39.0033 7.12607 39.1248 7.56771 39.1248 8.05398C39.1248 8.40175 39.0617 8.74183 38.9356 9.07422C38.8125 9.40353 38.597 9.77131 38.2893 10.1776C37.9846 10.5807 37.5614 11.0732 37.0197 11.6548L34.8961 13.9261V14H39.291V15.0156H33.3265ZM41.3976 15.0156V14.1847L44.5184 10.7685C44.8846 10.3684 45.1862 10.0206 45.4232 9.72514C45.6602 9.42661 45.8356 9.14654 45.9495 8.88494C46.0664 8.62026 46.1249 8.34328 46.1249 8.05398C46.1249 7.72159 46.0449 7.43383 45.8849 7.1907C45.7279 6.94756 45.5125 6.75982 45.2385 6.62749C44.9646 6.49515 44.6569 6.42898 44.3153 6.42898C43.9521 6.42898 43.6351 6.50438 43.3643 6.65518C43.0965 6.80291 42.8888 7.01065 42.741 7.27841C42.5964 7.54616 42.5241 7.86009 42.5241 8.22017H41.4346C41.4346 7.66619 41.5623 7.17992 41.8177 6.76136C42.0732 6.3428 42.421 6.01657 42.8611 5.78267C43.3042 5.54877 43.8013 5.43182 44.3522 5.43182C44.9062 5.43182 45.397 5.54877 45.8248 5.78267C46.2526 6.01657 46.5881 6.33203 46.8312 6.72905C47.0744 7.12607 47.1959 7.56771 47.1959 8.05398C47.1959 8.40175 47.1328 8.74183 47.0067 9.07422C46.8836 9.40353 46.6681 9.77131 46.3604 10.1776C46.0557 10.5807 45.6325 11.0732 45.0908 11.6548L42.9672 13.9261V14H47.3621V15.0156H41.3976ZM55.2085 15.0156L52.6233 5.56108H53.7866L55.7625 13.2614H55.8548L57.8676 5.56108H59.1602L61.173 13.2614H61.2653L63.2412 5.56108H64.4045L61.8193 15.0156H60.6375L58.5508 7.48153H58.477L56.3903 15.0156H55.2085ZM66.9728 10.75V15.0156H65.8833V5.56108H66.9728V9.03267H67.0651C67.2313 8.66643 67.4806 8.37559 67.813 8.16016C68.1484 7.94164 68.5947 7.83239 69.1518 7.83239C69.6349 7.83239 70.0581 7.92933 70.4213 8.12322C70.7845 8.31404 71.0661 8.60795 71.2661 9.00497C71.4692 9.39891 71.5708 9.90057 71.5708 10.5099V15.0156H70.4813V10.5838C70.4813 10.0206 70.3351 9.58511 70.0427 9.27734C69.7534 8.9665 69.3518 8.81108 68.8378 8.81108C68.4808 8.81108 68.1608 8.88648 67.8776 9.03729C67.5975 9.18809 67.376 9.40814 67.2128 9.69744C67.0528 9.98674 66.9728 10.3376 66.9728 10.75ZM73.764 15.0156V7.92472H74.8534V15.0156H73.764ZM74.3179 6.7429C74.1056 6.7429 73.9225 6.67057 73.7686 6.52592C73.6178 6.38127 73.5424 6.20739 73.5424 6.00426C73.5424 5.80114 73.6178 5.62725 73.7686 5.4826C73.9225 5.33795 74.1056 5.26562 74.3179 5.26562C74.5303 5.26562 74.7119 5.33795 74.8627 5.4826C75.0166 5.62725 75.0935 5.80114 75.0935 6.00426C75.0935 6.20739 75.0166 6.38127 74.8627 6.52592C74.7119 6.67057 74.5303 6.7429 74.3179 6.7429ZM77.0489 15.0156V7.92472H78.1015V8.99574H78.1753C78.3046 8.64489 78.5385 8.3602 78.877 8.14169C79.2156 7.92318 79.5972 7.81392 80.0219 7.81392C80.1019 7.81392 80.202 7.81546 80.322 7.81854C80.442 7.82161 80.5328 7.82623 80.5944 7.83239V8.94034C80.5574 8.93111 80.4728 8.91726 80.3405 8.89879C80.2112 8.87725 80.0742 8.86648 79.9296 8.86648C79.5849 8.86648 79.2771 8.9388 79.0063 9.08345C78.7385 9.22502 78.5262 9.42199 78.3692 9.67436C78.2153 9.92365 78.1384 10.2083 78.1384 10.5284V15.0156H77.0489ZM83.1753 5.56108V15.0156H82.0858V5.56108H83.1753ZM86.1648 15.0895C85.9371 15.0895 85.7417 15.0079 85.5785 14.8448C85.4154 14.6817 85.3339 14.4863 85.3339 14.2585C85.3339 14.0308 85.4154 13.8353 85.5785 13.6722C85.7417 13.5091 85.9371 13.4276 86.1648 13.4276C86.3926 13.4276 86.588 13.5091 86.7511 13.6722C86.9142 13.8353 86.9958 14.0308 86.9958 14.2585C86.9958 14.4093 86.9573 14.5478 86.8804 14.674C86.8065 14.8002 86.7065 14.9018 86.5803 14.9787C86.4572 15.0526 86.3187 15.0895 86.1648 15.0895ZM93.5426 15.0156H92.3424L95.8139 5.56108H96.9958L100.467 15.0156H99.2671L96.4418 7.05682H96.3679L93.5426 15.0156ZM93.9858 11.3224H98.8239V12.3381H93.9858V11.3224ZM103.082 5.56108V15.0156H101.992V5.56108H103.082ZM106.367 5.56108V15.0156H105.277V5.56108H106.367ZM112.566 15.0156V5.56108H115.761C116.499 5.56108 117.106 5.68726 117.58 5.93963C118.054 6.18892 118.404 6.53208 118.632 6.96911C118.86 7.40613 118.974 7.90317 118.974 8.46023C118.974 9.01728 118.86 9.51125 118.632 9.94212C118.404 10.373 118.055 10.7115 117.584 10.9577C117.113 11.2009 116.512 11.3224 115.779 11.3224H113.194V10.2884H115.742C116.247 10.2884 116.653 10.2145 116.961 10.0668C117.272 9.91903 117.497 9.70975 117.635 9.43892C117.777 9.16501 117.847 8.83878 117.847 8.46023C117.847 8.08168 117.777 7.75083 117.635 7.46768C117.493 7.18454 117.267 6.96603 116.956 6.81214C116.646 6.65518 116.235 6.5767 115.724 6.5767H113.711V15.0156H112.566ZM117.016 10.7685L119.343 15.0156H118.014L115.724 10.7685H117.016ZM120.934 15.0156V7.92472H122.023V15.0156H120.934ZM121.488 6.7429C121.276 6.7429 121.092 6.67057 120.938 6.52592C120.788 6.38127 120.712 6.20739 120.712 6.00426C120.712 5.80114 120.788 5.62725 120.938 5.4826C121.092 5.33795 121.276 5.26562 121.488 5.26562C121.7 5.26562 121.882 5.33795 122.033 5.4826C122.186 5.62725 122.263 5.80114 122.263 6.00426C122.263 6.20739 122.186 6.38127 122.033 6.52592C121.882 6.67057 121.7 6.7429 121.488 6.7429ZM127.081 17.8224C126.555 17.8224 126.102 17.7547 125.724 17.6193C125.345 17.487 125.03 17.3116 124.777 17.093C124.528 16.8776 124.33 16.6468 124.182 16.4006L125.05 15.7912C125.148 15.9205 125.273 16.0682 125.424 16.2344C125.575 16.4036 125.781 16.5498 126.042 16.6729C126.307 16.7991 126.653 16.8622 127.081 16.8622C127.653 16.8622 128.126 16.7237 128.498 16.4467C128.871 16.1697 129.057 15.7358 129.057 15.1449V13.7045H128.965C128.885 13.8338 128.771 13.9938 128.623 14.1847C128.478 14.3724 128.269 14.5401 127.995 14.6879C127.724 14.8325 127.358 14.9048 126.896 14.9048C126.324 14.9048 125.81 14.7694 125.354 14.4986C124.902 14.2277 124.544 13.8338 124.279 13.3168C124.017 12.7997 123.886 12.1719 123.886 11.4332C123.886 10.7069 124.014 10.0745 124.27 9.53587C124.525 8.9942 124.881 8.57564 125.336 8.28018C125.792 7.98165 126.318 7.83239 126.915 7.83239C127.377 7.83239 127.743 7.90933 128.014 8.06321C128.287 8.21402 128.497 8.38636 128.641 8.58026C128.789 8.77107 128.903 8.92803 128.983 9.05114H129.094V7.92472H130.146V15.2188C130.146 15.8281 130.008 16.3236 129.731 16.7053C129.457 17.09 129.088 17.3716 128.623 17.5501C128.161 17.7317 127.647 17.8224 127.081 17.8224ZM127.044 13.9261C127.481 13.9261 127.85 13.8261 128.152 13.6261C128.454 13.426 128.683 13.1383 128.84 12.7628C128.997 12.3873 129.075 11.938 129.075 11.4148C129.075 10.9039 128.998 10.453 128.845 10.0621C128.691 9.67128 128.463 9.36506 128.161 9.14347C127.86 8.92187 127.487 8.81108 127.044 8.81108C126.582 8.81108 126.198 8.92803 125.89 9.16193C125.585 9.39583 125.356 9.70975 125.202 10.1037C125.051 10.4976 124.976 10.9347 124.976 11.4148C124.976 11.9072 125.053 12.3427 125.207 12.7212C125.364 13.0967 125.595 13.3922 125.899 13.6076C126.207 13.82 126.589 13.9261 127.044 13.9261ZM133.43 10.75V15.0156H132.341V5.56108H133.43V9.03267H133.523C133.689 8.66643 133.938 8.37559 134.27 8.16016C134.606 7.94164 135.052 7.83239 135.609 7.83239C136.092 7.83239 136.516 7.92933 136.879 8.12322C137.242 8.31404 137.523 8.60795 137.724 9.00497C137.927 9.39891 138.028 9.90057 138.028 10.5099V15.0156H136.939V10.5838C136.939 10.0206 136.793 9.58511 136.5 9.27734C136.211 8.9665 135.809 8.81108 135.295 8.81108C134.938 8.81108 134.618 8.88648 134.335 9.03729C134.055 9.18809 133.833 9.40814 133.67 9.69744C133.51 9.98674 133.43 10.3376 133.43 10.75ZM143.305 7.92472V8.84801H139.63V7.92472H143.305ZM140.701 6.22585H141.791V12.9844C141.791 13.2921 141.836 13.523 141.925 13.6768C142.017 13.8277 142.134 13.9292 142.276 13.9815C142.42 14.0308 142.573 14.0554 142.733 14.0554C142.853 14.0554 142.951 14.0492 143.028 14.0369C143.105 14.0215 143.167 14.0092 143.213 14L143.434 14.9787C143.361 15.0064 143.257 15.0341 143.125 15.0618C142.993 15.0926 142.825 15.108 142.622 15.108C142.314 15.108 142.013 15.0418 141.717 14.9094C141.425 14.7771 141.182 14.5755 140.988 14.3047C140.797 14.0339 140.701 13.6922 140.701 13.2798V6.22585ZM150.04 9.51278L149.061 9.78977C149 9.62666 148.909 9.46816 148.789 9.31428C148.672 9.15732 148.512 9.02805 148.309 8.92649C148.106 8.82493 147.845 8.77415 147.528 8.77415C147.095 8.77415 146.733 8.87417 146.444 9.07422C146.157 9.27119 146.014 9.52202 146.014 9.8267C146.014 10.0975 146.113 10.3114 146.31 10.4684C146.507 10.6254 146.814 10.7562 147.233 10.8608L148.286 11.1193C148.92 11.2732 149.392 11.5086 149.703 11.8256C150.014 12.1396 150.169 12.5443 150.169 13.0398C150.169 13.446 150.052 13.8092 149.818 14.1293C149.587 14.4493 149.264 14.7017 148.849 14.8864C148.433 15.071 147.95 15.1634 147.399 15.1634C146.676 15.1634 146.077 15.0064 145.603 14.6925C145.129 14.3786 144.829 13.92 144.703 13.3168L145.737 13.0582C145.836 13.4399 146.022 13.7261 146.296 13.9169C146.573 14.1077 146.934 14.2031 147.381 14.2031C147.889 14.2031 148.292 14.0954 148.59 13.88C148.892 13.6615 149.043 13.3999 149.043 13.0952C149.043 12.849 148.956 12.6428 148.784 12.4766C148.612 12.3073 148.347 12.1811 147.99 12.098L146.808 11.821C146.159 11.6671 145.682 11.4286 145.377 11.1055C145.076 10.7792 144.925 10.3714 144.925 9.8821C144.925 9.48201 145.037 9.12808 145.262 8.82031C145.49 8.51255 145.799 8.27095 146.19 8.09553C146.584 7.9201 147.03 7.83239 147.528 7.83239C148.23 7.83239 148.781 7.98627 149.181 8.29403C149.584 8.6018 149.871 9.00805 150.04 9.51278ZM156.013 15.0156V5.56108H159.208C159.946 5.56108 160.553 5.68726 161.027 5.93963C161.501 6.18892 161.851 6.53208 162.079 6.96911C162.307 7.40613 162.421 7.90317 162.421 8.46023C162.421 9.01728 162.307 9.51125 162.079 9.94212C161.851 10.373 161.502 10.7115 161.031 10.9577C160.56 11.2009 159.959 11.3224 159.226 11.3224H156.641V10.2884H159.189C159.694 10.2884 160.1 10.2145 160.408 10.0668C160.719 9.91903 160.943 9.70975 161.082 9.43892C161.224 9.16501 161.294 8.83878 161.294 8.46023C161.294 8.08168 161.224 7.75083 161.082 7.46768C160.94 7.18454 160.714 6.96603 160.403 6.81214C160.092 6.65518 159.682 6.5767 159.171 6.5767H157.158V15.0156H156.013ZM160.463 10.7685L162.79 15.0156H161.46L159.171 10.7685H160.463ZM167.278 15.1634C166.594 15.1634 166.005 15.0125 165.509 14.7109C165.017 14.4062 164.637 13.9815 164.369 13.4368C164.105 12.889 163.972 12.2519 163.972 11.5256C163.972 10.7992 164.105 10.1591 164.369 9.60511C164.637 9.04806 165.009 8.61411 165.486 8.30327C165.967 7.98935 166.527 7.83239 167.167 7.83239C167.536 7.83239 167.901 7.89394 168.261 8.01704C168.621 8.14015 168.949 8.3402 169.244 8.61719C169.54 8.8911 169.775 9.25426 169.951 9.70668C170.126 10.1591 170.214 10.7161 170.214 11.3778V11.8395H164.748V10.8977H169.106C169.106 10.4976 169.026 10.1406 168.866 9.8267C168.709 9.51278 168.484 9.26503 168.192 9.08345C167.902 8.90187 167.561 8.81108 167.167 8.81108C166.733 8.81108 166.357 8.9188 166.04 9.13423C165.726 9.34659 165.485 9.62358 165.316 9.9652C165.146 10.3068 165.062 10.6731 165.062 11.0639V11.6918C165.062 12.2273 165.154 12.6812 165.339 13.0536C165.526 13.4229 165.786 13.7045 166.119 13.8984C166.451 14.0893 166.837 14.1847 167.278 14.1847C167.564 14.1847 167.822 14.1446 168.053 14.0646C168.287 13.9815 168.489 13.8584 168.658 13.6953C168.827 13.5291 168.958 13.3229 169.05 13.0767L170.103 13.3722C169.992 13.7292 169.806 14.0431 169.544 14.3139C169.283 14.5817 168.96 14.791 168.575 14.9418C168.19 15.0895 167.758 15.1634 167.278 15.1634ZM177.094 9.51278L176.115 9.78977C176.053 9.62666 175.963 9.46816 175.843 9.31428C175.726 9.15732 175.566 9.02805 175.363 8.92649C175.159 8.82493 174.899 8.77415 174.582 8.77415C174.148 8.77415 173.787 8.87417 173.497 9.07422C173.211 9.27119 173.068 9.52202 173.068 9.8267C173.068 10.0975 173.167 10.3114 173.364 10.4684C173.561 10.6254 173.868 10.7562 174.287 10.8608L175.339 11.1193C175.973 11.2732 176.446 11.5086 176.757 11.8256C177.068 12.1396 177.223 12.5443 177.223 13.0398C177.223 13.446 177.106 13.8092 176.872 14.1293C176.641 14.4493 176.318 14.7017 175.903 14.8864C175.487 15.071 175.004 15.1634 174.453 15.1634C173.73 15.1634 173.131 15.0064 172.657 14.6925C172.183 14.3786 171.883 13.92 171.757 13.3168L172.791 13.0582C172.89 13.4399 173.076 13.7261 173.35 13.9169C173.627 14.1077 173.988 14.2031 174.435 14.2031C174.942 14.2031 175.346 14.0954 175.644 13.88C175.946 13.6615 176.097 13.3999 176.097 13.0952C176.097 12.849 176.01 12.6428 175.838 12.4766C175.666 12.3073 175.401 12.1811 175.044 12.098L173.862 11.821C173.213 11.6671 172.736 11.4286 172.431 11.1055C172.129 10.7792 171.979 10.3714 171.979 9.8821C171.979 9.48201 172.091 9.12808 172.316 8.82031C172.543 8.51255 172.853 8.27095 173.244 8.09553C173.638 7.9201 174.084 7.83239 174.582 7.83239C175.284 7.83239 175.835 7.98627 176.235 8.29403C176.638 8.6018 176.924 9.00805 177.094 9.51278ZM182.036 15.1634C181.353 15.1634 180.763 15.0125 180.268 14.7109C179.775 14.4062 179.395 13.9815 179.128 13.4368C178.863 12.889 178.731 12.2519 178.731 11.5256C178.731 10.7992 178.863 10.1591 179.128 9.60511C179.395 9.04806 179.768 8.61411 180.245 8.30327C180.725 7.98935 181.285 7.83239 181.925 7.83239C182.295 7.83239 182.659 7.89394 183.019 8.01704C183.379 8.14015 183.707 8.3402 184.003 8.61719C184.298 8.8911 184.534 9.25426 184.709 9.70668C184.884 10.1591 184.972 10.7161 184.972 11.3778V11.8395H179.506V10.8977H183.864C183.864 10.4976 183.784 10.1406 183.624 9.8267C183.467 9.51278 183.242 9.26503 182.95 9.08345C182.661 8.90187 182.319 8.81108 181.925 8.81108C181.491 8.81108 181.116 8.9188 180.799 9.13423C180.485 9.34659 180.243 9.62358 180.074 9.9652C179.905 10.3068 179.82 10.6731 179.82 11.0639V11.6918C179.82 12.2273 179.912 12.6812 180.097 13.0536C180.285 13.4229 180.545 13.7045 180.877 13.8984C181.21 14.0893 181.596 14.1847 182.036 14.1847C182.322 14.1847 182.581 14.1446 182.812 14.0646C183.045 13.9815 183.247 13.8584 183.416 13.6953C183.586 13.5291 183.716 13.3229 183.809 13.0767L184.861 13.3722C184.75 13.7292 184.564 14.0431 184.303 14.3139C184.041 14.5817 183.718 14.791 183.333 14.9418C182.949 15.0895 182.516 15.1634 182.036 15.1634ZM186.829 15.0156V7.92472H187.882V8.99574H187.956C188.085 8.64489 188.319 8.3602 188.658 8.14169C188.996 7.92318 189.378 7.81392 189.802 7.81392C189.882 7.81392 189.982 7.81546 190.102 7.81854C190.222 7.82161 190.313 7.82623 190.375 7.83239V8.94034C190.338 8.93111 190.253 8.91726 190.121 8.89879C189.992 8.87725 189.855 8.86648 189.71 8.86648C189.365 8.86648 189.058 8.9388 188.787 9.08345C188.519 9.22502 188.307 9.42199 188.15 9.67436C187.996 9.92365 187.919 10.2083 187.919 10.5284V15.0156H186.829ZM197.88 7.92472L195.258 15.0156H194.15L191.528 7.92472H192.71L194.667 13.5753H194.741L196.699 7.92472H197.88ZM202.238 15.1634C201.554 15.1634 200.965 15.0125 200.469 14.7109C199.977 14.4062 199.597 13.9815 199.329 13.4368C199.064 12.889 198.932 12.2519 198.932 11.5256C198.932 10.7992 199.064 10.1591 199.329 9.60511C199.597 9.04806 199.969 8.61411 200.446 8.30327C200.926 7.98935 201.487 7.83239 202.127 7.83239C202.496 7.83239 202.861 7.89394 203.221 8.01704C203.581 8.14015 203.909 8.3402 204.204 8.61719C204.5 8.8911 204.735 9.25426 204.91 9.70668C205.086 10.1591 205.174 10.7161 205.174 11.3778V11.8395H199.708V10.8977H204.066C204.066 10.4976 203.986 10.1406 203.826 9.8267C203.669 9.51278 203.444 9.26503 203.152 9.08345C202.862 8.90187 202.521 8.81108 202.127 8.81108C201.693 8.81108 201.317 8.9188 201 9.13423C200.686 9.34659 200.445 9.62358 200.276 9.9652C200.106 10.3068 200.022 10.6731 200.022 11.0639V11.6918C200.022 12.2273 200.114 12.6812 200.299 13.0536C200.486 13.4229 200.746 13.7045 201.079 13.8984C201.411 14.0893 201.797 14.1847 202.238 14.1847C202.524 14.1847 202.782 14.1446 203.013 14.0646C203.247 13.9815 203.449 13.8584 203.618 13.6953C203.787 13.5291 203.918 13.3229 204.01 13.0767L205.063 13.3722C204.952 13.7292 204.766 14.0431 204.504 14.3139C204.243 14.5817 203.919 14.791 203.535 14.9418C203.15 15.0895 202.718 15.1634 202.238 15.1634ZM209.708 15.1634C209.118 15.1634 208.596 15.0141 208.144 14.7156C207.691 14.4139 207.337 13.9892 207.082 13.4414C206.826 12.8905 206.699 12.2396 206.699 11.4886C206.699 10.7438 206.826 10.0975 207.082 9.54972C207.337 9.00189 207.693 8.57872 208.148 8.28018C208.604 7.98165 209.13 7.83239 209.727 7.83239C210.189 7.83239 210.553 7.90933 210.821 8.06321C211.092 8.21402 211.298 8.38636 211.44 8.58026C211.584 8.77107 211.697 8.92803 211.777 9.05114H211.869V5.56108H212.958V15.0156H211.906V13.9261H211.777C211.697 14.0554 211.583 14.2185 211.435 14.4155C211.287 14.6094 211.077 14.7833 210.803 14.9371C210.529 15.0879 210.164 15.1634 209.708 15.1634ZM209.856 14.1847C210.293 14.1847 210.663 14.0708 210.964 13.843C211.266 13.6122 211.495 13.2937 211.652 12.8874C211.809 12.4781 211.887 12.0057 211.887 11.4702C211.887 10.9408 211.811 10.4776 211.657 10.0806C211.503 9.68052 211.275 9.36967 210.973 9.14808C210.672 8.92341 210.299 8.81108 209.856 8.81108C209.395 8.81108 209.01 8.92957 208.702 9.16655C208.397 9.40045 208.168 9.71899 208.014 10.1222C207.863 10.5223 207.788 10.9716 207.788 11.4702C207.788 11.9749 207.865 12.4335 208.019 12.8459C208.176 13.2552 208.407 13.5814 208.711 13.8246C209.019 14.0646 209.401 14.1847 209.856 14.1847ZM216.099 15.0895C215.871 15.0895 215.676 15.0079 215.513 14.8448C215.35 14.6817 215.268 14.4863 215.268 14.2585C215.268 14.0308 215.35 13.8353 215.513 13.6722C215.676 13.5091 215.871 13.4276 216.099 13.4276C216.327 13.4276 216.522 13.5091 216.685 13.6722C216.849 13.8353 216.93 14.0308 216.93 14.2585C216.93 14.4093 216.892 14.5478 216.815 14.674C216.741 14.8002 216.641 14.9018 216.515 14.9787C216.392 15.0526 216.253 15.0895 216.099 15.0895ZM224.234 5.56108V15.0156H223.089V5.56108H224.234ZM227.671 5.56108V15.0156H226.582V5.56108H227.671ZM230.956 5.56108V15.0156H229.867V5.56108H230.956ZM237.621 12.1165V7.92472H238.71V15.0156H237.621V13.8153H237.547C237.381 14.1754 237.122 14.4817 236.771 14.734C236.42 14.9833 235.977 15.108 235.442 15.108C234.998 15.108 234.605 15.011 234.26 14.8171C233.915 14.6201 233.644 14.3247 233.447 13.9308C233.25 13.5337 233.152 13.0336 233.152 12.4304V7.92472H234.241V12.3565C234.241 12.8736 234.386 13.286 234.675 13.5938C234.968 13.9015 235.34 14.0554 235.792 14.0554C236.063 14.0554 236.339 13.9862 236.619 13.8477C236.902 13.7092 237.139 13.4968 237.33 13.2106C237.524 12.9244 237.621 12.5597 237.621 12.1165ZM245.928 9.51278L244.95 9.78977C244.888 9.62666 244.797 9.46816 244.677 9.31428C244.56 9.15732 244.4 9.02805 244.197 8.92649C243.994 8.82493 243.734 8.77415 243.417 8.77415C242.983 8.77415 242.621 8.87417 242.332 9.07422C242.046 9.27119 241.903 9.52202 241.903 9.8267C241.903 10.0975 242.001 10.3114 242.198 10.4684C242.395 10.6254 242.703 10.7562 243.121 10.8608L244.174 11.1193C244.808 11.2732 245.28 11.5086 245.591 11.8256C245.902 12.1396 246.058 12.5443 246.058 13.0398C246.058 13.446 245.941 13.8092 245.707 14.1293C245.476 14.4493 245.153 14.7017 244.737 14.8864C244.322 15.071 243.839 15.1634 243.288 15.1634C242.564 15.1634 241.966 15.0064 241.492 14.6925C241.018 14.3786 240.718 13.92 240.592 13.3168L241.626 13.0582C241.724 13.4399 241.91 13.7261 242.184 13.9169C242.461 14.1077 242.823 14.2031 243.269 14.2031C243.777 14.2031 244.18 14.0954 244.479 13.88C244.78 13.6615 244.931 13.3999 244.931 13.0952C244.931 12.849 244.845 12.6428 244.673 12.4766C244.5 12.3073 244.236 12.1811 243.879 12.098L242.697 11.821C242.047 11.6671 241.57 11.4286 241.266 11.1055C240.964 10.7792 240.813 10.3714 240.813 9.8821C240.813 9.48201 240.926 9.12808 241.15 8.82031C241.378 8.51255 241.687 8.27095 242.078 8.09553C242.472 7.9201 242.918 7.83239 243.417 7.83239C244.119 7.83239 244.67 7.98627 245.07 8.29403C245.473 8.6018 245.759 9.00805 245.928 9.51278ZM250.981 7.92472V8.84801H247.307V7.92472H250.981ZM248.378 6.22585H249.467V12.9844C249.467 13.2921 249.512 13.523 249.601 13.6768C249.693 13.8277 249.81 13.9292 249.952 13.9815C250.097 14.0308 250.249 14.0554 250.409 14.0554C250.529 14.0554 250.627 14.0492 250.704 14.0369C250.781 14.0215 250.843 14.0092 250.889 14L251.111 14.9787C251.037 15.0064 250.934 15.0341 250.801 15.0618C250.669 15.0926 250.501 15.108 250.298 15.108C249.99 15.108 249.689 15.0418 249.393 14.9094C249.101 14.7771 248.858 14.5755 248.664 14.3047C248.473 14.0339 248.378 13.6922 248.378 13.2798V6.22585ZM252.82 15.0156V7.92472H253.873V8.99574H253.947C254.076 8.64489 254.31 8.3602 254.648 8.14169C254.987 7.92318 255.368 7.81392 255.793 7.81392C255.873 7.81392 255.973 7.81546 256.093 7.81854C256.213 7.82161 256.304 7.82623 256.366 7.83239V8.94034C256.329 8.93111 256.244 8.91726 256.112 8.89879C255.982 8.87725 255.846 8.86648 255.701 8.86648C255.356 8.86648 255.048 8.9388 254.778 9.08345C254.51 9.22502 254.297 9.42199 254.141 9.67436C253.987 9.92365 253.91 10.2083 253.91 10.5284V15.0156H252.82ZM259.944 15.1818C259.494 15.1818 259.087 15.0972 258.72 14.9279C258.354 14.7556 258.063 14.5078 257.848 14.1847C257.632 13.8584 257.525 13.4645 257.525 13.0028C257.525 12.5966 257.605 12.2673 257.765 12.0149C257.925 11.7595 258.139 11.5594 258.406 11.4148C258.674 11.2701 258.97 11.1624 259.293 11.0916C259.619 11.0178 259.947 10.9593 260.276 10.9162C260.707 10.8608 261.056 10.8192 261.324 10.7915C261.595 10.7608 261.792 10.71 261.915 10.6392C262.041 10.5684 262.104 10.4453 262.104 10.2699V10.233C262.104 9.77746 261.98 9.42353 261.73 9.17116C261.484 8.9188 261.11 8.79261 260.609 8.79261C260.088 8.79261 259.681 8.90649 259.385 9.13423C259.09 9.36198 258.882 9.60511 258.762 9.86364L257.728 9.49432C257.913 9.06345 258.159 8.72798 258.466 8.48793C258.777 8.24479 259.116 8.07552 259.482 7.98011C259.851 7.88163 260.215 7.83239 260.572 7.83239C260.799 7.83239 261.061 7.86009 261.356 7.91548C261.655 7.9678 261.943 8.07706 262.22 8.24325C262.5 8.40945 262.732 8.66027 262.917 8.99574C263.101 9.3312 263.194 9.78054 263.194 10.3438V15.0156H262.104V14.0554H262.049C261.975 14.2093 261.852 14.3739 261.68 14.5494C261.507 14.7248 261.278 14.8741 260.992 14.9972C260.705 15.1203 260.356 15.1818 259.944 15.1818ZM260.11 14.2031C260.541 14.2031 260.904 14.1185 261.199 13.9492C261.498 13.7799 261.723 13.5614 261.873 13.2937C262.027 13.0259 262.104 12.7443 262.104 12.4489V11.4517C262.058 11.5071 261.957 11.5579 261.8 11.604C261.646 11.6471 261.467 11.6856 261.264 11.7195C261.064 11.7502 260.869 11.7779 260.678 11.8026C260.49 11.8241 260.338 11.8426 260.221 11.858C259.938 11.8949 259.673 11.9549 259.427 12.038C259.184 12.118 258.987 12.2396 258.836 12.4027C258.688 12.5627 258.614 12.7812 258.614 13.0582C258.614 13.4368 258.754 13.723 259.034 13.9169C259.317 14.1077 259.676 14.2031 260.11 14.2031ZM268.466 7.92472V8.84801H264.791V7.92472H268.466ZM265.862 6.22585H266.952V12.9844C266.952 13.2921 266.997 13.523 267.086 13.6768C267.178 13.8277 267.295 13.9292 267.437 13.9815C267.581 14.0308 267.734 14.0554 267.894 14.0554C268.014 14.0554 268.112 14.0492 268.189 14.0369C268.266 14.0215 268.328 14.0092 268.374 14L268.595 14.9787C268.522 15.0064 268.418 15.0341 268.286 15.0618C268.154 15.0926 267.986 15.108 267.783 15.108C267.475 15.108 267.174 15.0418 266.878 14.9094C266.586 14.7771 266.343 14.5755 266.149 14.3047C265.958 14.0339 265.862 13.6922 265.862 13.2798V6.22585ZM270.305 15.0156V7.92472H271.394V15.0156H270.305ZM270.859 6.7429C270.647 6.7429 270.463 6.67057 270.31 6.52592C270.159 6.38127 270.083 6.20739 270.083 6.00426C270.083 5.80114 270.159 5.62725 270.31 5.4826C270.463 5.33795 270.647 5.26562 270.859 5.26562C271.071 5.26562 271.253 5.33795 271.404 5.4826C271.558 5.62725 271.635 5.80114 271.635 6.00426C271.635 6.20739 271.558 6.38127 271.404 6.52592C271.253 6.67057 271.071 6.7429 270.859 6.7429ZM276.471 15.1634C275.83 15.1634 275.269 15.011 274.786 14.7063C274.305 14.4016 273.93 13.9754 273.659 13.4276C273.391 12.8797 273.258 12.2396 273.258 11.5071C273.258 10.7685 273.391 10.1237 273.659 9.5728C273.93 9.0219 274.305 8.5941 274.786 8.28942C275.269 7.98473 275.83 7.83239 276.471 7.83239C277.111 7.83239 277.671 7.98473 278.151 8.28942C278.634 8.5941 279.01 9.0219 279.277 9.5728C279.548 10.1237 279.684 10.7685 279.684 11.5071C279.684 12.2396 279.548 12.8797 279.277 13.4276C279.01 13.9754 278.634 14.4016 278.151 14.7063C277.671 15.011 277.111 15.1634 276.471 15.1634ZM276.471 14.1847C276.957 14.1847 277.357 14.06 277.671 13.8107C277.985 13.5614 278.217 13.2337 278.368 12.8274C278.519 12.4212 278.594 11.9811 278.594 11.5071C278.594 11.0331 278.519 10.5915 278.368 10.1822C278.217 9.77285 277.985 9.442 277.671 9.18963C277.357 8.93726 276.957 8.81108 276.471 8.81108C275.984 8.81108 275.584 8.93726 275.27 9.18963C274.956 9.442 274.724 9.77285 274.573 10.1822C274.422 10.5915 274.347 11.0331 274.347 11.5071C274.347 11.9811 274.422 12.4212 274.573 12.8274C274.724 13.2337 274.956 13.5614 275.27 13.8107C275.584 14.06 275.984 14.1847 276.471 14.1847ZM282.636 10.75V15.0156H281.547V7.92472H282.599V9.03267H282.692C282.858 8.67259 283.11 8.38329 283.449 8.16477C283.787 7.94318 284.224 7.83239 284.76 7.83239C285.24 7.83239 285.66 7.93087 286.02 8.12784C286.38 8.32173 286.66 8.61719 286.86 9.0142C287.06 9.40814 287.16 9.90672 287.16 10.5099V15.0156H286.071V10.5838C286.071 10.0268 285.926 9.5928 285.637 9.28196C285.348 8.96804 284.951 8.81108 284.446 8.81108C284.098 8.81108 283.787 8.88648 283.513 9.03729C283.243 9.18809 283.029 9.40814 282.872 9.69744C282.715 9.98674 282.636 10.3376 282.636 10.75ZM294.374 9.51278L293.395 9.78977C293.334 9.62666 293.243 9.46816 293.123 9.31428C293.006 9.15732 292.846 9.02805 292.643 8.92649C292.44 8.82493 292.18 8.77415 291.863 8.77415C291.429 8.77415 291.067 8.87417 290.778 9.07422C290.492 9.27119 290.348 9.52202 290.348 9.8267C290.348 10.0975 290.447 10.3114 290.644 10.4684C290.841 10.6254 291.149 10.7562 291.567 10.8608L292.62 11.1193C293.254 11.2732 293.726 11.5086 294.037 11.8256C294.348 12.1396 294.503 12.5443 294.503 13.0398C294.503 13.446 294.386 13.8092 294.152 14.1293C293.922 14.4493 293.598 14.7017 293.183 14.8864C292.767 15.071 292.284 15.1634 291.733 15.1634C291.01 15.1634 290.412 15.0064 289.938 14.6925C289.464 14.3786 289.164 13.92 289.037 13.3168L290.071 13.0582C290.17 13.4399 290.356 13.7261 290.63 13.9169C290.907 14.1077 291.269 14.2031 291.715 14.2031C292.223 14.2031 292.626 14.0954 292.924 13.88C293.226 13.6615 293.377 13.3999 293.377 13.0952C293.377 12.849 293.291 12.6428 293.118 12.4766C292.946 12.3073 292.681 12.1811 292.324 12.098L291.142 11.821C290.493 11.6671 290.016 11.4286 289.711 11.1055C289.41 10.7792 289.259 10.3714 289.259 9.8821C289.259 9.48201 289.371 9.12808 289.596 8.82031C289.824 8.51255 290.133 8.27095 290.524 8.09553C290.918 7.9201 291.364 7.83239 291.863 7.83239C292.564 7.83239 293.115 7.98627 293.515 8.29403C293.918 8.6018 294.205 9.00805 294.374 9.51278ZM300.347 15.0156V5.56108H301.437V9.05114H301.529C301.609 8.92803 301.72 8.77107 301.861 8.58026C302.006 8.38636 302.212 8.21402 302.48 8.06321C302.751 7.90933 303.117 7.83239 303.579 7.83239C304.176 7.83239 304.702 7.98165 305.158 8.28018C305.613 8.57872 305.969 9.00189 306.224 9.54972C306.479 10.0975 306.607 10.7438 306.607 11.4886C306.607 12.2396 306.479 12.8905 306.224 13.4414C305.969 13.9892 305.615 14.4139 305.162 14.7156C304.71 15.0141 304.188 15.1634 303.597 15.1634C303.142 15.1634 302.777 15.0879 302.503 14.9371C302.229 14.7833 302.018 14.6094 301.871 14.4155C301.723 14.2185 301.609 14.0554 301.529 13.9261H301.4V15.0156H300.347ZM301.418 11.4702C301.418 12.0057 301.497 12.4781 301.654 12.8874C301.811 13.2937 302.04 13.6122 302.342 13.843C302.643 14.0708 303.012 14.1847 303.449 14.1847C303.905 14.1847 304.285 14.0646 304.59 13.8246C304.898 13.5814 305.128 13.2552 305.282 12.8459C305.439 12.4335 305.518 11.9749 305.518 11.4702C305.518 10.9716 305.441 10.5223 305.287 10.1222C305.136 9.71899 304.907 9.40045 304.599 9.16655C304.294 8.92957 303.911 8.81108 303.449 8.81108C303.006 8.81108 302.634 8.92341 302.332 9.14808C302.031 9.36967 301.803 9.68052 301.649 10.0806C301.495 10.4776 301.418 10.9408 301.418 11.4702ZM308.922 17.6747C308.737 17.6747 308.572 17.6593 308.428 17.6286C308.283 17.6009 308.183 17.5732 308.127 17.5455L308.404 16.5852C308.669 16.6529 308.903 16.6776 309.106 16.6591C309.309 16.6406 309.489 16.5498 309.646 16.3867C309.806 16.2267 309.953 15.9666 310.085 15.6065L310.288 15.0526L307.666 7.92472H308.848L310.805 13.5753H310.879L312.836 7.92472H314.018L311.008 16.0497C310.873 16.416 310.705 16.7191 310.505 16.9592C310.305 17.2023 310.073 17.3823 309.808 17.4993C309.546 17.6162 309.251 17.6747 308.922 17.6747Z" fill="#1F1F1F"/>
<path d="M388.929 15.0952C388.684 15.0952 388.473 15.0073 388.298 14.8317C388.122 14.656 388.034 14.4455 388.034 14.2003C388.034 13.955 388.122 13.7446 388.298 13.5689C388.473 13.3932 388.684 13.3054 388.929 13.3054C389.174 13.3054 389.385 13.3932 389.56 13.5689C389.736 13.7446 389.824 13.955 389.824 14.2003C389.824 14.3627 389.782 14.5118 389.7 14.6477C389.62 14.7836 389.512 14.893 389.376 14.9759C389.244 15.0554 389.095 15.0952 388.929 15.0952Z" fill="#1F1F1F"/>
<g clip-path="url(#clip0_2_1656)">
<path d="M1045.72 10.9289C1044.92 11.3578 1044.08 11.6392 1043.21 11.7637C1044.12 11.101 1044.81 10.0582 1045.13 8.82958C1044.27 9.44762 1043.33 9.88282 1042.35 10.1163C1041.94 9.58692 1041.44 9.1651 1040.89 8.87699C1040.34 8.58888 1039.75 8.44062 1039.15 8.44141C1036.73 8.44141 1034.77 10.8161 1034.77 13.7462C1034.77 14.1616 1034.81 14.5669 1034.88 14.9554C1031.24 14.7341 1028.01 12.622 1025.85 9.41218C1025.46 10.2218 1025.26 11.1423 1025.26 12.0793C1025.26 12.9527 1025.43 13.8128 1025.77 14.583C1026.11 15.3534 1026.61 16.01 1027.21 16.4946C1026.51 16.4679 1025.83 16.2404 1025.22 15.8312C1025.22 15.8533 1025.22 15.8751 1025.22 15.898C1025.22 18.4674 1026.73 20.6114 1028.74 21.0994C1028.09 21.3108 1027.41 21.3418 1026.76 21.19C1027.32 23.297 1028.93 24.8313 1030.85 24.8743C1029.3 26.3489 1027.38 27.1488 1025.41 27.1452C1025.05 27.1452 1024.71 27.1204 1024.36 27.071C1026.37 28.6294 1028.7 29.4567 1031.08 29.4538C1039.14 29.4538 1043.55 21.3709 1043.55 14.3617C1043.55 14.1321 1043.54 13.9026 1043.54 13.6747C1044.39 12.9245 1045.14 11.9946 1045.72 10.9289Z" fill="black"/>
</g>
<g clip-path="url(#clip1_2_1656)">
<path d="M1086.37 8.01562H1067.62C1066.73 8.01562 1066 8.72461 1066 9.60117V28.4258C1066 29.3023 1066.73 30.0156 1067.62 30.0156H1086.37C1087.27 30.0156 1088 29.3024 1088 28.4301V9.60117C1088 8.72461 1087.27 8.01562 1086.37 8.01562ZM1072.53 26.7629H1069.26V16.2613H1072.53V26.7629ZM1070.89 14.8305C1069.85 14.8305 1069 13.984 1069 12.9398C1069 11.8957 1069.85 11.0492 1070.89 11.0492C1071.94 11.0492 1072.78 11.8957 1072.78 12.9398C1072.78 13.9797 1071.94 14.8305 1070.89 14.8305ZM1084.75 26.7629H1081.49V21.6582C1081.49 20.4422 1081.46 18.8738 1079.79 18.8738C1078.09 18.8738 1077.83 20.2016 1077.83 21.5723V26.7629H1074.58V16.2613H1077.7V17.6965H1077.75C1078.18 16.8715 1079.25 15.9992 1080.83 15.9992C1084.14 15.9992 1084.75 18.1734 1084.75 21.0008V26.7629Z" fill="black"/>
</g>
<g clip-path="url(#clip2_2_1656)">
<path d="M1130 19.0156C1130 12.9405 1125.08 8.01562 1119 8.01562C1112.92 8.01562 1108 12.9405 1108 19.0156C1108 24.506 1112.02 29.0568 1117.28 29.882V22.1953H1114.49V19.0156H1117.28V16.5922C1117.28 13.8353 1118.92 12.3125 1121.44 12.3125C1122.64 12.3125 1123.9 12.5273 1123.9 12.5273V15.2344H1122.51C1121.15 15.2344 1120.72 16.0824 1120.72 16.9531V19.0156H1123.77L1123.28 22.1953H1120.72V29.882C1125.98 29.0568 1130 24.506 1130 19.0156Z" fill="black"/>
</g>
<defs>
<clipPath id="clip0_2_1656">
<rect width="22" height="22" fill="white" transform="translate(1024 8.01562)"/>
</clipPath>
<clipPath id="clip1_2_1656">
<rect width="22" height="22" fill="white" transform="translate(1066 8.01562)"/>
</clipPath>
<clipPath id="clip2_2_1656">
<rect width="22" height="22" fill="white" transform="translate(1108 8.01562)"/>
</clipPath>
</defs>
</svg>
